%
M48
M72
T01C0.00591
T02C0.00787
T03C0.01181
T04C0.01575
T05C0.02362
T06C0.03543
T07C0.04000
T08C0.05118
T09C0.12598
%
T01
X85341Y60106
X95479Y57251
X113589Y64043
X126876Y59515
X150892Y80184
X149120Y96917
X128648Y99869
X121365Y100066
X117329Y98688
X114672Y94357
X111620Y97507
X107880Y99476
X104632Y97802
X104928Y95834
X103353Y94161
X102073Y97310
X99809Y97409
X92329Y97212
X89869Y97015
X81404Y100263
X85243Y109220
X78353Y112960
X85341Y114633
X85931Y117586
X85735Y120834
X83963Y122606
X83766Y124672
X78648Y128609
X76581Y134417
X84750Y132153
X94593Y126936
X103648Y126149
X103746Y121326
X103943Y116208
X110931Y116798
X110735Y119456
X111227Y126346
X113392Y130775
X109750Y133531
X99908Y139928
X100794Y146424
X90164Y140224
X112506Y150460
X116640Y152428
X119790Y156759
X131994Y166798
X125892Y173688
X121168Y180381
X111916Y169948
X108569Y171720
X106404Y174082
X103845Y175657
X100892Y176050
X97743Y175854
X94987Y175854
X92034Y176641
X81404Y181759
X77073Y181956
X76483Y186483
X78648Y191405
X81699Y193865
X81699Y205184
X80026Y209515
X76089Y210893
X74514Y216405
X69987Y216011
X71266Y221031
X76778Y221031
X86522Y222704
X88097Y218964
X89278Y217389
X91542Y221917
X91443Y224672
X94396Y215617
X86325Y211483
X91542Y208039
X91542Y203905
X102762Y205184
X105026Y210302
X109160Y210499
X108963Y214436
X112900Y214633
X113097Y218373
X109160Y218570
X105223Y218373
X102762Y222310
X105321Y223294
X108372Y225952
X105223Y227625
X105026Y230184
X102762Y234121
X99219Y232153
X91542Y234417
X86128Y235302
X85735Y239239
X76483Y239239
X76286Y235302
X72939Y237468
X62703Y235499
X60931Y233531
X60931Y231365
X59554Y247015
X56010Y248294
X70085Y253708
X79632Y248688
X81601Y251641
X92723Y245637
X100498Y243964
X100498Y241602
X105420Y237861
X108569Y238550
X117034Y241995
X105223Y245932
X105223Y247999
X105223Y251838
X101286Y251149
X101286Y255086
X99908Y264633
X95479Y265322
X94199Y276247
X96758Y281759
X99120Y281365
X100302Y278806
X108569Y281956
X109455Y279003
X108372Y288058
X102664Y294357
X105223Y296129
X101286Y297901
X116935Y289928
X122939Y283924
X126876Y279594
X128648Y261680
X124908Y261680
X121168Y261483
X120971Y253806
X124711Y253806
X128845Y253806
X135833Y242192
X147546Y241897
X148530Y240027
X152467Y236877
X152664Y234121
X152664Y230578
X148530Y230184
X148530Y228216
X137014Y229397
X135046Y230184
X135735Y226149
X136424Y222802
X134160Y222310
X131207Y222310
X137703Y218472
X125006Y217389
X120774Y214633
X116837Y214239
X116837Y210499
X114869Y206365
X109849Y203905
X115262Y201838
X93215Y193570
X93806Y188058
X70183Y183924
X63687Y187665
X65459Y191995
X65656Y196917
X63687Y201247
X65656Y205184
X65262Y212665
X113097Y226247
X117034Y226247
X117034Y230184
X124120Y226346
X126778Y230184
X120971Y220735
X116640Y221720
X152467Y216995
X165164Y229889
X163589Y233826
X164770Y235204
X160538Y238255
X156404Y239535
X153156Y242291
X156601Y245932
X147546Y245834
X148727Y254003
X154042Y253806
X164475Y261680
X168215Y263846
X169494Y257645
X173333Y254495
X170872Y249279
X170479Y241897
X169987Y233924
X172546Y233531
X171266Y231169
X173825Y230283
X175695Y233728
X175695Y226838
X177664Y226838
X175105Y220342
X184652Y210991
X188589Y217783
X201286Y202527
X204731Y198983
X187309Y194751
X168510Y186582
X160931Y188452
X152467Y194554
X135931Y178609
X153057Y170539
X164869Y169948
X165459Y162074
X181994Y148098
X180420Y144653
X174908Y145932
X174711Y143176
X193215Y142586
X215065Y136090
X215853Y139830
X227565Y138747
X231994Y135696
X231994Y132546
X233274Y129495
X217034Y128216
X214081Y131759
X231994Y146523
X222939Y154298
X226089Y163255
X236916Y158531
X256601Y158924
X256207Y165224
X256010Y171129
X256010Y173885
X256010Y176641
X255420Y178806
X255420Y181562
X250695Y186287
X249514Y184712
X247743Y177428
X238294Y178905
X239081Y182940
X236916Y183137
X230617Y193570
X247743Y204987
X254928Y200263
X266246Y186385
X268412Y164239
X280026Y140617
X281601Y137665
X285735Y137468
X288884Y137468
X284061Y130775
X298924Y111090
X307191Y105775
X312900Y105873
X300498Y104397
X277861Y88452
X303254Y83924
X295380Y58137
X297349Y56365
X351483Y100657
X353648Y99279
X355223Y104003
X361522Y106562
X355223Y109515
X356798Y112074
X353648Y113649
X353648Y118373
X355223Y119357
X357585Y119357
X358963Y115617
X364081Y118964
X366640Y119357
X366246Y122310
X373530Y124082
X370577Y128806
X369002Y130972
X368806Y132940
X372939Y132940
X372743Y140617
X374711Y140617
X368806Y140814
X366837Y140814
X364869Y140814
X362900Y140814
X352861Y148688
X350105Y145735
X349120Y151050
X342821Y148688
X340459Y151050
X337900Y150066
X335538Y150657
X358963Y164633
X361916Y164633
X359947Y169161
X356404Y170539
X352861Y178413
X358372Y180578
X357191Y187074
X375105Y191995
X381601Y191995
X380813Y202625
X382782Y202625
X384750Y202625
X386719Y202625
X406601Y202625
X408569Y202625
X410538Y202625
X412506Y202625
X414475Y202625
X405813Y195145
X400498Y184712
X406010Y179987
X403648Y177428
X398530Y177035
X381404Y166995
X381994Y164830
X378648Y156759
X366837Y156562
X362900Y156759
X390656Y150066
X391640Y152231
X400302Y145342
X403648Y145932
X406010Y145342
X382979Y127822
X390459Y119161
X377664Y109909
X366246Y112468
X355420Y125854
X352467Y126838
X358530Y128078
X343117Y118767
X337900Y118373
X335439Y117980
X339672Y111090
X344593Y109515
X347152Y107546
X376680Y89043
X391246Y99869
X399317Y104397
X403057Y99672
X404042Y97310
X426680Y107940
X442624Y89043
X440262Y81562
X457585Y81169
X479435Y78019
X481207Y86090
X503845Y96720
X503845Y99279
X503845Y101247
X503845Y103413
X503845Y105578
X503845Y107940
X503648Y110302
X505420Y118570
X500498Y118964
X495577Y118373
X492920Y115420
X513687Y124279
X515853Y122704
X519593Y130184
X525892Y132546
X528648Y131956
X531404Y133334
X530026Y140617
X532388Y140814
X525892Y140617
X524042Y140617
X522152Y140617
X520183Y140617
X510341Y148688
X507191Y148688
X505813Y150854
X499514Y151838
X495577Y152035
X493806Y150263
X499317Y147704
X521561Y156759
X525498Y156562
X522349Y164239
X522152Y168570
X513491Y172507
X509947Y178806
X499120Y182940
X525498Y186680
X539672Y168964
X539475Y165420
X538491Y163452
X536128Y156759
X548530Y151641
X552270Y149476
X558176Y146917
X561128Y147507
X563491Y145539
X544593Y126050
X546561Y118176
X529042Y121523
X527270Y119357
X517231Y93373
X512113Y76444
X474711Y53413
X472546Y49476
X470183Y43373
X427270Y68767
X464475Y104987
X465853Y110302
X557782Y177035
X561128Y179003
X563589Y178806
X433963Y203216
X431994Y203216
X398924Y242586
X403648Y246326
X376246Y231208
X376246Y229121
X370105Y223609
X367664Y235027
X370971Y242783
X370971Y247901
X370695Y250972
X367979Y259003
X354711Y258452
X349593Y253098
X349593Y251050
X360026Y246523
X354239Y242783
X348136Y242783
X350302Y237861
X351876Y232940
X356286Y234672
X354120Y223334
X333176Y241011
X326483Y244357
X308963Y229003
X313294Y222507
X308176Y216602
X294691Y231857
X294691Y235302
X284947Y247507
X275302Y240420
X273530Y240027
X266050Y234712
X263491Y231956
X261128Y234712
X261128Y229200
X266050Y229200
X251876Y225263
X249514Y229200
X246955Y223098
X256010Y216011
X280026Y212665
X269396Y251444
X263491Y250263
X274317Y264830
X277467Y264633
X279632Y264830
X282388Y264830
X270183Y267783
X241640Y253609
X199317Y265617
X181404Y276247
X176778Y261779
X184947Y250558
X180420Y244161
X193707Y244554
X160341Y232251
X83766Y264043
X71955Y267783
X69002Y262468
X62703Y267783
X51876Y268767
X120774Y298294
X124908Y303806
X168215Y344850
X178254Y340420
X187506Y339830
X188392Y344653
X190065Y347212
X208766Y341798
X214278Y339239
X219987Y346523
X191640Y368472
X169987Y370145
X146561Y345735
X238097Y295932
X335341Y309318
X337900Y307743
X340065Y304397
X360931Y318373
X360931Y320539
X363097Y321326
X362900Y329791
X373333Y329791
X376286Y329987
X387703Y337665
X389475Y336090
X391443Y339830
X397349Y338255
X400498Y335696
X403648Y335499
X405223Y339633
X378648Y345539
X376680Y345539
X374711Y345539
X372743Y345539
X369002Y345342
X367034Y345342
X370774Y350657
X370971Y353413
X369002Y353413
X364869Y352428
X371168Y360499
X372546Y362665
X374120Y364633
X383569Y365027
X381994Y356956
X399514Y367783
X403648Y370145
X405813Y367586
X381798Y379594
X375498Y379200
X372546Y377035
X372546Y372901
X373924Y370539
X367231Y377428
X354435Y371129
X352861Y375460
X354435Y360893
X343018Y340224
X337900Y339043
X335538Y336680
X348333Y330381
X376089Y315224
X381601Y318176
X383372Y316405
X386325Y316011
X386719Y308334
X380813Y310499
X394199Y303019
X380813Y296129
X372152Y294161
X364869Y305775
X361522Y280184
X359554Y280184
X345971Y274082
X380026Y280578
X381994Y280578
X383963Y280578
X385931Y280578
X387900Y280578
X406601Y280578
X408569Y280578
X410538Y280578
X412506Y280578
X414475Y280578
X406601Y291602
X431994Y279987
X433963Y279987
X493018Y308137
X495577Y307546
X500597Y309909
X500006Y302133
X513294Y302231
X524711Y301444
X534160Y308531
X540065Y307153
X545380Y309515
X543609Y317192
X540065Y321326
X537506Y318767
X537703Y315027
X533963Y315027
X538884Y300854
X564081Y302822
X534357Y329791
X532191Y329791
X520577Y329987
X508766Y332153
X506601Y335696
X498924Y340617
X495577Y340224
X493018Y339633
X510538Y361483
X507191Y366995
X495577Y373491
X497349Y385302
X503845Y385499
X529239Y380381
X533963Y379003
X533963Y377035
X531994Y375460
X527861Y372113
X541837Y371326
X544790Y371523
X541640Y377035
X544790Y378413
X556404Y367980
X561128Y367783
X563491Y369554
X536128Y345735
X534160Y345735
X532191Y345735
X530223Y345735
X526286Y345539
X524317Y345342
X522428Y345539
X530223Y353609
X522939Y357153
X548333Y339239
X548136Y336680
X551680Y336483
X554239Y338846
X556601Y334712
X561128Y335893
X563687Y334712
X518215Y319751
X518806Y316602
X361522Y203216
X359554Y203216
X339376Y198590
X228353Y173590
X214357Y164751
X201680Y160106
X201680Y157940
X188589Y176936
X144002Y158137
X137309Y155381
X137703Y151838
X135931Y148885
X141837Y148393
X150695Y144653
X149908Y130184
X155813Y124279
X160538Y128806
X125302Y130578
X121561Y130972
X124120Y134515
X95971Y116405
X109554Y111976
X121561Y107054
X123431Y110401
X114672Y88452
X161719Y60302
X168215Y63452
X194199Y90617
X197152Y89830
X200892Y90027
X192034Y95735
X213884Y97409
X236719Y107546
X65557Y101543
X57683Y87271
X60538Y83334
X65656Y76838
X310931Y371720
X308766Y380381
X315853Y379200
X298136Y375460
X259357Y377625
X599317Y65027
T02
X564672Y128216
X564672Y132940
X564672Y137665
X559554Y137665
X559554Y132940
X559554Y128216
X554435Y128216
X554435Y132940
X554435Y137665
X536128Y132704
X523727Y132546
X521916Y144791
X528254Y148728
X533215Y152586
X533254Y144791
X521916Y152665
X521719Y166326
X501680Y164436
X497624Y164436
X497349Y169161
X501680Y169161
X491443Y169161
X491443Y164436
X491443Y159712
X497703Y159672
X501680Y159712
X501680Y137665
X497506Y137428
X497624Y132822
X501680Y132940
X501680Y128216
X497703Y128176
X491443Y128216
X491443Y132940
X491443Y137665
X554435Y159712
X559554Y159712
X564672Y159712
X564672Y164436
X564672Y169161
X559554Y169161
X559554Y164436
X554435Y164436
X554435Y169161
X423018Y240814
X418845Y235775
X416286Y241602
X414632Y243373
X416325Y244987
X412861Y244987
X412939Y241641
X406483Y242231
X406404Y234633
X410459Y235342
X423057Y247507
X421758Y250224
X409514Y251680
X406443Y253964
X339554Y233216
X339554Y230066
X325459Y224633
X322861Y223491
X319672Y223806
X316404Y223806
X312349Y228491
X308215Y224476
X304593Y224751
X301365Y225342
X298372Y225539
X287939Y233885
X288097Y237231
X288648Y241247
X284475Y239909
X289514Y247665
X289987Y250106
X293963Y263452
X298963Y264318
X309317Y265263
X312861Y265696
X328924Y256917
X328294Y253176
X274908Y233924
X274514Y228019
X267428Y221129
X263491Y243176
X259357Y243373
X239081Y234121
X240262Y260302
X240065Y263846
X243806Y274672
X239081Y285893
X242821Y296129
X242231Y309318
X242034Y312665
X267624Y297310
X268215Y291405
X209554Y308137
X164278Y269554
X152467Y265617
X160341Y261680
X167428Y257743
X156404Y253806
X148530Y257743
X140656Y261680
X136719Y253806
X140656Y249869
X140656Y245932
X136719Y245932
X132782Y241995
X128845Y241995
X128845Y238058
X124908Y234121
X124908Y230184
X128845Y230184
X120971Y230184
X120971Y226247
X117034Y218373
X124908Y214436
X136719Y210499
X140656Y210499
X140656Y218373
X148530Y214436
X156404Y210499
X164278Y206562
X168215Y218373
X152467Y222310
X144593Y226247
X140656Y226247
X144593Y230184
X144593Y234121
X148530Y234121
X140656Y234121
X136719Y234121
X124908Y241995
X120971Y241995
X120971Y238058
X120971Y245932
X124908Y245932
X128845Y245932
X128845Y249869
X132782Y249869
X124908Y249869
X120971Y249869
X124908Y257743
X117034Y261680
X109160Y265617
X105223Y257743
X113097Y253806
X109160Y245932
X96365Y247901
X92034Y249672
X86522Y247507
X94396Y241995
X94396Y239043
X94396Y235893
X94396Y233137
X94396Y229397
X94396Y226247
X94396Y223294
X97349Y228216
X105223Y234121
X113097Y230184
X97349Y214436
X94396Y213452
X94396Y209515
X94396Y206562
X101089Y197901
X107388Y197507
X109160Y192389
X103057Y192389
X113491Y197704
X115459Y192192
X121561Y191995
X119396Y197704
X122939Y201641
X126286Y197704
X128254Y191602
X135341Y191602
X140459Y191602
X133176Y197704
X138294Y197901
X156404Y230184
X168215Y228216
X168215Y241995
X168215Y247901
X152467Y245932
X128845Y265617
X122939Y273491
X142624Y273491
X101286Y269554
X91837Y267783
X91640Y262468
X85931Y260106
X91837Y256562
X86325Y253216
X86325Y265814
X86128Y271326
X86719Y276641
X86719Y281759
X92624Y283728
X92231Y278806
X92034Y273294
X65853Y258728
X63097Y258728
X60931Y243176
X68806Y243176
X181207Y180972
X181994Y178216
X177270Y162861
X173136Y162861
X193412Y162074
X196561Y162271
X211325Y174672
X231010Y179397
X231010Y182350
X223727Y200066
X219593Y199869
X214278Y204594
X210538Y204987
X205420Y190420
X152270Y162074
X147152Y162271
X130420Y143176
X131010Y140027
X129632Y136483
X129632Y134121
X114869Y140420
X130223Y108531
X130223Y106562
X145183Y86877
X158569Y75460
X171561Y61483
X175695Y61680
X191640Y61287
X194790Y61483
X232191Y76050
X232191Y79003
X232585Y82153
X232191Y101838
X232191Y105184
X231798Y123885
X231798Y127035
X211325Y145342
X213687Y149279
X218609Y153609
X267349Y171562
X271050Y171562
X270971Y177192
X267349Y176759
X333963Y169161
X333963Y164436
X340302Y164476
X344199Y164436
X344199Y169161
X340183Y169121
X340459Y159594
X344199Y159712
X333963Y159712
X333963Y137665
X333963Y132940
X333963Y128216
X340026Y128255
X344199Y128216
X344199Y132940
X340065Y132861
X339869Y137665
X344199Y137665
X366207Y145224
X370774Y148767
X366168Y152546
X376128Y152468
X376325Y145106
X379002Y133728
X397349Y132940
X401325Y132901
X401522Y137665
X397349Y137665
X397349Y128216
X401522Y128098
X407585Y128216
X407585Y132940
X407585Y137665
X407191Y159712
X402073Y159712
X396955Y159712
X396955Y164436
X396955Y169161
X402073Y169161
X402073Y164436
X407191Y164436
X407191Y169161
X407585Y317586
X407585Y322310
X407585Y327035
X401365Y326995
X396955Y327035
X396955Y322310
X401325Y322153
X401365Y317625
X396955Y317586
X383215Y321995
X386010Y331838
X376089Y333728
X370774Y337665
X376089Y341011
X386522Y343609
X396955Y348688
X396955Y353413
X402073Y353413
X402073Y348688
X407585Y348688
X407585Y353413
X407585Y358137
X402073Y358137
X396955Y358137
X384002Y354082
X376640Y353373
X364947Y345578
X364672Y340519
X364672Y333728
X344593Y326641
X344593Y321917
X344593Y317192
X339475Y317192
X339475Y321917
X339475Y326641
X333963Y326641
X333963Y321917
X333963Y317192
X333963Y348688
X333963Y353413
X339475Y353413
X339475Y348688
X344593Y348688
X344593Y353413
X344593Y358137
X339475Y358137
X333963Y358137
X491443Y358137
X497703Y358098
X501680Y358137
X497743Y353491
X501680Y353413
X501680Y348688
X497624Y348688
X491443Y348688
X491443Y353413
X512270Y339712
X526561Y340775
X526561Y340775
X528254Y337743
X526483Y334161
X533097Y334121
X532979Y340814
X542467Y331838
X541955Y327783
X554829Y326641
X558806Y326602
X559160Y321877
X554829Y321917
X554829Y317192
X559317Y317271
X565065Y317192
X565065Y321917
X565065Y326641
X564672Y348688
X564672Y353413
X559554Y353413
X559554Y348688
X554435Y348688
X554435Y353413
X554435Y358137
X559554Y358137
X564672Y358137
X539947Y353373
X534120Y353649
X531010Y357940
X526680Y356169
X538687Y363649
X531207Y367586
X502073Y327035
X497585Y326917
X497585Y322389
X502073Y322310
X502073Y317586
X497743Y317468
X491837Y317586
X491837Y322310
X491837Y327035
X146955Y58137
X143018Y58137
T03
X289672Y68294
X293215Y71444
X296168Y68294
X296010Y74869
X289987Y74987
X332782Y119161
X345577Y119357
X376876Y120735
X398530Y119751
X395774Y145735
X398333Y150460
X408766Y146129
X429317Y150184
X431365Y154161
X465853Y142625
X469357Y145893
X490459Y151444
X500498Y145145
X503057Y151838
X500498Y177035
X553254Y176641
X566050Y176838
X588136Y152980
X581601Y150893
X566246Y146326
X556010Y151247
X553254Y145342
X555813Y120145
X535931Y121523
X531994Y108728
X512506Y108728
X503057Y120342
X490262Y119751
X474317Y72586
X471128Y69200
X467782Y72625
X467782Y65539
X474435Y65539
X343018Y145539
X345577Y151641
X332782Y150854
X313097Y142625
X309593Y145696
X298038Y171326
X291050Y171326
X343018Y176641
X395774Y177035
X408569Y177625
X435853Y236090
X445105Y238452
X449475Y243294
X453884Y247861
X462506Y248137
X462821Y242231
X463845Y236995
X453884Y238491
X445026Y247901
X436089Y248373
X372152Y253019
X372152Y255775
X363884Y242783
X351286Y255381
X340183Y250657
X340183Y247507
X331994Y267980
X345971Y279397
X345774Y309712
X332782Y309121
X311286Y330617
X311246Y335184
X332979Y340224
X343215Y334909
X345774Y341208
X310931Y363491
X343215Y367783
X395774Y366798
X408766Y366602
X430459Y343531
X430223Y338924
X408569Y335696
X398333Y340814
X395971Y334318
X364278Y317586
X398530Y309318
X468294Y330657
X468569Y335499
X490459Y340617
X500498Y334318
X503254Y340420
X500498Y365617
X553254Y366208
X566050Y366602
X556010Y341011
X553451Y334712
X566246Y336090
X588845Y339436
X588018Y343294
X555813Y309909
X522349Y311090
X503254Y310106
X490262Y309121
X518865Y274180
X270577Y276641
X264278Y281759
X266246Y287665
X241443Y317980
X186286Y356877
X183333Y360066
X186128Y363216
X180183Y363452
X180262Y356720
T04
X168806Y359318
X168018Y353216
X170183Y347704
X183372Y340027
X195577Y345342
X199908Y345342
X208766Y345342
X198530Y358334
X200892Y370342
X196561Y371720
X183372Y373688
X179042Y374476
X165459Y372310
X162900Y370145
X148530Y359121
X152467Y350657
X230813Y357743
X241050Y365617
X262703Y365617
X260931Y355184
X304120Y249357
X314514Y249476
X314554Y239043
X304239Y238728
X289475Y89830
X293609Y88846
X308963Y82350
X314869Y81759
X306404Y69357
X302073Y54987
X307979Y54397
X293215Y53609
X281010Y61287
X275892Y60499
X279239Y71326
X277073Y83137
X272939Y82940
X243412Y73294
X254829Y57350
X327664Y55184
X328254Y69948
X433176Y65814
X440459Y52428
X456404Y55184
X460735Y52428
X471168Y55775
X482388Y53216
X486916Y55381
X484750Y67192
X499711Y53413
X505813Y67389
X489475Y79987
X483766Y81365
X474514Y89043
X469593Y87861
X451483Y80578
X447743Y77822
X456798Y67192
X569790Y64436
X570183Y74476
X589475Y64830
T05
X516246Y63255
X250105Y66405
X247743Y80972
X235735Y352231
X224435Y366050
X255617Y382350
X141640Y364043
T06
X58176Y134239
X58176Y116917
T07
X71640Y48846
X81640Y48846
X91640Y48846
X101640Y48846
X111640Y48846
X121640Y48846
X151719Y48294
X161719Y48294
X171719Y48294
X181719Y48294
X79199Y283767
X69199Y283767
X59199Y283767
X49199Y283767
X49199Y293767
X59199Y293767
X69199Y293767
X79199Y293767
X130223Y368098
X130223Y378098
T08
X59554Y351641
X59554Y322113
T09
X46168Y41208
X46168Y379791
X605223Y379791
X605223Y41208
M30
