G75*
%IPPOS*%
%FSLAX44Y44*%
%MOIN*%
%ADD10C,0.00100*%
%ADD11C,0.00200*%
%ADD12C,0.00400*%
%ADD13C,0.00800*%
%ADD14C,0.01500*%
%ADD15C,0.02500*%
%ADD16C,0.04000*%
%ADD17C,0.40000*%
%ADD18C,0.20000*%
%ADD19C,0.09358*%
%ADD20C,0.12600*%
%ADD21C,0.08000*%
%ADD22C,0.25000*%
%ADD23C,0.03800*%
%ADD24C,0.13600*%
%ADD25C,0.04400*%
%ADD26C,0.19600*%
%ADD27C,0.10148*%
%ADD28C,0.08600*%
%ADD29C,0.09600*%
%ADD30C,0.07000*%
%ADD31C,0.09375*%
%ADD32C,0.09300*%
%ADD33C,1.40000*%
%ADD34C,1.60000*%
%ADD35C,0.11600*%
%ADD36C,0.07800*%
%ADD37C,0.01300*%
%ADD38C,0.06000*%
%LNBTM-COP*%
%LPD*%
G54D10*
X-495Y23D02*
Y-23D01*
X-5D01*
Y23D01*
X-495D01*
X-490Y18D02*
Y-18D01*
X-10D01*
Y18D01*
X-490D01*
G54D11*
X-480Y8D02*
Y-8D01*
X-20D01*
Y8D01*
X-480D01*
X-20Y0D02*
X-480D01*
G54D10*
X-495Y23D02*
Y-23D01*
X-5D01*
Y23D01*
X-495D01*
X23Y-5D02*
X-23D01*
Y-495D01*
X23D01*
Y-5D01*
X18Y-10D02*
X-18D01*
Y-490D01*
X18D01*
Y-10D01*
G54D11*
X8Y-20D02*
X-8D01*
Y-480D01*
X8D01*
Y-20D01*
X0Y-20D02*
Y-480D01*
G54D10*
X23Y-5D02*
X-23D01*
Y-495D01*
X23D01*
Y-5D01*
X-480Y13D02*
X-513Y-20D01*
X-20Y-513D01*
X13Y-480D01*
X-480Y13D01*
Y6D02*
X-506Y-20D01*
X-20Y-506D01*
X6Y-480D01*
X-480Y6D01*
G54D11*
Y-8D02*
X-492Y-20D01*
X-20Y-492D01*
X-8Y-480D01*
X-480Y-8D01*
X-239Y-250D02*
X-262D01*
X-258Y-231D02*
X-281D01*
X-277Y-212D02*
X-300D01*
X-296Y-193D02*
X-319D01*
X-315Y-174D02*
X-338D01*
X-334Y-155D02*
X-357D01*
X-353Y-136D02*
X-376D01*
X-372Y-117D02*
X-395D01*
X-391Y-98D02*
X-414D01*
X-410Y-79D02*
X-433D01*
X-429Y-60D02*
X-452D01*
X-448Y-41D02*
X-471D01*
X-467Y-22D02*
X-490D01*
X-243Y-269D02*
X-220D01*
X-224Y-288D02*
X-201D01*
X-205Y-307D02*
X-182D01*
X-186Y-326D02*
X-163D01*
X-167Y-345D02*
X-144D01*
X-148Y-364D02*
X-125D01*
X-129Y-383D02*
X-106D01*
X-110Y-402D02*
X-87D01*
X-91Y-421D02*
X-68D01*
X-72Y-440D02*
X-49D01*
X-53Y-459D02*
X-30D01*
X-34Y-478D02*
X-11D01*
G54D10*
X-480Y13D02*
X-513Y-20D01*
X-20Y-513D01*
X13Y-480D01*
X-480Y13D01*
X18095Y-23D02*
Y23D01*
X17605D01*
Y-23D01*
X18095D01*
X18090Y-18D02*
Y18D01*
X17610D01*
Y-18D01*
X18090D01*
G54D11*
X18080Y-8D02*
Y8D01*
X17620D01*
Y-8D01*
X18080D01*
X18080Y0D02*
X17620D01*
G54D10*
X18095Y-23D02*
Y23D01*
X17605D01*
Y-23D01*
X18095D01*
X17623Y-5D02*
X17577D01*
Y-495D01*
X17623D01*
Y-5D01*
X17618Y-10D02*
X17582D01*
Y-490D01*
X17618D01*
Y-10D01*
G54D11*
X17608Y-20D02*
X17592D01*
Y-480D01*
X17608D01*
Y-20D01*
X17600Y-20D02*
Y-480D01*
G54D10*
X17623Y-5D02*
X17577D01*
Y-495D01*
X17623D01*
Y-5D01*
X18095Y9577D02*
Y9623D01*
X17605D01*
Y9577D01*
X18095D01*
X18090Y9582D02*
Y9618D01*
X17610D01*
Y9582D01*
X18090D01*
G54D11*
X18080Y9592D02*
Y9608D01*
X17620D01*
Y9592D01*
X18080D01*
X18080Y9600D02*
X17620D01*
G54D10*
X18095Y9577D02*
Y9623D01*
X17605D01*
Y9577D01*
X18095D01*
X17577Y9605D02*
X17623D01*
Y10095D01*
X17577D01*
Y9605D01*
X17582Y9610D02*
X17618D01*
Y10090D01*
X17582D01*
Y9610D01*
G54D11*
X17592Y9620D02*
X17608D01*
Y10080D01*
X17592D01*
Y9620D01*
X17600Y10080D02*
Y9620D01*
G54D10*
X17577Y9605D02*
X17623D01*
Y10095D01*
X17577D01*
Y9605D01*
X-495Y9623D02*
Y9577D01*
X-5D01*
Y9623D01*
X-495D01*
X-490Y9618D02*
Y9582D01*
X-10D01*
Y9618D01*
X-490D01*
G54D11*
X-480Y9608D02*
Y9592D01*
X-20D01*
Y9608D01*
X-480D01*
X-20Y9600D02*
X-480D01*
G54D10*
X-495Y9623D02*
Y9577D01*
X-5D01*
Y9623D01*
X-495D01*
X-23Y9605D02*
X23D01*
Y10095D01*
X-23D01*
Y9605D01*
X-18Y9610D02*
X18D01*
Y10090D01*
X-18D01*
Y9610D01*
G54D11*
X-8Y9620D02*
X8D01*
Y10080D01*
X-8D01*
Y9620D01*
X0Y10080D02*
Y9620D01*
G54D10*
X-23Y9605D02*
X23D01*
Y10095D01*
X-23D01*
Y9605D01*
G54D38*
X18050Y10050D03*
X-450D03*
X18050Y-450D03*
G54D12*
X0Y-4550D02*
Y-4200D01*
X175D01*
X250Y-4217D01*
X300Y-4250D01*
X325Y-4283D01*
X350Y-4333D01*
Y-4417D01*
X325Y-4467D01*
X300Y-4500D01*
X250Y-4533D01*
X175Y-4550D01*
X0D01*
X525D02*
Y-4200D01*
X750D01*
X825Y-4217D01*
X850Y-4233D01*
X875Y-4267D01*
Y-4300D01*
X850Y-4333D01*
X825Y-4350D01*
X750Y-4367D01*
X525D01*
X700D02*
X875Y-4550D01*
X1050D02*
X1250Y-4200D01*
X1450Y-4550D01*
X1125Y-4433D02*
X1375D01*
X1600Y-4200D02*
X1725Y-4550D01*
X1850Y-4200D01*
X1975Y-4550D01*
X2100Y-4200D01*
X2200Y-4550D02*
Y-4200D01*
X2550Y-4550D01*
Y-4200D01*
X3225Y-4550D02*
Y-4200D01*
X3450D01*
X3525Y-4217D01*
X3550Y-4233D01*
X3575Y-4267D01*
Y-4300D01*
X3550Y-4333D01*
X3525Y-4350D01*
X3450Y-4367D01*
X3225D02*
X3450D01*
X3525Y-4383D01*
X3550Y-4400D01*
X3575Y-4433D01*
Y-4483D01*
X3550Y-4517D01*
X3525Y-4533D01*
X3450Y-4550D01*
X3225D01*
X3750Y-4200D02*
X3950Y-4367D01*
X4150Y-4200D01*
X3950Y-4367D02*
Y-4550D01*
X4275Y-4317D02*
X4250Y-4333D01*
X4275Y-4350D01*
X4300Y-4333D01*
X4275Y-4317D01*
Y-4517D02*
X4250Y-4533D01*
X4275Y-4550D01*
X4300Y-4533D01*
X4275Y-4517D01*
X5100Y-4550D02*
Y-4200D01*
X5275D01*
X5350Y-4217D01*
X5400Y-4250D01*
X5425Y-4283D01*
X5450Y-4333D01*
Y-4417D01*
X5425Y-4467D01*
X5400Y-4500D01*
X5350Y-4533D01*
X5275Y-4550D01*
X5100D01*
X5625D02*
Y-4200D01*
X5800D01*
X5875Y-4217D01*
X5925Y-4250D01*
X5950Y-4283D01*
X5975Y-4333D01*
Y-4417D01*
X5950Y-4467D01*
X5925Y-4500D01*
X5875Y-4533D01*
X5800Y-4550D01*
X5625D01*
X6150D02*
Y-4200D01*
X6375D01*
X6450Y-4217D01*
X6475Y-4233D01*
X6500Y-4267D01*
Y-4300D01*
X6475Y-4333D01*
X6450Y-4350D01*
X6375Y-4367D01*
X6150D01*
X6325D02*
X6500Y-4550D01*
X6725Y-4533D02*
X6700Y-4550D01*
X6675Y-4533D01*
X6700Y-4517D01*
X6725Y-4533D01*
Y-4567D01*
X6700Y-4600D01*
X6675Y-4617D01*
X7400Y-4550D02*
Y-4200D01*
X7575D01*
X7650Y-4217D01*
X7700Y-4250D01*
X7725Y-4283D01*
X7750Y-4333D01*
Y-4417D01*
X7725Y-4467D01*
X7700Y-4500D01*
X7650Y-4533D01*
X7575Y-4550D01*
X7400D01*
X7925D02*
X8125Y-4200D01*
X8325Y-4550D01*
X8000Y-4433D02*
X8250D01*
X8650Y-4200D02*
Y-4550D01*
X8475Y-4200D02*
X8825D01*
X8925Y-4550D02*
Y-4200D01*
X9250D01*
X8925Y-4367D02*
X9125D01*
X8925Y-4550D02*
X9250D01*
X9425Y-4317D02*
X9400Y-4333D01*
X9425Y-4350D01*
X9450Y-4333D01*
X9425Y-4317D01*
Y-4517D02*
X9400Y-4533D01*
X9425Y-4550D01*
X9450Y-4533D01*
X9425Y-4517D01*
X10250Y-4267D02*
X10300Y-4250D01*
X10375Y-4200D01*
Y-4550D01*
X10700Y-4200D02*
X10975D01*
X10825Y-4333D01*
X10900D01*
X10950Y-4350D01*
X10975Y-4367D01*
X11000Y-4417D01*
Y-4450D01*
X10975Y-4500D01*
X10925Y-4533D01*
X10850Y-4550D01*
X10775D01*
X10700Y-4533D01*
X10675Y-4517D01*
X10650Y-4483D01*
X11600Y-4133D02*
X11150Y-4667D01*
X11700Y-4550D02*
X11900Y-4200D01*
X12100Y-4550D01*
X11775Y-4433D02*
X12025D01*
X12250Y-4550D02*
Y-4200D01*
X12475D01*
X12550Y-4217D01*
X12575Y-4233D01*
X12600Y-4267D01*
Y-4317D01*
X12575Y-4350D01*
X12550Y-4367D01*
X12475Y-4383D01*
X12250D01*
X12775Y-4550D02*
Y-4200D01*
X13000D01*
X13075Y-4217D01*
X13100Y-4233D01*
X13125Y-4267D01*
Y-4300D01*
X13100Y-4333D01*
X13075Y-4350D01*
X13000Y-4367D01*
X12775D01*
X12950D02*
X13125Y-4550D01*
X13750Y-4133D02*
X13300Y-4667D01*
X13875Y-4283D02*
Y-4267D01*
X13900Y-4233D01*
X13925Y-4217D01*
X13975Y-4200D01*
X14075D01*
X14125Y-4217D01*
X14150Y-4233D01*
X14175Y-4267D01*
Y-4300D01*
X14150Y-4333D01*
X14100Y-4383D01*
X13850Y-4550D01*
X14200D01*
X14350Y-4267D02*
X14400Y-4250D01*
X14475Y-4200D01*
Y-4550D01*
X0Y-3850D02*
Y-3500D01*
X225D01*
X300Y-3517D01*
X325Y-3533D01*
X350Y-3567D01*
Y-3617D01*
X325Y-3650D01*
X300Y-3667D01*
X225Y-3683D01*
X0D01*
X900Y-3583D02*
X875Y-3550D01*
X825Y-3517D01*
X775Y-3500D01*
X675D01*
X625Y-3517D01*
X575Y-3550D01*
X550Y-3583D01*
X525Y-3633D01*
Y-3717D01*
X550Y-3767D01*
X575Y-3800D01*
X625Y-3833D01*
X675Y-3850D01*
X775D01*
X825Y-3833D01*
X875Y-3800D01*
X900Y-3767D01*
X1050Y-3850D02*
Y-3500D01*
X1275D01*
X1350Y-3517D01*
X1375Y-3533D01*
X1400Y-3567D01*
Y-3600D01*
X1375Y-3633D01*
X1350Y-3650D01*
X1275Y-3667D01*
X1050D02*
X1275D01*
X1350Y-3683D01*
X1375Y-3700D01*
X1400Y-3733D01*
Y-3783D01*
X1375Y-3817D01*
X1350Y-3833D01*
X1275Y-3850D01*
X1050D01*
X2050D02*
Y-3500D01*
X2275D01*
X2350Y-3517D01*
X2375Y-3533D01*
X2400Y-3567D01*
Y-3617D01*
X2375Y-3650D01*
X2350Y-3667D01*
X2275Y-3683D01*
X2050D01*
X3025Y-3433D02*
X2575Y-3967D01*
X3125Y-3850D02*
Y-3500D01*
X3475Y-3850D01*
Y-3500D01*
X3700Y-3617D02*
X3675Y-3633D01*
X3700Y-3650D01*
X3725Y-3633D01*
X3700Y-3617D01*
Y-3817D02*
X3675Y-3833D01*
X3700Y-3850D01*
X3725Y-3833D01*
X3700Y-3817D01*
X4525Y-3850D02*
Y-3500D01*
X4750D01*
X4825Y-3517D01*
X4850Y-3533D01*
X4875Y-3567D01*
Y-3600D01*
X4850Y-3633D01*
X4825Y-3650D01*
X4750Y-3667D01*
X4525D02*
X4750D01*
X4825Y-3683D01*
X4850Y-3700D01*
X4875Y-3733D01*
Y-3783D01*
X4850Y-3817D01*
X4825Y-3833D01*
X4750Y-3850D01*
X4525D01*
X5050Y-3567D02*
X5100Y-3550D01*
X5175Y-3500D01*
Y-3850D01*
X5700Y-3500D02*
X5450Y-3733D01*
X5825D01*
X5700Y-3500D02*
Y-3850D01*
X5950Y-3700D02*
X6400D01*
X6750Y-3500D02*
X6675Y-3517D01*
X6625Y-3567D01*
X6600Y-3650D01*
Y-3700D01*
X6625Y-3783D01*
X6675Y-3833D01*
X6750Y-3850D01*
X6800D01*
X6875Y-3833D01*
X6925Y-3783D01*
X6950Y-3700D01*
Y-3650D01*
X6925Y-3567D01*
X6875Y-3517D01*
X6800Y-3500D01*
X6750D01*
X7150D02*
X7425D01*
X7275Y-3633D01*
X7350D01*
X7400Y-3650D01*
X7425Y-3667D01*
X7450Y-3717D01*
Y-3750D01*
X7425Y-3800D01*
X7375Y-3833D01*
X7300Y-3850D01*
X7225D01*
X7150Y-3833D01*
X7125Y-3817D01*
X7100Y-3783D01*
X7650Y-3500D02*
X7925D01*
X7775Y-3633D01*
X7850D01*
X7900Y-3650D01*
X7925Y-3667D01*
X7950Y-3717D01*
Y-3750D01*
X7925Y-3800D01*
X7875Y-3833D01*
X7800Y-3850D01*
X7725D01*
X7650Y-3833D01*
X7625Y-3817D01*
X7600Y-3783D01*
X8125Y-3583D02*
Y-3567D01*
X8150Y-3533D01*
X8175Y-3517D01*
X8225Y-3500D01*
X8325D01*
X8375Y-3517D01*
X8400Y-3533D01*
X8425Y-3567D01*
Y-3600D01*
X8400Y-3633D01*
X8350Y-3683D01*
X8100Y-3850D01*
X8450D01*
X8650Y-3833D02*
X8625Y-3850D01*
X8600Y-3833D01*
X8625Y-3817D01*
X8650Y-3833D01*
Y-3867D01*
X8625Y-3900D01*
X8600Y-3917D01*
X9325Y-3850D02*
X9525Y-3500D01*
X9725Y-3850D01*
X9400Y-3733D02*
X9650D01*
X9875Y-3850D02*
Y-3500D01*
X10100D01*
X10175Y-3517D01*
X10200Y-3533D01*
X10225Y-3567D01*
Y-3600D01*
X10200Y-3633D01*
X10175Y-3650D01*
X10100Y-3667D01*
X9875D01*
X10050D02*
X10225Y-3850D01*
X10575Y-3500D02*
Y-3850D01*
X10400Y-3500D02*
X10750D01*
X10850D02*
X10975Y-3850D01*
X11100Y-3500D01*
X11225Y-3850D01*
X11350Y-3500D01*
X11600D02*
X11550Y-3517D01*
X11500Y-3550D01*
X11475Y-3583D01*
X11450Y-3633D01*
Y-3717D01*
X11475Y-3767D01*
X11500Y-3800D01*
X11550Y-3833D01*
X11600Y-3850D01*
X11700D01*
X11750Y-3833D01*
X11800Y-3800D01*
X11825Y-3767D01*
X11850Y-3717D01*
Y-3633D01*
X11825Y-3583D01*
X11800Y-3550D01*
X11750Y-3517D01*
X11700Y-3500D01*
X11600D01*
X12000Y-3850D02*
Y-3500D01*
X12225D01*
X12300Y-3517D01*
X12325Y-3533D01*
X12350Y-3567D01*
Y-3600D01*
X12325Y-3633D01*
X12300Y-3650D01*
X12225Y-3667D01*
X12000D01*
X12175D02*
X12350Y-3850D01*
X12525D02*
Y-3500D01*
X12875D02*
X12525Y-3733D01*
X12650Y-3650D02*
X12875Y-3850D01*
X13525D02*
Y-3500D01*
X13750D01*
X13825Y-3517D01*
X13850Y-3533D01*
X13875Y-3567D01*
Y-3600D01*
X13850Y-3633D01*
X13825Y-3650D01*
X13750Y-3667D01*
X13525D01*
X13700D02*
X13875Y-3850D01*
X14050D02*
Y-3500D01*
X14375D01*
X14050Y-3667D02*
X14250D01*
X14050Y-3850D02*
X14375D01*
X14525Y-3500D02*
X14725Y-3850D01*
X14925Y-3500D01*
X15050Y-3817D02*
X15025Y-3833D01*
X15050Y-3850D01*
X15075Y-3833D01*
X15750Y-3850D02*
X15950Y-3500D01*
X16150Y-3850D01*
X15825Y-3733D02*
X16075D01*
X0Y-3150D02*
Y-2800D01*
X325D01*
X0Y-2967D02*
X200D01*
X450Y-3150D02*
Y-2800D01*
X650D02*
Y-3150D01*
X950D01*
X1075D02*
Y-2800D01*
X1400D01*
X1075Y-2967D02*
X1275D01*
X1075Y-3150D02*
X1400D01*
X2025D02*
Y-2800D01*
X2375Y-3150D01*
Y-2800D01*
X2575Y-3150D02*
X2775Y-2800D01*
X2975Y-3150D01*
X2650Y-3033D02*
X2900D01*
X3125Y-3150D02*
Y-2800D01*
X3325Y-3150D01*
X3525Y-2800D01*
Y-3150D01*
X3725D02*
Y-2800D01*
X4050D01*
X3725Y-2967D02*
X3925D01*
X3725Y-3150D02*
X4050D01*
X4225Y-2917D02*
X4200Y-2933D01*
X4225Y-2950D01*
X4250Y-2933D01*
X4225Y-2917D01*
Y-3117D02*
X4200Y-3133D01*
X4225Y-3150D01*
X4250Y-3133D01*
X4225Y-3117D01*
X5050Y-3150D02*
Y-2800D01*
X5275D01*
X5350Y-2817D01*
X5375Y-2833D01*
X5400Y-2867D01*
Y-2900D01*
X5375Y-2933D01*
X5350Y-2950D01*
X5275Y-2967D01*
X5050D02*
X5275D01*
X5350Y-2983D01*
X5375Y-3000D01*
X5400Y-3033D01*
Y-3083D01*
X5375Y-3117D01*
X5350Y-3133D01*
X5275Y-3150D01*
X5050D01*
X5750Y-2800D02*
Y-3150D01*
X5575Y-2800D02*
X5925D01*
X6025Y-3150D02*
Y-2800D01*
X6225Y-3150D01*
X6425Y-2800D01*
Y-3150D01*
X6625Y-3000D02*
X7075D01*
X7650Y-2883D02*
X7625Y-2850D01*
X7575Y-2817D01*
X7525Y-2800D01*
X7425D01*
X7375Y-2817D01*
X7325Y-2850D01*
X7300Y-2883D01*
X7275Y-2933D01*
Y-3017D01*
X7300Y-3067D01*
X7325Y-3100D01*
X7375Y-3133D01*
X7425Y-3150D01*
X7525D01*
X7575Y-3133D01*
X7625Y-3100D01*
X7650Y-3067D01*
X7950Y-2800D02*
X7900Y-2817D01*
X7850Y-2850D01*
X7825Y-2883D01*
X7800Y-2933D01*
Y-3017D01*
X7825Y-3067D01*
X7850Y-3100D01*
X7900Y-3133D01*
X7950Y-3150D01*
X8050D01*
X8100Y-3133D01*
X8150Y-3100D01*
X8175Y-3067D01*
X8200Y-3017D01*
Y-2933D01*
X8175Y-2883D01*
X8150Y-2850D01*
X8100Y-2817D01*
X8050Y-2800D01*
X7950D01*
X8350Y-3150D02*
Y-2800D01*
X8575D01*
X8650Y-2817D01*
X8675Y-2833D01*
X8700Y-2867D01*
Y-2917D01*
X8675Y-2950D01*
X8650Y-2967D01*
X8575Y-2983D01*
X8350D01*
X8900Y-3117D02*
X8875Y-3133D01*
X8900Y-3150D01*
X8925Y-3133D01*
X9500Y-2883D02*
X9475Y-2850D01*
X9425Y-2817D01*
X9375Y-2800D01*
X9275D01*
X9225Y-2817D01*
X9175Y-2850D01*
X9150Y-2883D01*
X9125Y-2933D01*
Y-3017D01*
X9150Y-3067D01*
X9175Y-3100D01*
X9225Y-3133D01*
X9275Y-3150D01*
X9375D01*
X9425Y-3133D01*
X9475Y-3100D01*
X9500Y-3067D01*
Y-3017D01*
X9375D01*
X9650Y-3150D02*
Y-2800D01*
X9875D01*
X9950Y-2817D01*
X9975Y-2833D01*
X10000Y-2867D01*
Y-2900D01*
X9975Y-2933D01*
X9950Y-2950D01*
X9875Y-2967D01*
X9650D02*
X9875D01*
X9950Y-2983D01*
X9975Y-3000D01*
X10000Y-3033D01*
Y-3083D01*
X9975Y-3117D01*
X9950Y-3133D01*
X9875Y-3150D01*
X9650D01*
X10175D02*
Y-2800D01*
X10400D01*
X10475Y-2817D01*
X10500Y-2833D01*
X10525Y-2867D01*
Y-2900D01*
X10500Y-2933D01*
X10475Y-2950D01*
X10400Y-2967D01*
X10175D01*
X10350D02*
X10525Y-3150D01*
X0Y-2450D02*
Y-2100D01*
X225D01*
X300Y-2117D01*
X325Y-2133D01*
X350Y-2167D01*
Y-2200D01*
X325Y-2233D01*
X300Y-2250D01*
X225Y-2267D01*
X0D02*
X225D01*
X300Y-2283D01*
X325Y-2300D01*
X350Y-2333D01*
Y-2383D01*
X325Y-2417D01*
X300Y-2433D01*
X225Y-2450D01*
X0D01*
X525Y-2100D02*
Y-2450D01*
X825D01*
X950D02*
X1150Y-2100D01*
X1350Y-2450D01*
X1025Y-2333D02*
X1275D01*
X1875Y-2183D02*
X1850Y-2150D01*
X1800Y-2117D01*
X1750Y-2100D01*
X1650D01*
X1600Y-2117D01*
X1550Y-2150D01*
X1525Y-2183D01*
X1500Y-2233D01*
Y-2317D01*
X1525Y-2367D01*
X1550Y-2400D01*
X1600Y-2433D01*
X1650Y-2450D01*
X1750D01*
X1800Y-2433D01*
X1850Y-2400D01*
X1875Y-2367D01*
X2025Y-2450D02*
Y-2100D01*
X2375D02*
X2025Y-2333D01*
X2150Y-2250D02*
X2375Y-2450D01*
X3025D02*
X3225Y-2100D01*
X3425Y-2450D01*
X3100Y-2333D02*
X3350D01*
X3575Y-2450D02*
Y-2100D01*
X3800D01*
X3875Y-2117D01*
X3900Y-2133D01*
X3925Y-2167D01*
Y-2200D01*
X3900Y-2233D01*
X3875Y-2250D01*
X3800Y-2267D01*
X3575D01*
X3750D02*
X3925Y-2450D01*
X4100D02*
Y-2100D01*
X4425D01*
X4100Y-2267D02*
X4300D01*
X4100Y-2450D02*
X4425D01*
X4575D02*
X4775Y-2100D01*
X4975Y-2450D01*
X4650Y-2333D02*
X4900D01*
X5600Y-2450D02*
Y-2100D01*
X6150Y-2150D02*
X6100Y-2117D01*
X6025Y-2100D01*
X5925D01*
X5850Y-2117D01*
X5800Y-2150D01*
Y-2183D01*
X5825Y-2217D01*
X5850Y-2233D01*
X5900Y-2250D01*
X6050Y-2283D01*
X6100Y-2300D01*
X6125Y-2317D01*
X6150Y-2350D01*
Y-2400D01*
X6100Y-2433D01*
X6025Y-2450D01*
X5925D01*
X5850Y-2433D01*
X5800Y-2400D01*
X7150Y-2183D02*
X7125Y-2150D01*
X7075Y-2117D01*
X7025Y-2100D01*
X6925D01*
X6875Y-2117D01*
X6825Y-2150D01*
X6800Y-2183D01*
X6775Y-2233D01*
Y-2317D01*
X6800Y-2367D01*
X6825Y-2400D01*
X6875Y-2433D01*
X6925Y-2450D01*
X7025D01*
X7075Y-2433D01*
X7125Y-2400D01*
X7150Y-2367D01*
X7450Y-2100D02*
X7400Y-2117D01*
X7350Y-2150D01*
X7325Y-2183D01*
X7300Y-2233D01*
Y-2317D01*
X7325Y-2367D01*
X7350Y-2400D01*
X7400Y-2433D01*
X7450Y-2450D01*
X7550D01*
X7600Y-2433D01*
X7650Y-2400D01*
X7675Y-2367D01*
X7700Y-2317D01*
Y-2233D01*
X7675Y-2183D01*
X7650Y-2150D01*
X7600Y-2117D01*
X7550Y-2100D01*
X7450D01*
X7850Y-2450D02*
Y-2100D01*
X8075D01*
X8150Y-2117D01*
X8175Y-2133D01*
X8200Y-2167D01*
Y-2217D01*
X8175Y-2250D01*
X8150Y-2267D01*
X8075Y-2283D01*
X7850D01*
X8375Y-2450D02*
Y-2100D01*
X8600D01*
X8675Y-2117D01*
X8700Y-2133D01*
X8725Y-2167D01*
Y-2217D01*
X8700Y-2250D01*
X8675Y-2267D01*
X8600Y-2283D01*
X8375D01*
X8900Y-2450D02*
Y-2100D01*
X9225D01*
X8900Y-2267D02*
X9100D01*
X8900Y-2450D02*
X9225D01*
X9375D02*
Y-2100D01*
X9600D01*
X9675Y-2117D01*
X9700Y-2133D01*
X9725Y-2167D01*
Y-2200D01*
X9700Y-2233D01*
X9675Y-2250D01*
X9600Y-2267D01*
X9375D01*
X9550D02*
X9725Y-2450D01*
X0Y-1750D02*
Y-1400D01*
X225D01*
X300Y-1417D01*
X325Y-1433D01*
X350Y-1467D01*
Y-1500D01*
X325Y-1533D01*
X300Y-1550D01*
X225Y-1567D01*
X0D02*
X225D01*
X300Y-1583D01*
X325Y-1600D01*
X350Y-1633D01*
Y-1683D01*
X325Y-1717D01*
X300Y-1733D01*
X225Y-1750D01*
X0D01*
X675Y-1400D02*
X625Y-1417D01*
X575Y-1450D01*
X550Y-1483D01*
X525Y-1533D01*
Y-1617D01*
X550Y-1667D01*
X575Y-1700D01*
X625Y-1733D01*
X675Y-1750D01*
X775D01*
X825Y-1733D01*
X875Y-1700D01*
X900Y-1667D01*
X925Y-1617D01*
Y-1533D01*
X900Y-1483D01*
X875Y-1450D01*
X825Y-1417D01*
X775Y-1400D01*
X675D01*
X1250D02*
Y-1750D01*
X1075Y-1400D02*
X1425D01*
X1700D02*
Y-1750D01*
X1525Y-1400D02*
X1875D01*
X2125D02*
X2075Y-1417D01*
X2025Y-1450D01*
X2000Y-1483D01*
X1975Y-1533D01*
Y-1617D01*
X2000Y-1667D01*
X2025Y-1700D01*
X2075Y-1733D01*
X2125Y-1750D01*
X2225D01*
X2275Y-1733D01*
X2325Y-1700D01*
X2350Y-1667D01*
X2375Y-1617D01*
Y-1533D01*
X2350Y-1483D01*
X2325Y-1450D01*
X2275Y-1417D01*
X2225Y-1400D01*
X2125D01*
X2525Y-1750D02*
Y-1400D01*
X2725Y-1750D01*
X2925Y-1400D01*
Y-1750D01*
X3975Y-1483D02*
X3950Y-1450D01*
X3900Y-1417D01*
X3850Y-1400D01*
X3750D01*
X3700Y-1417D01*
X3650Y-1450D01*
X3625Y-1483D01*
X3600Y-1533D01*
Y-1617D01*
X3625Y-1667D01*
X3650Y-1700D01*
X3700Y-1733D01*
X3750Y-1750D01*
X3850D01*
X3900Y-1733D01*
X3950Y-1700D01*
X3975Y-1667D01*
X4275Y-1400D02*
X4225Y-1417D01*
X4175Y-1450D01*
X4150Y-1483D01*
X4125Y-1533D01*
Y-1617D01*
X4150Y-1667D01*
X4175Y-1700D01*
X4225Y-1733D01*
X4275Y-1750D01*
X4375D01*
X4425Y-1733D01*
X4475Y-1700D01*
X4500Y-1667D01*
X4525Y-1617D01*
Y-1533D01*
X4500Y-1483D01*
X4475Y-1450D01*
X4425Y-1417D01*
X4375Y-1400D01*
X4275D01*
X4675Y-1750D02*
Y-1400D01*
X4900D01*
X4975Y-1417D01*
X5000Y-1433D01*
X5025Y-1467D01*
Y-1517D01*
X5000Y-1550D01*
X4975Y-1567D01*
X4900Y-1583D01*
X4675D01*
X5200Y-1750D02*
Y-1400D01*
X5425D01*
X5500Y-1417D01*
X5525Y-1433D01*
X5550Y-1467D01*
Y-1517D01*
X5525Y-1550D01*
X5500Y-1567D01*
X5425Y-1583D01*
X5200D01*
X5725Y-1750D02*
Y-1400D01*
X6050D01*
X5725Y-1567D02*
X5925D01*
X5725Y-1750D02*
X6050D01*
X6200D02*
Y-1400D01*
X6425D01*
X6500Y-1417D01*
X6525Y-1433D01*
X6550Y-1467D01*
Y-1500D01*
X6525Y-1533D01*
X6500Y-1550D01*
X6425Y-1567D01*
X6200D01*
X6375D02*
X6550Y-1750D01*
G54D10*
X17595Y6305D02*
Y9595D01*
X7605D01*
Y8130D01*
X7603Y8103D01*
X7598Y8077D01*
X7589Y8051D01*
X7577Y8027D01*
X7562Y8005D01*
X7545Y7985D01*
X7525Y7967D01*
X7502Y7952D01*
X7478Y7940D01*
X7453Y7932D01*
X7426Y7927D01*
X7400Y7925D01*
X5D01*
Y1675D01*
X7400D01*
X7427Y1673D01*
X7453Y1668D01*
X7479Y1659D01*
X7503Y1647D01*
X7525Y1632D01*
X7545Y1615D01*
X7563Y1595D01*
X7578Y1572D01*
X7590Y1548D01*
X7598Y1523D01*
X7603Y1496D01*
X7605Y1470D01*
Y5D01*
X17595D01*
Y3295D01*
X17185D01*
X17178Y3212D01*
X17159Y3127D01*
X17127Y3046D01*
X17083Y2970D01*
X17029Y2902D01*
X16964Y2842D01*
X16892Y2793D01*
X16813Y2755D01*
X16730Y2730D01*
X16643Y2717D01*
X16556D01*
X16469Y2730D01*
X16386Y2756D01*
X16307Y2794D01*
X16235Y2843D01*
X16171Y2902D01*
X16116Y2971D01*
X16073Y3046D01*
X16041Y3128D01*
X16022Y3213D01*
X16015Y3295D01*
X9185D01*
X9178Y3211D01*
X9158Y3125D01*
X9125Y3042D01*
X9080Y2966D01*
X9024Y2897D01*
X8958Y2837D01*
X8884Y2788D01*
X8803Y2751D01*
X8717Y2727D01*
X8629Y2716D01*
X8540Y2718D01*
X8453Y2734D01*
X8369Y2763D01*
X8290Y2804D01*
X8219Y2856D01*
X8156Y2919D01*
X8103Y2991D01*
X8062Y3070D01*
X8034Y3154D01*
X8018Y3241D01*
X8016Y3330D01*
X8027Y3418D01*
X8052Y3503D01*
X8089Y3584D01*
X8138Y3658D01*
X8197Y3724D01*
X8266Y3780D01*
X8343Y3825D01*
X8425Y3858D01*
X8512Y3878D01*
X8595Y3885D01*
Y5715D01*
X8511Y5722D01*
X8425Y5742D01*
X8342Y5775D01*
X8266Y5820D01*
X8197Y5876D01*
X8137Y5942D01*
X8088Y6016D01*
X8051Y6097D01*
X8027Y6183D01*
X8016Y6271D01*
X8018Y6360D01*
X8034Y6447D01*
X8063Y6531D01*
X8104Y6610D01*
X8156Y6681D01*
X8219Y6744D01*
X8291Y6797D01*
X8370Y6838D01*
X8454Y6866D01*
X8541Y6882D01*
X8630Y6884D01*
X8718Y6873D01*
X8803Y6848D01*
X8884Y6811D01*
X8958Y6762D01*
X9024Y6703D01*
X9080Y6634D01*
X9125Y6557D01*
X9158Y6475D01*
X9178Y6388D01*
X9185Y6305D01*
X16015D01*
X16021Y6384D01*
X16039Y6465D01*
X16068Y6543D01*
X16108Y6617D01*
X16158Y6683D01*
X16217Y6742D01*
X16284Y6792D01*
X16357Y6832D01*
X16436Y6861D01*
X16517Y6879D01*
X16600Y6885D01*
X16684Y6879D01*
X16765Y6861D01*
X16843Y6832D01*
X16917Y6792D01*
X16983Y6742D01*
X17042Y6683D01*
X17092Y6616D01*
X17132Y6543D01*
X17161Y6464D01*
X17179Y6383D01*
X17185Y6305D01*
X17595D01*
X17590Y6310D02*
Y9590D01*
X7610D01*
Y8129D01*
X7608Y8102D01*
X7603Y8075D01*
X7594Y8049D01*
X7582Y8024D01*
X7566Y8002D01*
X7548Y7981D01*
X7527Y7963D01*
X7504Y7948D01*
X7480Y7936D01*
X7454Y7927D01*
X7427Y7922D01*
X7400Y7920D01*
X10D01*
Y1680D01*
X7401D01*
X7428Y1678D01*
X7455Y1673D01*
X7481Y1664D01*
X7506Y1652D01*
X7528Y1636D01*
X7549Y1618D01*
X7567Y1597D01*
X7582Y1574D01*
X7594Y1550D01*
X7603Y1524D01*
X7608Y1497D01*
X7610Y1470D01*
Y10D01*
X17590D01*
Y3290D01*
X17189D01*
X17183Y3211D01*
X17164Y3125D01*
X17131Y3043D01*
X17087Y2967D01*
X17032Y2898D01*
X16967Y2838D01*
X16894Y2789D01*
X16815Y2751D01*
X16731Y2725D01*
X16643Y2712D01*
X16555D01*
X16468Y2725D01*
X16384Y2751D01*
X16304Y2789D01*
X16232Y2839D01*
X16167Y2899D01*
X16112Y2968D01*
X16068Y3045D01*
X16036Y3127D01*
X16017Y3213D01*
X16011Y3290D01*
X9189D01*
X9183Y3210D01*
X9163Y3123D01*
X9129Y3040D01*
X9084Y2962D01*
X9027Y2893D01*
X8961Y2833D01*
X8886Y2784D01*
X8804Y2746D01*
X8718Y2722D01*
X8629Y2711D01*
X8540Y2713D01*
X8451Y2729D01*
X8367Y2758D01*
X8287Y2800D01*
X8215Y2853D01*
X8152Y2916D01*
X8099Y2989D01*
X8058Y3068D01*
X8029Y3153D01*
X8013Y3241D01*
X8011Y3331D01*
X8022Y3420D01*
X8047Y3506D01*
X8085Y3587D01*
X8134Y3662D01*
X8194Y3728D01*
X8264Y3785D01*
X8341Y3830D01*
X8424Y3863D01*
X8511Y3883D01*
X8590Y3889D01*
Y5711D01*
X8510Y5717D01*
X8423Y5737D01*
X8340Y5771D01*
X8262Y5816D01*
X8193Y5873D01*
X8133Y5939D01*
X8084Y6014D01*
X8046Y6096D01*
X8022Y6182D01*
X8011Y6271D01*
X8013Y6360D01*
X8029Y6449D01*
X8058Y6533D01*
X8100Y6613D01*
X8153Y6685D01*
X8216Y6748D01*
X8289Y6801D01*
X8368Y6842D01*
X8453Y6871D01*
X8541Y6887D01*
X8631Y6889D01*
X8720Y6878D01*
X8806Y6853D01*
X8887Y6815D01*
X8962Y6766D01*
X9028Y6706D01*
X9085Y6636D01*
X9130Y6559D01*
X9163Y6476D01*
X9183Y6389D01*
X9189Y6310D01*
X16011D01*
X16016Y6385D01*
X16034Y6467D01*
X16064Y6546D01*
X16104Y6620D01*
X16155Y6687D01*
X16214Y6746D01*
X16282Y6797D01*
X16356Y6837D01*
X16434Y6866D01*
X16517Y6884D01*
X16601Y6890D01*
X16685Y6884D01*
X16767Y6866D01*
X16846Y6836D01*
X16920Y6796D01*
X16987Y6745D01*
X17046Y6686D01*
X17097Y6618D01*
X17137Y6544D01*
X17166Y6466D01*
X17184Y6383D01*
X17189Y6310D01*
X17590D01*
G54D11*
X17580Y6320D02*
Y9580D01*
X7620D01*
Y8129D01*
X7618Y8100D01*
X7612Y8072D01*
X7603Y8045D01*
X7590Y8019D01*
X7574Y7995D01*
X7555Y7974D01*
X7533Y7955D01*
X7509Y7939D01*
X7483Y7926D01*
X7456Y7917D01*
X7427Y7912D01*
X7400Y7910D01*
X20D01*
Y1690D01*
X7401D01*
X7430Y1688D01*
X7458Y1682D01*
X7485Y1673D01*
X7511Y1660D01*
X7535Y1644D01*
X7556Y1625D01*
X7575Y1603D01*
X7591Y1579D01*
X7604Y1553D01*
X7613Y1526D01*
X7618Y1497D01*
X7620Y1470D01*
Y20D01*
X17580D01*
Y3280D01*
X17199D01*
X17193Y3209D01*
X17173Y3122D01*
X17140Y3038D01*
X17095Y2961D01*
X17039Y2891D01*
X16973Y2830D01*
X16899Y2780D01*
X16818Y2741D01*
X16732Y2715D01*
X16643Y2702D01*
X16554D01*
X16465Y2715D01*
X16379Y2742D01*
X16299Y2781D01*
X16225Y2832D01*
X16159Y2893D01*
X16103Y2963D01*
X16059Y3041D01*
X16026Y3125D01*
X16007Y3212D01*
X16001Y3280D01*
X9199D01*
X9193Y3208D01*
X9172Y3119D01*
X9138Y3034D01*
X9092Y2956D01*
X9034Y2886D01*
X8966Y2825D01*
X8890Y2775D01*
X8807Y2737D01*
X8719Y2712D01*
X8629Y2701D01*
X8538Y2703D01*
X8448Y2720D01*
X8362Y2749D01*
X8281Y2792D01*
X8208Y2846D01*
X8144Y2910D01*
X8090Y2984D01*
X8048Y3065D01*
X8019Y3151D01*
X8003Y3241D01*
X8001Y3332D01*
X8013Y3422D01*
X8038Y3510D01*
X8076Y3593D01*
X8127Y3668D01*
X8188Y3736D01*
X8259Y3793D01*
X8337Y3839D01*
X8422Y3873D01*
X8511Y3893D01*
X8580Y3899D01*
Y5701D01*
X8508Y5707D01*
X8419Y5728D01*
X8334Y5762D01*
X8256Y5808D01*
X8186Y5866D01*
X8125Y5934D01*
X8075Y6010D01*
X8037Y6093D01*
X8012Y6181D01*
X8001Y6271D01*
X8003Y6362D01*
X8020Y6452D01*
X8049Y6538D01*
X8092Y6619D01*
X8146Y6692D01*
X8210Y6756D01*
X8284Y6810D01*
X8365Y6852D01*
X8451Y6881D01*
X8541Y6897D01*
X8632Y6899D01*
X8722Y6887D01*
X8810Y6862D01*
X8893Y6824D01*
X8968Y6773D01*
X9036Y6712D01*
X9093Y6641D01*
X9139Y6563D01*
X9173Y6478D01*
X9193Y6389D01*
X9199Y6320D01*
X16001D01*
X16006Y6387D01*
X16025Y6470D01*
X16055Y6550D01*
X16096Y6626D01*
X16148Y6694D01*
X16208Y6754D01*
X16277Y6805D01*
X16352Y6846D01*
X16432Y6876D01*
X16516Y6894D01*
X16601Y6900D01*
X16687Y6894D01*
X16770Y6875D01*
X16850Y6845D01*
X16926Y6804D01*
X16994Y6752D01*
X17054Y6692D01*
X17105Y6623D01*
X17146Y6548D01*
X17176Y6468D01*
X17194Y6384D01*
X17199Y6320D01*
X17580D01*
G54D12*
X17560Y6340D02*
Y9560D01*
X7640D01*
Y8127D01*
X7638Y8096D01*
X7631Y8065D01*
X7621Y8036D01*
X7606Y8008D01*
X7589Y7982D01*
X7568Y7958D01*
X7544Y7938D01*
X7518Y7921D01*
X7489Y7907D01*
X7459Y7898D01*
X7429Y7892D01*
X7400Y7890D01*
X40D01*
Y1710D01*
X7403D01*
X7434Y1708D01*
X7465Y1701D01*
X7494Y1691D01*
X7522Y1676D01*
X7548Y1659D01*
X7572Y1638D01*
X7592Y1614D01*
X7609Y1588D01*
X7623Y1559D01*
X7632Y1529D01*
X7638Y1499D01*
X7640Y1470D01*
Y40D01*
X17560D01*
Y3260D01*
X17217D01*
X17212Y3205D01*
X17191Y3114D01*
X17157Y3028D01*
X17110Y2948D01*
X17052Y2876D01*
X16984Y2813D01*
X16907Y2762D01*
X16824Y2722D01*
X16735Y2695D01*
X16643Y2682D01*
X16551D01*
X16459Y2696D01*
X16371Y2724D01*
X16287Y2765D01*
X16211Y2817D01*
X16143Y2881D01*
X16086Y2953D01*
X16040Y3034D01*
X16007Y3120D01*
X15987Y3211D01*
X15983Y3260D01*
X9217D01*
X9212Y3203D01*
X9191Y3111D01*
X9155Y3024D01*
X9107Y2943D01*
X9047Y2871D01*
X8977Y2808D01*
X8898Y2757D01*
X8812Y2718D01*
X8722Y2692D01*
X8628Y2681D01*
X8534Y2684D01*
X8442Y2701D01*
X8353Y2732D01*
X8269Y2776D01*
X8194Y2832D01*
X8128Y2899D01*
X8072Y2975D01*
X8029Y3058D01*
X7999Y3148D01*
X7983Y3240D01*
X7981Y3335D01*
X7993Y3428D01*
X8020Y3518D01*
X8060Y3604D01*
X8112Y3682D01*
X8175Y3751D01*
X8248Y3811D01*
X8330Y3858D01*
X8417Y3892D01*
X8509Y3913D01*
X8560Y3917D01*
Y5683D01*
X8503Y5688D01*
X8411Y5709D01*
X8324Y5745D01*
X8243Y5793D01*
X8171Y5853D01*
X8108Y5923D01*
X8057Y6002D01*
X8018Y6088D01*
X7992Y6178D01*
X7981Y6272D01*
X7984Y6366D01*
X8001Y6458D01*
X8032Y6547D01*
X8076Y6631D01*
X8132Y6706D01*
X8199Y6772D01*
X8275Y6828D01*
X8358Y6871D01*
X8448Y6901D01*
X8540Y6917D01*
X8635Y6919D01*
X8728Y6907D01*
X8818Y6880D01*
X8904Y6840D01*
X8982Y6788D01*
X9051Y6725D01*
X9111Y6652D01*
X9158Y6570D01*
X9192Y6483D01*
X9213Y6391D01*
X9217Y6340D01*
X15983D01*
X15987Y6391D01*
X16006Y6477D01*
X16037Y6560D01*
X16080Y6638D01*
X16133Y6708D01*
X16196Y6770D01*
X16267Y6823D01*
X16345Y6865D01*
X16428Y6896D01*
X16515Y6914D01*
X16603Y6920D01*
X16691Y6913D01*
X16777Y6894D01*
X16860Y6863D01*
X16938Y6820D01*
X17008Y6767D01*
X17070Y6704D01*
X17123Y6633D01*
X17165Y6555D01*
X17196Y6472D01*
X17214Y6385D01*
X17217Y6340D01*
X17560D01*
G54D13*
X17520Y6380D02*
Y9520D01*
X7680D01*
Y8124D01*
X7677Y8088D01*
X7669Y8052D01*
X7656Y8018D01*
X7639Y7985D01*
X7618Y7955D01*
X7594Y7928D01*
X7566Y7904D01*
X7535Y7885D01*
X7502Y7869D01*
X7467Y7858D01*
X7431Y7852D01*
X7400Y7850D01*
X80D01*
Y1750D01*
X7406D01*
X7442Y1747D01*
X7478Y1739D01*
X7512Y1726D01*
X7545Y1709D01*
X7575Y1688D01*
X7602Y1664D01*
X7626Y1636D01*
X7645Y1605D01*
X7661Y1572D01*
X7672Y1537D01*
X7678Y1501D01*
X7680Y1470D01*
Y80D01*
X17520D01*
Y3220D01*
X17254D01*
X17251Y3196D01*
X17229Y3100D01*
X17192Y3008D01*
X17142Y2923D01*
X17079Y2847D01*
X17006Y2780D01*
X16924Y2726D01*
X16835Y2684D01*
X16741Y2655D01*
X16643Y2642D01*
X16545Y2643D01*
X16447Y2658D01*
X16353Y2688D01*
X16265Y2732D01*
X16184Y2788D01*
X16112Y2856D01*
X16051Y2933D01*
X16003Y3019D01*
X15968Y3111D01*
X15947Y3208D01*
X15946Y3220D01*
X9254D01*
X9251Y3194D01*
X9228Y3096D01*
X9189Y3004D01*
X9138Y2918D01*
X9074Y2841D01*
X8999Y2774D01*
X8915Y2720D01*
X8823Y2679D01*
X8727Y2653D01*
X8627Y2641D01*
X8527Y2644D01*
X8428Y2663D01*
X8334Y2696D01*
X8246Y2743D01*
X8165Y2804D01*
X8095Y2875D01*
X8037Y2956D01*
X7991Y3046D01*
X7960Y3141D01*
X7943Y3239D01*
X7941Y3340D01*
X7955Y3439D01*
X7984Y3535D01*
X8026Y3626D01*
X8082Y3709D01*
X8150Y3783D01*
X8228Y3845D01*
X8315Y3895D01*
X8409Y3931D01*
X8506Y3953D01*
X8520Y3954D01*
Y5646D01*
X8494Y5649D01*
X8396Y5672D01*
X8304Y5711D01*
X8218Y5762D01*
X8141Y5826D01*
X8074Y5901D01*
X8020Y5985D01*
X7979Y6077D01*
X7953Y6173D01*
X7941Y6273D01*
X7944Y6373D01*
X7963Y6472D01*
X7996Y6566D01*
X8043Y6654D01*
X8104Y6735D01*
X8175Y6805D01*
X8256Y6863D01*
X8346Y6909D01*
X8441Y6940D01*
X8539Y6957D01*
X8640Y6959D01*
X8739Y6945D01*
X8835Y6916D01*
X8926Y6874D01*
X9009Y6818D01*
X9083Y6750D01*
X9145Y6672D01*
X9195Y6585D01*
X9231Y6491D01*
X9253Y6394D01*
X9254Y6380D01*
X15946D01*
X15948Y6400D01*
X15969Y6492D01*
X16002Y6579D01*
X16048Y6662D01*
X16105Y6737D01*
X16172Y6802D01*
X16248Y6858D01*
X16331Y6903D01*
X16420Y6935D01*
X16512Y6954D01*
X16606Y6960D01*
X16700Y6952D01*
X16792Y6931D01*
X16879Y6898D01*
X16962Y6852D01*
X17037Y6795D01*
X17102Y6728D01*
X17158Y6652D01*
X17203Y6569D01*
X17235Y6480D01*
X17254Y6388D01*
Y6380D01*
X17520D01*
X8520Y4800D02*
X80D01*
Y4876D02*
X8520D01*
Y4952D02*
X80D01*
Y5028D02*
X8520D01*
Y5104D02*
X80D01*
Y5180D02*
X8520D01*
Y5256D02*
X80D01*
Y5332D02*
X8520D01*
Y5408D02*
X80D01*
Y5484D02*
X8520D01*
Y5560D02*
X80D01*
Y5636D02*
X8520D01*
X8301Y5712D02*
X80D01*
Y5788D02*
X8187D01*
X8107Y5864D02*
X80D01*
Y5940D02*
X8049D01*
X8006Y6016D02*
X80D01*
Y6092D02*
X7975D01*
X7954Y6168D02*
X80D01*
Y6244D02*
X7944D01*
X7942Y6320D02*
X80D01*
Y6396D02*
X7949D01*
X9253D02*
X15947D01*
X17252D02*
X17520D01*
X7963Y6472D02*
X80D01*
X9236D02*
X15964D01*
X17236D02*
X17520D01*
X7990Y6548D02*
X80D01*
X9209D02*
X15990D01*
X17210D02*
X17520D01*
X8027Y6624D02*
X80D01*
X9173D02*
X16027D01*
X17173D02*
X17520D01*
X8078Y6700D02*
X80D01*
X9122D02*
X16077D01*
X17123D02*
X17520D01*
X8146Y6776D02*
X80D01*
X9054D02*
X16146D01*
X17055D02*
X17520D01*
X8241Y6852D02*
X80D01*
X8958D02*
X16240D01*
X16961D02*
X17520D01*
X8404Y6928D02*
X80D01*
X8796D02*
X16401D01*
X16800D02*
X17520D01*
Y7004D02*
X80D01*
Y7080D02*
X17520D01*
Y7156D02*
X80D01*
Y7232D02*
X17520D01*
Y7308D02*
X80D01*
Y7384D02*
X17520D01*
Y7460D02*
X80D01*
Y7536D02*
X17520D01*
Y7612D02*
X80D01*
Y7688D02*
X17520D01*
Y7764D02*
X80D01*
Y7840D02*
X17520D01*
Y7916D02*
X7579D01*
X7643Y7992D02*
X17520D01*
Y8068D02*
X7672D01*
X7680Y8144D02*
X17520D01*
Y8220D02*
X7680D01*
Y8296D02*
X17520D01*
Y8372D02*
X7680D01*
Y8448D02*
X17520D01*
Y8524D02*
X7680D01*
X7680Y8600D02*
X17520D01*
Y8676D02*
X7680D01*
Y8752D02*
X17520D01*
Y8828D02*
X7680D01*
Y8904D02*
X17520D01*
Y8980D02*
X7680D01*
Y9056D02*
X17520D01*
Y9132D02*
X7680D01*
Y9208D02*
X17520D01*
Y9284D02*
X7680D01*
Y9360D02*
X17520D01*
Y9436D02*
X7680D01*
Y9512D02*
X17520D01*
X8520Y4724D02*
X80D01*
Y4648D02*
X8520D01*
Y4572D02*
X80D01*
Y4496D02*
X8520D01*
Y4420D02*
X80D01*
Y4344D02*
X8520D01*
Y4268D02*
X80D01*
Y4192D02*
X8520D01*
Y4116D02*
X80D01*
Y4040D02*
X8520D01*
Y3964D02*
X80D01*
Y3888D02*
X8303D01*
X8187Y3812D02*
X80D01*
Y3736D02*
X8107D01*
X8049Y3660D02*
X80D01*
Y3584D02*
X8007D01*
X7976Y3508D02*
X80D01*
Y3432D02*
X7954D01*
X7944Y3356D02*
X80D01*
Y3280D02*
X7942D01*
X7949Y3204D02*
X80D01*
X9252D02*
X15948D01*
X17252D02*
X17520D01*
X7964Y3128D02*
X80D01*
X9235D02*
X15964D01*
X17235D02*
X17520D01*
X7989Y3052D02*
X80D01*
X9209D02*
X15990D01*
X17209D02*
X17520D01*
X8027Y2976D02*
X80D01*
X9173D02*
X16027D01*
X17173D02*
X17520D01*
X8077Y2900D02*
X80D01*
X9123D02*
X16078D01*
X17123D02*
X17520D01*
X8145Y2824D02*
X80D01*
X9055D02*
X16146D01*
X17055D02*
X17520D01*
X8240Y2748D02*
X80D01*
X8958D02*
X16241D01*
X16958D02*
X17520D01*
X8403Y2672D02*
X80D01*
X8797D02*
X16404D01*
X16797D02*
X17520D01*
Y2596D02*
X80D01*
Y2520D02*
X17520D01*
Y2444D02*
X80D01*
Y2368D02*
X17520D01*
Y2292D02*
X80D01*
Y2216D02*
X17520D01*
Y2140D02*
X80D01*
Y2064D02*
X17520D01*
Y1988D02*
X80D01*
Y1912D02*
X17520D01*
Y1836D02*
X80D01*
Y1760D02*
X17520D01*
Y1684D02*
X7580D01*
X7643Y1608D02*
X17520D01*
Y1532D02*
X7673D01*
X7680Y1456D02*
X17520D01*
Y1380D02*
X7680D01*
Y1304D02*
X17520D01*
Y1228D02*
X7680D01*
Y1152D02*
X17520D01*
Y1076D02*
X7680D01*
Y1000D02*
X17520D01*
Y924D02*
X7680D01*
Y848D02*
X17520D01*
Y772D02*
X7680D01*
Y696D02*
X17520D01*
Y620D02*
X7680D01*
Y544D02*
X17520D01*
Y468D02*
X7680D01*
Y392D02*
X17520D01*
Y316D02*
X7680D01*
Y240D02*
X17520D01*
Y164D02*
X7680D01*
Y88D02*
X17520D01*
G54D10*
X17595Y6305D02*
Y9595D01*
X7605D01*
Y8130D01*
X7603Y8103D01*
X7598Y8077D01*
X7589Y8051D01*
X7577Y8027D01*
X7562Y8005D01*
X7545Y7985D01*
X7525Y7967D01*
X7502Y7952D01*
X7478Y7940D01*
X7453Y7932D01*
X7426Y7927D01*
X7400Y7925D01*
X5D01*
Y1675D01*
X7400D01*
X7427Y1673D01*
X7453Y1668D01*
X7479Y1659D01*
X7503Y1647D01*
X7525Y1632D01*
X7545Y1615D01*
X7563Y1595D01*
X7578Y1572D01*
X7590Y1548D01*
X7598Y1523D01*
X7603Y1496D01*
X7605Y1470D01*
Y5D01*
X17595D01*
Y3295D01*
X17185D01*
X17178Y3212D01*
X17159Y3127D01*
X17127Y3046D01*
X17083Y2970D01*
X17029Y2902D01*
X16964Y2842D01*
X16892Y2793D01*
X16813Y2755D01*
X16730Y2730D01*
X16643Y2717D01*
X16556D01*
X16469Y2730D01*
X16386Y2756D01*
X16307Y2794D01*
X16235Y2843D01*
X16171Y2902D01*
X16116Y2971D01*
X16073Y3046D01*
X16041Y3128D01*
X16022Y3213D01*
X16015Y3295D01*
X9185D01*
X9178Y3211D01*
X9158Y3125D01*
X9125Y3042D01*
X9080Y2966D01*
X9024Y2897D01*
X8958Y2837D01*
X8884Y2788D01*
X8803Y2751D01*
X8717Y2727D01*
X8629Y2716D01*
X8540Y2718D01*
X8453Y2734D01*
X8369Y2763D01*
X8290Y2804D01*
X8219Y2856D01*
X8156Y2919D01*
X8103Y2991D01*
X8062Y3070D01*
X8034Y3154D01*
X8018Y3241D01*
X8016Y3330D01*
X8027Y3418D01*
X8052Y3503D01*
X8089Y3584D01*
X8138Y3658D01*
X8197Y3724D01*
X8266Y3780D01*
X8343Y3825D01*
X8425Y3858D01*
X8512Y3878D01*
X8595Y3885D01*
Y5715D01*
X8511Y5722D01*
X8425Y5742D01*
X8342Y5775D01*
X8266Y5820D01*
X8197Y5876D01*
X8137Y5942D01*
X8088Y6016D01*
X8051Y6097D01*
X8027Y6183D01*
X8016Y6271D01*
X8018Y6360D01*
X8034Y6447D01*
X8063Y6531D01*
X8104Y6610D01*
X8156Y6681D01*
X8219Y6744D01*
X8291Y6797D01*
X8370Y6838D01*
X8454Y6866D01*
X8541Y6882D01*
X8630Y6884D01*
X8718Y6873D01*
X8803Y6848D01*
X8884Y6811D01*
X8958Y6762D01*
X9024Y6703D01*
X9080Y6634D01*
X9125Y6557D01*
X9158Y6475D01*
X9178Y6388D01*
X9185Y6305D01*
X16015D01*
X16021Y6384D01*
X16039Y6465D01*
X16068Y6543D01*
X16108Y6617D01*
X16158Y6683D01*
X16217Y6742D01*
X16284Y6792D01*
X16357Y6832D01*
X16436Y6861D01*
X16517Y6879D01*
X16600Y6885D01*
X16684Y6879D01*
X16765Y6861D01*
X16843Y6832D01*
X16917Y6792D01*
X16983Y6742D01*
X17042Y6683D01*
X17092Y6616D01*
X17132Y6543D01*
X17161Y6464D01*
X17179Y6383D01*
X17185Y6305D01*
X17595D01*
Y6295D02*
X17185D01*
X17178Y6212D01*
X17159Y6127D01*
X17127Y6046D01*
X17083Y5970D01*
X17029Y5902D01*
X16964Y5842D01*
X16892Y5793D01*
X16813Y5755D01*
X16730Y5730D01*
X16643Y5717D01*
X16556D01*
X16469Y5730D01*
X16386Y5756D01*
X16307Y5794D01*
X16235Y5843D01*
X16171Y5902D01*
X16116Y5971D01*
X16073Y6046D01*
X16041Y6128D01*
X16022Y6213D01*
X16015Y6295D01*
X9185D01*
X9180Y6223D01*
X9165Y6148D01*
X9140Y6076D01*
X9106Y6007D01*
X9064Y5944D01*
X9013Y5886D01*
X8956Y5836D01*
X8892Y5793D01*
X8824Y5759D01*
X8751Y5735D01*
X8676Y5720D01*
X8605Y5715D01*
Y3885D01*
X8677Y3880D01*
X8752Y3865D01*
X8824Y3840D01*
X8893Y3806D01*
X8956Y3764D01*
X9014Y3713D01*
X9064Y3656D01*
X9107Y3592D01*
X9141Y3524D01*
X9165Y3451D01*
X9180Y3376D01*
X9185Y3305D01*
X16015D01*
X16021Y3384D01*
X16039Y3465D01*
X16068Y3543D01*
X16108Y3617D01*
X16158Y3683D01*
X16217Y3742D01*
X16284Y3792D01*
X16357Y3832D01*
X16436Y3861D01*
X16517Y3879D01*
X16600Y3885D01*
X16684Y3879D01*
X16765Y3861D01*
X16843Y3832D01*
X16917Y3792D01*
X16983Y3742D01*
X17042Y3683D01*
X17092Y3616D01*
X17132Y3543D01*
X17161Y3464D01*
X17179Y3383D01*
X17185Y3305D01*
X17595D01*
Y6295D01*
X17590Y6290D02*
X17189D01*
X17183Y6211D01*
X17164Y6125D01*
X17131Y6043D01*
X17087Y5967D01*
X17032Y5898D01*
X16967Y5838D01*
X16894Y5789D01*
X16815Y5751D01*
X16731Y5725D01*
X16643Y5712D01*
X16555D01*
X16468Y5725D01*
X16384Y5751D01*
X16304Y5789D01*
X16232Y5839D01*
X16167Y5899D01*
X16112Y5968D01*
X16068Y6045D01*
X16036Y6127D01*
X16017Y6213D01*
X16011Y6290D01*
X9189D01*
X9185Y6222D01*
X9170Y6147D01*
X9145Y6074D01*
X9111Y6004D01*
X9068Y5940D01*
X9017Y5882D01*
X8959Y5832D01*
X8894Y5789D01*
X8825Y5755D01*
X8752Y5730D01*
X8676Y5715D01*
X8610Y5711D01*
Y3889D01*
X8678Y3885D01*
X8753Y3870D01*
X8826Y3845D01*
X8896Y3811D01*
X8960Y3768D01*
X9018Y3717D01*
X9068Y3659D01*
X9111Y3594D01*
X9145Y3525D01*
X9170Y3452D01*
X9185Y3376D01*
X9189Y3310D01*
X16011D01*
X16016Y3385D01*
X16034Y3467D01*
X16064Y3546D01*
X16104Y3620D01*
X16155Y3687D01*
X16214Y3746D01*
X16282Y3797D01*
X16356Y3837D01*
X16434Y3866D01*
X16517Y3884D01*
X16601Y3890D01*
X16685Y3884D01*
X16767Y3866D01*
X16846Y3836D01*
X16920Y3796D01*
X16987Y3745D01*
X17046Y3686D01*
X17097Y3618D01*
X17137Y3544D01*
X17166Y3466D01*
X17184Y3383D01*
X17189Y3310D01*
X17590D01*
Y6290D01*
G54D11*
X17580Y6280D02*
X17199D01*
X17193Y6209D01*
X17173Y6122D01*
X17140Y6038D01*
X17095Y5961D01*
X17039Y5891D01*
X16973Y5830D01*
X16899Y5780D01*
X16818Y5741D01*
X16732Y5715D01*
X16643Y5702D01*
X16554D01*
X16465Y5715D01*
X16379Y5742D01*
X16299Y5781D01*
X16225Y5832D01*
X16159Y5893D01*
X16103Y5963D01*
X16059Y6041D01*
X16026Y6125D01*
X16007Y6212D01*
X16001Y6280D01*
X9199D01*
X9195Y6220D01*
X9179Y6143D01*
X9154Y6069D01*
X9119Y5999D01*
X9075Y5934D01*
X9023Y5875D01*
X8964Y5823D01*
X8899Y5780D01*
X8828Y5745D01*
X8754Y5720D01*
X8677Y5705D01*
X8620Y5701D01*
Y3899D01*
X8680Y3895D01*
X8757Y3879D01*
X8831Y3854D01*
X8901Y3819D01*
X8966Y3775D01*
X9025Y3723D01*
X9077Y3664D01*
X9120Y3599D01*
X9155Y3528D01*
X9180Y3454D01*
X9195Y3377D01*
X9199Y3320D01*
X16001D01*
X16006Y3387D01*
X16025Y3470D01*
X16055Y3550D01*
X16096Y3626D01*
X16148Y3694D01*
X16208Y3754D01*
X16277Y3805D01*
X16352Y3846D01*
X16432Y3876D01*
X16516Y3894D01*
X16601Y3900D01*
X16687Y3894D01*
X16770Y3875D01*
X16850Y3845D01*
X16926Y3804D01*
X16994Y3752D01*
X17054Y3692D01*
X17105Y3623D01*
X17146Y3548D01*
X17176Y3468D01*
X17194Y3384D01*
X17199Y3320D01*
X17580D01*
Y6280D01*
G54D12*
X17560Y6260D02*
X17217D01*
X17212Y6205D01*
X17191Y6114D01*
X17157Y6028D01*
X17110Y5948D01*
X17052Y5876D01*
X16984Y5813D01*
X16907Y5762D01*
X16824Y5722D01*
X16735Y5695D01*
X16643Y5682D01*
X16551D01*
X16459Y5696D01*
X16371Y5724D01*
X16287Y5765D01*
X16211Y5817D01*
X16143Y5881D01*
X16086Y5953D01*
X16040Y6034D01*
X16007Y6120D01*
X15987Y6211D01*
X15983Y6260D01*
X9217D01*
X9214Y6216D01*
X9198Y6137D01*
X9172Y6060D01*
X9136Y5988D01*
X9090Y5920D01*
X9036Y5860D01*
X8975Y5807D01*
X8908Y5762D01*
X8835Y5726D01*
X8758Y5701D01*
X8678Y5685D01*
X8640Y5683D01*
Y3917D01*
X8684Y3914D01*
X8763Y3898D01*
X8840Y3872D01*
X8912Y3836D01*
X8980Y3790D01*
X9040Y3736D01*
X9093Y3675D01*
X9138Y3608D01*
X9174Y3535D01*
X9199Y3458D01*
X9215Y3378D01*
X9217Y3340D01*
X15983D01*
X15987Y3391D01*
X16006Y3477D01*
X16037Y3560D01*
X16080Y3638D01*
X16133Y3708D01*
X16196Y3770D01*
X16267Y3823D01*
X16345Y3865D01*
X16428Y3896D01*
X16515Y3914D01*
X16603Y3920D01*
X16691Y3913D01*
X16777Y3894D01*
X16860Y3863D01*
X16938Y3820D01*
X17008Y3767D01*
X17070Y3704D01*
X17123Y3633D01*
X17165Y3555D01*
X17196Y3472D01*
X17214Y3385D01*
X17217Y3340D01*
X17560D01*
Y6260D01*
G54D13*
X17520Y6220D02*
X17254D01*
X17251Y6196D01*
X17229Y6100D01*
X17192Y6008D01*
X17142Y5923D01*
X17079Y5847D01*
X17006Y5780D01*
X16924Y5726D01*
X16835Y5684D01*
X16741Y5655D01*
X16643Y5642D01*
X16545Y5643D01*
X16447Y5658D01*
X16353Y5688D01*
X16265Y5732D01*
X16184Y5788D01*
X16112Y5856D01*
X16051Y5933D01*
X16003Y6019D01*
X15968Y6111D01*
X15947Y6208D01*
X15946Y6220D01*
X9255D01*
X9253Y6208D01*
X9236Y6124D01*
X9208Y6042D01*
X9169Y5965D01*
X9120Y5894D01*
X9063Y5830D01*
X8997Y5773D01*
X8925Y5726D01*
X8847Y5688D01*
X8765Y5661D01*
X8681Y5645D01*
X8680D01*
Y3955D01*
X8692Y3953D01*
X8776Y3936D01*
X8858Y3908D01*
X8935Y3869D01*
X9006Y3820D01*
X9070Y3763D01*
X9127Y3697D01*
X9174Y3625D01*
X9212Y3547D01*
X9239Y3465D01*
X9255Y3381D01*
Y3380D01*
X15946D01*
X15948Y3400D01*
X15969Y3492D01*
X16002Y3579D01*
X16048Y3662D01*
X16105Y3737D01*
X16172Y3802D01*
X16248Y3858D01*
X16331Y3903D01*
X16420Y3935D01*
X16512Y3954D01*
X16606Y3960D01*
X16700Y3952D01*
X16792Y3931D01*
X16879Y3898D01*
X16962Y3852D01*
X17037Y3795D01*
X17102Y3728D01*
X17158Y3652D01*
X17203Y3569D01*
X17235Y3480D01*
X17254Y3388D01*
Y3380D01*
X17520D01*
Y6220D01*
X17520Y4800D02*
X8680D01*
Y4876D02*
X17520D01*
Y4952D02*
X8680D01*
Y5028D02*
X17520D01*
Y5104D02*
X8680D01*
Y5180D02*
X17520D01*
Y5256D02*
X8680D01*
Y5332D02*
X17520D01*
Y5408D02*
X8680D01*
Y5484D02*
X17520D01*
Y5560D02*
X8680D01*
Y5636D02*
X17520D01*
X16305Y5712D02*
X8897D01*
X16896D02*
X17520D01*
X16184Y5788D02*
X9015D01*
X17015D02*
X17520D01*
X16106Y5864D02*
X9093D01*
X17094D02*
X17520D01*
X16048Y5940D02*
X9151D01*
X17152D02*
X17520D01*
X16005Y6016D02*
X9194D01*
X17195D02*
X17520D01*
X15975Y6092D02*
X9225D01*
X17226D02*
X17520D01*
X15955Y6168D02*
X9245D01*
X17245D02*
X17520D01*
Y4724D02*
X8680D01*
Y4648D02*
X17520D01*
Y4572D02*
X8680D01*
Y4496D02*
X17520D01*
Y4420D02*
X8680D01*
Y4344D02*
X17520D01*
Y4268D02*
X8680D01*
Y4192D02*
X17520D01*
Y4116D02*
X8680D01*
Y4040D02*
X17520D01*
Y3964D02*
X8680D01*
X8896Y3888D02*
X16304D01*
X16897D02*
X17520D01*
X16185Y3812D02*
X9015D01*
X17014D02*
X17520D01*
X16105Y3736D02*
X9093D01*
X17094D02*
X17520D01*
X16047Y3660D02*
X9151D01*
X17152D02*
X17520D01*
X16005Y3584D02*
X9194D01*
X17194D02*
X17520D01*
X15975Y3508D02*
X9225D01*
X17225D02*
X17520D01*
X15955Y3432D02*
X9245D01*
X17245D02*
X17520D01*
G54D10*
X17595Y6295D02*
X17185D01*
X17178Y6212D01*
X17159Y6127D01*
X17127Y6046D01*
X17083Y5970D01*
X17029Y5902D01*
X16964Y5842D01*
X16892Y5793D01*
X16813Y5755D01*
X16730Y5730D01*
X16643Y5717D01*
X16556D01*
X16469Y5730D01*
X16386Y5756D01*
X16307Y5794D01*
X16235Y5843D01*
X16171Y5902D01*
X16116Y5971D01*
X16073Y6046D01*
X16041Y6128D01*
X16022Y6213D01*
X16015Y6295D01*
X9185D01*
X9180Y6223D01*
X9165Y6148D01*
X9140Y6076D01*
X9106Y6007D01*
X9064Y5944D01*
X9013Y5886D01*
X8956Y5836D01*
X8892Y5793D01*
X8824Y5759D01*
X8751Y5735D01*
X8676Y5720D01*
X8605Y5715D01*
Y3885D01*
X8677Y3880D01*
X8752Y3865D01*
X8824Y3840D01*
X8893Y3806D01*
X8956Y3764D01*
X9014Y3713D01*
X9064Y3656D01*
X9107Y3592D01*
X9141Y3524D01*
X9165Y3451D01*
X9180Y3376D01*
X9185Y3305D01*
X16015D01*
X16021Y3384D01*
X16039Y3465D01*
X16068Y3543D01*
X16108Y3617D01*
X16158Y3683D01*
X16217Y3742D01*
X16284Y3792D01*
X16357Y3832D01*
X16436Y3861D01*
X16517Y3879D01*
X16600Y3885D01*
X16684Y3879D01*
X16765Y3861D01*
X16843Y3832D01*
X16917Y3792D01*
X16983Y3742D01*
X17042Y3683D01*
X17092Y3616D01*
X17132Y3543D01*
X17161Y3464D01*
X17179Y3383D01*
X17185Y3305D01*
X17595D01*
Y6295D01*
M02*

