G75*
%IPPOS*%
%FSLAX44Y44*%
%MOIN*%
%ADD10C,0.00100*%
%ADD11C,0.00200*%
%ADD12C,0.00400*%
%ADD13C,0.00800*%
%ADD14C,0.01500*%
%ADD15C,0.02500*%
%ADD16C,0.04000*%
%ADD17C,0.40000*%
%ADD18C,0.20000*%
%ADD19C,0.09358*%
%ADD20C,0.12600*%
%ADD21C,0.08000*%
%ADD22C,0.25000*%
%ADD23C,0.03800*%
%ADD24C,0.13600*%
%ADD25C,0.04400*%
%ADD26C,0.19600*%
%ADD27C,0.10148*%
%ADD28C,0.08600*%
%ADD29C,0.09600*%
%ADD30C,0.07000*%
%ADD31C,0.09375*%
%ADD32C,0.09300*%
%ADD33C,1.40000*%
%ADD34C,1.60000*%
%ADD35C,0.11600*%
%ADD36C,0.07800*%
%ADD37C,0.01300*%
%ADD38C,0.06000*%
%LNPTH*%
%LPD*%
G54D10*
X-495Y23D02*
Y-23D01*
X-5D01*
Y23D01*
X-495D01*
X-490Y18D02*
Y-18D01*
X-10D01*
Y18D01*
X-490D01*
G54D11*
X-480Y8D02*
Y-8D01*
X-20D01*
Y8D01*
X-480D01*
X-20Y0D02*
X-480D01*
G54D10*
X-495Y23D02*
Y-23D01*
X-5D01*
Y23D01*
X-495D01*
X23Y-5D02*
X-23D01*
Y-495D01*
X23D01*
Y-5D01*
X18Y-10D02*
X-18D01*
Y-490D01*
X18D01*
Y-10D01*
G54D11*
X8Y-20D02*
X-8D01*
Y-480D01*
X8D01*
Y-20D01*
X0Y-20D02*
Y-480D01*
G54D10*
X23Y-5D02*
X-23D01*
Y-495D01*
X23D01*
Y-5D01*
X-480Y13D02*
X-513Y-20D01*
X-20Y-513D01*
X13Y-480D01*
X-480Y13D01*
Y6D02*
X-506Y-20D01*
X-20Y-506D01*
X6Y-480D01*
X-480Y6D01*
G54D11*
Y-8D02*
X-492Y-20D01*
X-20Y-492D01*
X-8Y-480D01*
X-480Y-8D01*
X-239Y-250D02*
X-262D01*
X-258Y-231D02*
X-281D01*
X-277Y-212D02*
X-300D01*
X-296Y-193D02*
X-319D01*
X-315Y-174D02*
X-338D01*
X-334Y-155D02*
X-357D01*
X-353Y-136D02*
X-376D01*
X-372Y-117D02*
X-395D01*
X-391Y-98D02*
X-414D01*
X-410Y-79D02*
X-433D01*
X-429Y-60D02*
X-452D01*
X-448Y-41D02*
X-471D01*
X-467Y-22D02*
X-490D01*
X-243Y-269D02*
X-220D01*
X-224Y-288D02*
X-201D01*
X-205Y-307D02*
X-182D01*
X-186Y-326D02*
X-163D01*
X-167Y-345D02*
X-144D01*
X-148Y-364D02*
X-125D01*
X-129Y-383D02*
X-106D01*
X-110Y-402D02*
X-87D01*
X-91Y-421D02*
X-68D01*
X-72Y-440D02*
X-49D01*
X-53Y-459D02*
X-30D01*
X-34Y-478D02*
X-11D01*
G54D10*
X-480Y13D02*
X-513Y-20D01*
X-20Y-513D01*
X13Y-480D01*
X-480Y13D01*
X18095Y-23D02*
Y23D01*
X17605D01*
Y-23D01*
X18095D01*
X18090Y-18D02*
Y18D01*
X17610D01*
Y-18D01*
X18090D01*
G54D11*
X18080Y-8D02*
Y8D01*
X17620D01*
Y-8D01*
X18080D01*
X18080Y0D02*
X17620D01*
G54D10*
X18095Y-23D02*
Y23D01*
X17605D01*
Y-23D01*
X18095D01*
X17623Y-5D02*
X17577D01*
Y-495D01*
X17623D01*
Y-5D01*
X17618Y-10D02*
X17582D01*
Y-490D01*
X17618D01*
Y-10D01*
G54D11*
X17608Y-20D02*
X17592D01*
Y-480D01*
X17608D01*
Y-20D01*
X17600Y-20D02*
Y-480D01*
G54D10*
X17623Y-5D02*
X17577D01*
Y-495D01*
X17623D01*
Y-5D01*
X18095Y9577D02*
Y9623D01*
X17605D01*
Y9577D01*
X18095D01*
X18090Y9582D02*
Y9618D01*
X17610D01*
Y9582D01*
X18090D01*
G54D11*
X18080Y9592D02*
Y9608D01*
X17620D01*
Y9592D01*
X18080D01*
X18080Y9600D02*
X17620D01*
G54D10*
X18095Y9577D02*
Y9623D01*
X17605D01*
Y9577D01*
X18095D01*
X17577Y9605D02*
X17623D01*
Y10095D01*
X17577D01*
Y9605D01*
X17582Y9610D02*
X17618D01*
Y10090D01*
X17582D01*
Y9610D01*
G54D11*
X17592Y9620D02*
X17608D01*
Y10080D01*
X17592D01*
Y9620D01*
X17600Y10080D02*
Y9620D01*
G54D10*
X17577Y9605D02*
X17623D01*
Y10095D01*
X17577D01*
Y9605D01*
X-495Y9623D02*
Y9577D01*
X-5D01*
Y9623D01*
X-495D01*
X-490Y9618D02*
Y9582D01*
X-10D01*
Y9618D01*
X-490D01*
G54D11*
X-480Y9608D02*
Y9592D01*
X-20D01*
Y9608D01*
X-480D01*
X-20Y9600D02*
X-480D01*
G54D10*
X-495Y9623D02*
Y9577D01*
X-5D01*
Y9623D01*
X-495D01*
X-23Y9605D02*
X23D01*
Y10095D01*
X-23D01*
Y9605D01*
X-18Y9610D02*
X18D01*
Y10090D01*
X-18D01*
Y9610D01*
G54D11*
X-8Y9620D02*
X8D01*
Y10080D01*
X-8D01*
Y9620D01*
X0Y10080D02*
Y9620D01*
G54D10*
X-23Y9605D02*
X23D01*
Y10095D01*
X-23D01*
Y9605D01*
G54D38*
X18050Y10050D03*
X-450D03*
X18050Y-450D03*
G54D36*
X1925Y2770D03*
X5675D03*
Y6830D03*
X1925D03*
X10725Y1100D03*
X14475D03*
X10725Y8500D03*
X14475D03*
G54D37*
X12235Y607D03*
Y1007D03*
Y208D03*
Y1406D03*
Y1805D03*
Y2205D03*
Y2604D03*
Y3003D03*
X11905Y408D03*
Y4800D03*
X12235Y3403D03*
Y3802D03*
Y4201D03*
Y4601D03*
X10291Y2397D03*
Y3198D03*
Y3999D03*
Y4800D03*
X11033Y394D03*
Y1996D03*
Y2798D03*
Y3599D03*
Y4400D03*
X9549Y394D03*
Y1996D03*
Y2797D03*
Y3599D03*
Y4400D03*
X8807Y2397D03*
Y3999D03*
Y4800D03*
X8065Y1996D03*
Y2797D03*
Y4399D03*
Y394D03*
X10291Y1595D03*
X8065Y1195D03*
X10291Y7204D03*
Y6402D03*
Y5601D03*
X11033Y9206D03*
Y7604D03*
Y6802D03*
Y6001D03*
Y5200D03*
X9549Y9206D03*
Y7604D03*
Y6803D03*
Y6002D03*
Y5200D03*
X8807Y7204D03*
Y5601D03*
X8065Y7604D03*
Y5201D03*
Y9207D03*
X10291Y8005D03*
X8065Y8405D03*
X14909Y2397D03*
Y3198D03*
Y3999D03*
Y4800D03*
X14167Y394D03*
Y1996D03*
Y2798D03*
Y3599D03*
Y4400D03*
X15651Y394D03*
Y1996D03*
Y2797D03*
Y3599D03*
Y4400D03*
X16393Y2397D03*
Y3999D03*
Y4800D03*
X17135Y1996D03*
Y2797D03*
X11905Y3203D03*
X17135Y4399D03*
Y394D03*
X14909Y1595D03*
X17135Y1195D03*
X16393Y7204D03*
X14909D03*
X14167Y9206D03*
X14909Y6402D03*
Y5601D03*
X14167Y7604D03*
Y6802D03*
X12235Y8194D03*
X14167Y6001D03*
Y5200D03*
X15651Y9206D03*
Y7604D03*
Y6803D03*
Y6002D03*
Y5200D03*
X16393Y5601D03*
X17135Y6803D03*
Y7604D03*
Y5201D03*
Y9207D03*
X14909Y8005D03*
X17135Y8405D03*
X13295Y807D03*
X11905D03*
Y1206D03*
Y1606D03*
Y2005D03*
Y2404D03*
Y2804D03*
X13295Y3602D03*
X11905D03*
Y4002D03*
Y4401D03*
X11575Y3403D03*
Y3802D03*
Y4201D03*
Y4601D03*
X12965Y8993D03*
X12235D03*
Y8593D03*
Y9392D03*
Y7795D03*
Y7395D03*
Y6996D03*
Y6597D03*
X11905Y9192D03*
X12235Y6197D03*
Y5798D03*
Y5399D03*
Y4999D03*
X11905Y8793D03*
Y8394D03*
Y7994D03*
Y7595D03*
Y7196D03*
Y6796D03*
Y6397D03*
Y5998D03*
Y5598D03*
Y5199D03*
X11575Y6197D03*
Y5798D03*
Y5399D03*
Y4999D03*
X12600Y4800D03*
Y3602D03*
Y4002D03*
Y4401D03*
Y5998D03*
Y5598D03*
Y5199D03*
X12965Y607D03*
Y1007D03*
Y208D03*
Y1406D03*
Y1805D03*
Y2205D03*
Y2604D03*
Y3003D03*
X13295Y408D03*
Y4800D03*
X12965Y3403D03*
Y3802D03*
Y4201D03*
Y4601D03*
X13295Y1206D03*
Y1606D03*
Y2005D03*
Y2404D03*
Y2804D03*
Y3203D03*
Y4002D03*
Y4401D03*
X13625Y3403D03*
Y3802D03*
Y4201D03*
Y4601D03*
X12965Y8593D03*
Y9392D03*
Y8194D03*
Y7795D03*
Y7395D03*
Y6996D03*
Y6597D03*
X13295Y9192D03*
X12965Y6197D03*
Y5798D03*
Y5399D03*
Y4999D03*
X13295Y8793D03*
Y8394D03*
Y7994D03*
Y7595D03*
Y7196D03*
Y6796D03*
Y6397D03*
Y5998D03*
Y5598D03*
Y5199D03*
X13625Y6197D03*
Y5798D03*
Y5399D03*
Y4999D03*
X3435Y1805D03*
Y2205D03*
Y2604D03*
Y3003D03*
X3105Y4800D03*
X3435Y3403D03*
Y3802D03*
Y4201D03*
Y4601D03*
X3105Y3203D03*
Y2005D03*
Y2404D03*
Y2804D03*
X4495Y3602D03*
X3105D03*
Y4002D03*
Y4401D03*
X2775Y3403D03*
Y3802D03*
Y4201D03*
Y4601D03*
X3435Y7795D03*
Y7395D03*
Y6996D03*
Y6597D03*
Y6197D03*
Y5798D03*
Y5399D03*
Y4999D03*
X3105Y7595D03*
Y7196D03*
Y6796D03*
Y6397D03*
Y5998D03*
Y5598D03*
Y5199D03*
X2775Y6197D03*
Y5798D03*
Y5399D03*
Y4999D03*
X4165Y1805D03*
Y2205D03*
Y2604D03*
Y3003D03*
X4495Y4800D03*
X4165Y3403D03*
Y3802D03*
Y4201D03*
Y4601D03*
X4495Y2005D03*
Y2404D03*
Y2804D03*
Y3203D03*
Y4002D03*
Y4401D03*
X4825Y3403D03*
Y3802D03*
Y4201D03*
Y4601D03*
X4165Y7795D03*
Y7395D03*
Y6996D03*
Y6597D03*
Y6197D03*
Y5798D03*
Y5399D03*
Y4999D03*
X4495Y7595D03*
Y7196D03*
Y6796D03*
Y6397D03*
Y5998D03*
Y5598D03*
Y5199D03*
X4825Y6197D03*
Y5798D03*
Y5399D03*
Y4999D03*
X8807Y8005D03*
X9549Y8405D03*
X8807Y8806D03*
X8065Y6803D03*
X9549Y1195D03*
X8807Y1595D03*
Y794D03*
X16393Y8005D03*
X15651Y8405D03*
X16393Y8806D03*
X15651Y1195D03*
X16393Y1595D03*
Y794D03*
X1491Y2397D03*
Y3198D03*
Y3999D03*
Y4800D03*
X2233Y1996D03*
Y3599D03*
Y4400D03*
X1491Y7204D03*
Y6402D03*
Y5601D03*
X2233Y7604D03*
Y6001D03*
Y5200D03*
X6109Y2397D03*
Y3198D03*
Y3999D03*
Y4800D03*
X5367Y1996D03*
Y3599D03*
Y4400D03*
X6109Y7204D03*
Y6402D03*
Y5601D03*
X5367Y7604D03*
Y6001D03*
Y5200D03*
M02*

