G75*
%IPPOS*%
%FSLAX44Y44*%
%MOIN*%
%ADD10C,0.00100*%
%ADD11C,0.00200*%
%ADD12C,0.00400*%
%ADD13C,0.00800*%
%ADD14C,0.01500*%
%ADD15C,0.02500*%
%ADD16C,0.04000*%
%ADD17C,0.40000*%
%ADD18C,0.20000*%
%ADD19C,0.09358*%
%ADD20C,0.12600*%
%ADD21C,0.08000*%
%ADD22C,0.25000*%
%ADD23C,0.03800*%
%ADD24C,0.13600*%
%ADD25C,0.04400*%
%ADD26C,0.19600*%
%ADD27C,0.10148*%
%ADD28C,0.08600*%
%ADD29C,0.09600*%
%ADD30C,0.07000*%
%ADD31C,0.09375*%
%ADD32C,0.09300*%
%ADD33C,1.40000*%
%ADD34C,1.60000*%
%ADD35C,0.11600*%
%ADD36C,0.07800*%
%ADD37C,0.01300*%
%ADD38C,0.06000*%
%LNTOP-COP*%
%LPD*%
G54D10*
X-495Y23D02*
Y-23D01*
X-5D01*
Y23D01*
X-495D01*
X-490Y18D02*
Y-18D01*
X-10D01*
Y18D01*
X-490D01*
G54D11*
X-480Y8D02*
Y-8D01*
X-20D01*
Y8D01*
X-480D01*
X-20Y0D02*
X-480D01*
G54D10*
X-495Y23D02*
Y-23D01*
X-5D01*
Y23D01*
X-495D01*
X23Y-5D02*
X-23D01*
Y-495D01*
X23D01*
Y-5D01*
X18Y-10D02*
X-18D01*
Y-490D01*
X18D01*
Y-10D01*
G54D11*
X8Y-20D02*
X-8D01*
Y-480D01*
X8D01*
Y-20D01*
X0Y-20D02*
Y-480D01*
G54D10*
X23Y-5D02*
X-23D01*
Y-495D01*
X23D01*
Y-5D01*
X-480Y13D02*
X-513Y-20D01*
X-20Y-513D01*
X13Y-480D01*
X-480Y13D01*
Y6D02*
X-506Y-20D01*
X-20Y-506D01*
X6Y-480D01*
X-480Y6D01*
G54D11*
Y-8D02*
X-492Y-20D01*
X-20Y-492D01*
X-8Y-480D01*
X-480Y-8D01*
X-239Y-250D02*
X-262D01*
X-258Y-231D02*
X-281D01*
X-277Y-212D02*
X-300D01*
X-296Y-193D02*
X-319D01*
X-315Y-174D02*
X-338D01*
X-334Y-155D02*
X-357D01*
X-353Y-136D02*
X-376D01*
X-372Y-117D02*
X-395D01*
X-391Y-98D02*
X-414D01*
X-410Y-79D02*
X-433D01*
X-429Y-60D02*
X-452D01*
X-448Y-41D02*
X-471D01*
X-467Y-22D02*
X-490D01*
X-243Y-269D02*
X-220D01*
X-224Y-288D02*
X-201D01*
X-205Y-307D02*
X-182D01*
X-186Y-326D02*
X-163D01*
X-167Y-345D02*
X-144D01*
X-148Y-364D02*
X-125D01*
X-129Y-383D02*
X-106D01*
X-110Y-402D02*
X-87D01*
X-91Y-421D02*
X-68D01*
X-72Y-440D02*
X-49D01*
X-53Y-459D02*
X-30D01*
X-34Y-478D02*
X-11D01*
G54D10*
X-480Y13D02*
X-513Y-20D01*
X-20Y-513D01*
X13Y-480D01*
X-480Y13D01*
X18095Y-23D02*
Y23D01*
X17605D01*
Y-23D01*
X18095D01*
X18090Y-18D02*
Y18D01*
X17610D01*
Y-18D01*
X18090D01*
G54D11*
X18080Y-8D02*
Y8D01*
X17620D01*
Y-8D01*
X18080D01*
X18080Y0D02*
X17620D01*
G54D10*
X18095Y-23D02*
Y23D01*
X17605D01*
Y-23D01*
X18095D01*
X17623Y-5D02*
X17577D01*
Y-495D01*
X17623D01*
Y-5D01*
X17618Y-10D02*
X17582D01*
Y-490D01*
X17618D01*
Y-10D01*
G54D11*
X17608Y-20D02*
X17592D01*
Y-480D01*
X17608D01*
Y-20D01*
X17600Y-20D02*
Y-480D01*
G54D10*
X17623Y-5D02*
X17577D01*
Y-495D01*
X17623D01*
Y-5D01*
X18095Y9577D02*
Y9623D01*
X17605D01*
Y9577D01*
X18095D01*
X18090Y9582D02*
Y9618D01*
X17610D01*
Y9582D01*
X18090D01*
G54D11*
X18080Y9592D02*
Y9608D01*
X17620D01*
Y9592D01*
X18080D01*
X18080Y9600D02*
X17620D01*
G54D10*
X18095Y9577D02*
Y9623D01*
X17605D01*
Y9577D01*
X18095D01*
X17577Y9605D02*
X17623D01*
Y10095D01*
X17577D01*
Y9605D01*
X17582Y9610D02*
X17618D01*
Y10090D01*
X17582D01*
Y9610D01*
G54D11*
X17592Y9620D02*
X17608D01*
Y10080D01*
X17592D01*
Y9620D01*
X17600Y10080D02*
Y9620D01*
G54D10*
X17577Y9605D02*
X17623D01*
Y10095D01*
X17577D01*
Y9605D01*
X-495Y9623D02*
Y9577D01*
X-5D01*
Y9623D01*
X-495D01*
X-490Y9618D02*
Y9582D01*
X-10D01*
Y9618D01*
X-490D01*
G54D11*
X-480Y9608D02*
Y9592D01*
X-20D01*
Y9608D01*
X-480D01*
X-20Y9600D02*
X-480D01*
G54D10*
X-495Y9623D02*
Y9577D01*
X-5D01*
Y9623D01*
X-495D01*
X-23Y9605D02*
X23D01*
Y10095D01*
X-23D01*
Y9605D01*
X-18Y9610D02*
X18D01*
Y10090D01*
X-18D01*
Y9610D01*
G54D11*
X-8Y9620D02*
X8D01*
Y10080D01*
X-8D01*
Y9620D01*
X0Y10080D02*
Y9620D01*
G54D10*
X-23Y9605D02*
X23D01*
Y10095D01*
X-23D01*
Y9605D01*
G54D38*
X18050Y10050D03*
X-450D03*
X18050Y-450D03*
G54D10*
X12536Y3215D02*
X12535Y3125D01*
X12505D01*
Y5D01*
X12695D01*
Y3125D01*
X12665D01*
Y3212D01*
X12657Y3232D01*
X12645Y3247D01*
X12629Y3259D01*
X12610Y3265D01*
X12591D01*
X12572Y3260D01*
X12556Y3248D01*
X12543Y3233D01*
X12536Y3215D01*
X12541Y3214D02*
X12540Y3120D01*
X12510D01*
Y10D01*
X12690D01*
Y3120D01*
X12660D01*
Y3211D01*
X12653Y3229D01*
X12642Y3243D01*
X12627Y3254D01*
X12610Y3260D01*
X12593D01*
X12575Y3255D01*
X12560Y3245D01*
X12548Y3231D01*
X12541Y3214D01*
G54D11*
X12551Y3212D02*
X12550Y3110D01*
X12520D01*
Y20D01*
X12680D01*
Y3110D01*
X12650D01*
Y3209D01*
X12645Y3223D01*
X12637Y3235D01*
X12624Y3245D01*
X12610Y3250D01*
X12595Y3251D01*
X12581Y3247D01*
X12567Y3239D01*
X12557Y3228D01*
X12551Y3212D01*
G54D12*
X12571Y3208D02*
X12569Y3090D01*
X12540D01*
Y40D01*
X12660D01*
Y3090D01*
X12630D01*
X12631Y3203D01*
X12629Y3211D01*
X12624Y3219D01*
X12618Y3226D01*
X12609Y3230D01*
X12600Y3231D01*
X12591Y3230D01*
X12582Y3226D01*
X12575Y3217D01*
X12571Y3208D01*
X12600Y3231D02*
Y40D01*
X12562D02*
Y3090D01*
X12638D02*
Y40D01*
G54D10*
X12536Y3215D02*
X12535Y3125D01*
X12505D01*
Y5D01*
X12695D01*
Y3125D01*
X12665D01*
Y3212D01*
X12657Y3232D01*
X12645Y3247D01*
X12629Y3259D01*
X12610Y3265D01*
X12591D01*
X12572Y3260D01*
X12556Y3248D01*
X12543Y3233D01*
X12536Y3215D01*
X12664Y6385D02*
X12665Y6475D01*
X12695D01*
Y9595D01*
X12505D01*
Y6475D01*
X12535D01*
Y6388D01*
X12543Y6368D01*
X12555Y6353D01*
X12571Y6341D01*
X12590Y6335D01*
X12609D01*
X12628Y6340D01*
X12644Y6352D01*
X12657Y6367D01*
X12664Y6385D01*
X12659Y6386D02*
X12660Y6480D01*
X12690D01*
Y9590D01*
X12510D01*
Y6480D01*
X12540D01*
Y6389D01*
X12547Y6371D01*
X12558Y6357D01*
X12573Y6346D01*
X12590Y6340D01*
X12607D01*
X12625Y6345D01*
X12640Y6355D01*
X12652Y6369D01*
X12659Y6386D01*
G54D11*
X12649Y6388D02*
X12650Y6490D01*
X12680D01*
Y9580D01*
X12520D01*
Y6490D01*
X12550D01*
Y6391D01*
X12555Y6377D01*
X12563Y6365D01*
X12576Y6355D01*
X12590Y6350D01*
X12605Y6349D01*
X12619Y6353D01*
X12633Y6361D01*
X12643Y6372D01*
X12649Y6388D01*
G54D12*
X12629Y6392D02*
X12631Y6510D01*
X12660D01*
Y9560D01*
X12540D01*
Y6510D01*
X12570D01*
X12569Y6397D01*
X12571Y6389D01*
X12576Y6381D01*
X12582Y6374D01*
X12591Y6370D01*
X12600Y6369D01*
X12609Y6370D01*
X12618Y6374D01*
X12625Y6383D01*
X12629Y6392D01*
X12600Y9560D02*
Y6369D01*
X12562Y6510D02*
Y9560D01*
X12638D02*
Y6510D01*
G54D10*
X12664Y6385D02*
X12665Y6475D01*
X12695D01*
Y9595D01*
X12505D01*
Y6475D01*
X12535D01*
Y6388D01*
X12543Y6368D01*
X12555Y6353D01*
X12571Y6341D01*
X12590Y6335D01*
X12609D01*
X12628Y6340D01*
X12644Y6352D01*
X12657Y6367D01*
X12664Y6385D01*
X3895Y1675D02*
Y7925D01*
X3705D01*
Y1675D01*
X3895D01*
X3890Y1680D02*
Y7920D01*
X3710D01*
Y1680D01*
X3890D01*
G54D11*
X3880Y1690D02*
Y7910D01*
X3720D01*
Y1690D01*
X3880D01*
G54D12*
X3860Y1710D02*
Y7890D01*
X3740D01*
Y1710D01*
X3860D01*
G54D13*
X3820Y1750D02*
Y7850D01*
X3780D01*
Y1750D01*
X3820D01*
X3800Y7850D02*
Y1750D01*
G54D10*
X3895Y1675D02*
Y7925D01*
X3705D01*
Y1675D01*
X3895D01*
X4005Y7925D02*
Y1675D01*
X6545D01*
Y7925D01*
X4005D01*
X4010Y7920D02*
Y1680D01*
X6540D01*
Y7920D01*
X4010D01*
G54D11*
X4020Y7910D02*
Y1690D01*
X6530D01*
Y7910D01*
X4020D01*
G54D12*
X4040Y7890D02*
Y1710D01*
X6510D01*
Y7890D01*
X4040D01*
G54D13*
X4080Y7850D02*
Y1750D01*
X6470D01*
Y7850D01*
X4080D01*
G54D14*
X4155Y7775D02*
Y1825D01*
X6395D01*
Y7775D01*
X4155D01*
G54D15*
X4280Y7650D02*
Y1950D01*
X6270D01*
Y7650D01*
X4280D01*
G54D16*
X4480Y7450D02*
Y2150D01*
X6070D01*
Y7450D01*
X4480D01*
G54D21*
X4880Y7050D02*
Y2550D01*
X5670D01*
Y7050D01*
X4880D01*
X5275Y7050D02*
Y2550D01*
G54D10*
X4005Y7925D02*
Y1675D01*
X6545D01*
Y7925D01*
X4005D01*
X3595D02*
X1055D01*
Y1675D01*
X3595D01*
Y7925D01*
X3590Y7920D02*
X1060D01*
Y1680D01*
X3590D01*
Y7920D01*
G54D11*
X3580Y7910D02*
X1070D01*
Y1690D01*
X3580D01*
Y7910D01*
G54D12*
X3560Y7890D02*
X1090D01*
Y1710D01*
X3560D01*
Y7890D01*
G54D13*
X3520Y7850D02*
X1130D01*
Y1750D01*
X3520D01*
Y7850D01*
G54D14*
X3445Y7775D02*
X1205D01*
Y1825D01*
X3445D01*
Y7775D01*
G54D15*
X3320Y7650D02*
X1330D01*
Y1950D01*
X3320D01*
Y7650D01*
G54D16*
X3120Y7450D02*
X1530D01*
Y2150D01*
X3120D01*
Y7450D01*
G54D21*
X2720Y7050D02*
X1930D01*
Y2550D01*
X2720D01*
Y7050D01*
X2325Y7050D02*
Y2550D01*
G54D10*
X3595Y7925D02*
X1055D01*
Y1675D01*
X3595D01*
Y7925D01*
X6830Y7102D02*
X6920D01*
Y7468D01*
X7430D01*
Y7192D01*
X6930D01*
Y7102D01*
X7520D01*
Y7558D01*
X6830D01*
Y7102D01*
X6835Y7107D02*
X6915D01*
Y7473D01*
X7435D01*
Y7187D01*
X6935D01*
Y7107D01*
X7515D01*
Y7553D01*
X6835D01*
Y7107D01*
G54D11*
X6845Y7117D02*
X6905D01*
Y7483D01*
X7445D01*
Y7177D01*
X6945D01*
Y7117D01*
X7505D01*
Y7543D01*
X6845D01*
Y7117D01*
G54D12*
X6865Y7137D02*
X6885D01*
Y7503D01*
X7465D01*
Y7157D01*
X6965D01*
Y7137D01*
X7485D01*
Y7523D01*
X6865D01*
Y7137D01*
X6865Y7523D02*
X6885Y7503D01*
X6875Y7513D02*
Y7137D01*
X7465Y7157D02*
X7485Y7137D01*
X7475Y7147D02*
X6965D01*
X7485Y7523D02*
X7465Y7503D01*
X7475Y7513D02*
X6875D01*
X6885Y7330D02*
X6865D01*
X7465D02*
X7485D01*
X6885Y7368D02*
X6865D01*
X7465D02*
X7485D01*
X6885Y7406D02*
X6865D01*
X7465D02*
X7485D01*
X6885Y7444D02*
X6865D01*
X7465D02*
X7485D01*
X6885Y7482D02*
X6865D01*
X7465D02*
X7485D01*
Y7520D02*
X6865D01*
Y7292D02*
X6885D01*
X7465D02*
X7485D01*
X6885Y7254D02*
X6865D01*
X7465D02*
X7485D01*
X6885Y7216D02*
X6865D01*
X7465D02*
X7485D01*
X6885Y7178D02*
X6865D01*
X7465D02*
X7485D01*
X6885Y7140D02*
X6865D01*
X6965D02*
X7485D01*
G54D10*
X6830Y7558D02*
Y7102D01*
X7520D01*
Y7558D01*
X6830D01*
X6920Y7468D02*
X7430D01*
Y7192D01*
X6920D01*
Y7468D01*
X6830Y2415D02*
Y2125D01*
X6920D01*
Y2225D01*
X7430D01*
Y2125D01*
X7520D01*
Y2415D01*
X7430D01*
Y2315D01*
X6920D01*
Y2415D01*
X6830D01*
X6835Y2410D02*
Y2130D01*
X6915D01*
Y2230D01*
X7435D01*
Y2130D01*
X7515D01*
Y2410D01*
X7435D01*
Y2310D01*
X6915D01*
Y2410D01*
X6835D01*
G54D11*
X6845Y2400D02*
Y2140D01*
X6905D01*
Y2240D01*
X7445D01*
Y2140D01*
X7505D01*
Y2400D01*
X7445D01*
Y2300D01*
X6905D01*
Y2400D01*
X6845D01*
G54D12*
X6865Y2380D02*
Y2160D01*
X6885D01*
Y2260D01*
X7465D01*
Y2160D01*
X7485D01*
Y2380D01*
X7465D01*
Y2280D01*
X6885D01*
Y2380D01*
X6865D01*
X7485Y2270D02*
X6865D01*
Y2308D02*
X6885D01*
X7465D02*
X7485D01*
X6885Y2346D02*
X6865D01*
X7465D02*
X7485D01*
X6885Y2232D02*
X6865D01*
X7465D02*
X7485D01*
X6885Y2194D02*
X6865D01*
X7465D02*
X7485D01*
G54D10*
X6830Y2415D02*
Y2125D01*
X6920D01*
Y2225D01*
X7430D01*
Y2125D01*
X7520D01*
Y2415D01*
X7430D01*
Y2315D01*
X6920D01*
Y2415D01*
X6830D01*
X6832Y4402D02*
X6942Y4290D01*
X7006Y4354D01*
X6922Y4439D01*
Y4594D01*
X6982Y4655D01*
X7020D01*
X7176Y4499D01*
X7331Y4655D01*
X7369D01*
X7430Y4594D01*
Y4439D01*
X7345Y4354D01*
X7408Y4290D01*
X7520Y4402D01*
Y4631D01*
X7406Y4745D01*
X7294D01*
X7176Y4626D01*
X7057Y4745D01*
X6945D01*
X6832Y4631D01*
Y4402D01*
X6837Y4404D02*
X6942Y4297D01*
X6999Y4354D01*
X6917Y4437D01*
Y4596D01*
X6980Y4660D01*
X7022D01*
X7176Y4506D01*
X7329Y4660D01*
X7371D01*
X7435Y4596D01*
Y4437D01*
X7352Y4354D01*
X7408Y4297D01*
X7515Y4404D01*
Y4629D01*
X7404Y4740D01*
X7296D01*
X7176Y4619D01*
X7055Y4740D01*
X6947D01*
X6837Y4629D01*
Y4404D01*
G54D11*
X6847Y4408D02*
X6942Y4311D01*
X6985Y4354D01*
X6907Y4433D01*
Y4600D01*
X6976Y4670D01*
X7026D01*
X7176Y4520D01*
X7325Y4670D01*
X7375D01*
X7445Y4600D01*
Y4433D01*
X7366Y4354D01*
X7408Y4311D01*
X7505Y4408D01*
Y4624D01*
X7400Y4730D01*
X7300D01*
X7176Y4605D01*
X7051Y4730D01*
X6951D01*
X6847Y4625D01*
Y4408D01*
G54D12*
X6867Y4416D02*
X6942Y4340D01*
X6957Y4354D01*
X6887Y4425D01*
Y4608D01*
X6968Y4690D01*
X7034D01*
X7176Y4548D01*
X7317Y4690D01*
X7383D01*
X7465Y4608D01*
Y4424D01*
X7394Y4354D01*
X7408Y4340D01*
X7485Y4416D01*
Y4616D01*
X7392Y4710D01*
X7309D01*
X7176Y4577D01*
X7043Y4710D01*
X6960D01*
X6867Y4617D01*
Y4416D01*
X6867Y4417D02*
X6887Y4425D01*
X6929Y4382D02*
X6900D01*
X6908Y4403D02*
X6880D01*
X6921Y4361D02*
X6949D01*
X7176Y4577D02*
Y4548D01*
X7138Y4586D02*
Y4615D01*
X7100Y4624D02*
Y4653D01*
X7062Y4662D02*
Y4691D01*
X7024Y4690D02*
Y4710D01*
X6986D02*
Y4690D01*
X6948Y4363D02*
Y4345D01*
Y4669D02*
Y4698D01*
X6910Y4402D02*
Y4373D01*
Y4631D02*
Y4660D01*
X6872Y4622D02*
Y4412D01*
X7214Y4586D02*
Y4615D01*
X7252Y4624D02*
Y4653D01*
X7290Y4662D02*
Y4691D01*
X7328Y4690D02*
Y4710D01*
X7366D02*
Y4690D01*
X7404Y4363D02*
Y4344D01*
Y4669D02*
Y4698D01*
X7442Y4401D02*
Y4373D01*
Y4631D02*
Y4660D01*
X7480Y4621D02*
Y4411D01*
G54D10*
X6832Y4402D02*
X6942Y4290D01*
X7006Y4354D01*
X6922Y4439D01*
Y4594D01*
X6982Y4655D01*
X7020D01*
X7176Y4499D01*
X7331Y4655D01*
X7369D01*
X7430Y4594D01*
Y4439D01*
X7345Y4354D01*
X7408Y4290D01*
X7520Y4402D01*
Y4631D01*
X7406Y4745D01*
X7294D01*
X7176Y4626D01*
X7057Y4745D01*
X6945D01*
X6832Y4631D01*
Y4402D01*
X7406Y3722D02*
X7520Y3835D01*
Y4064D01*
X7406Y4178D01*
X6944D01*
X6831Y4065D01*
Y3836D01*
X6944Y3722D01*
X7362D01*
Y3812D01*
X6981D01*
X6921Y3873D01*
Y4027D01*
X6981Y4088D01*
X7369D01*
X7430Y4027D01*
Y3872D01*
X7372Y3815D01*
Y3722D01*
X7406D01*
X7404Y3727D02*
X7515Y3837D01*
Y4062D01*
X7404Y4173D01*
X6946D01*
X6836Y4063D01*
Y3838D01*
X6946Y3727D01*
X7357D01*
Y3807D01*
X6979D01*
X6916Y3871D01*
Y4029D01*
X6979Y4093D01*
X7371D01*
X7435Y4029D01*
Y3870D01*
X7377Y3813D01*
Y3727D01*
X7404D01*
G54D11*
X7400Y3737D02*
X7505Y3841D01*
Y4058D01*
X7400Y4163D01*
X6950D01*
X6846Y4058D01*
Y3842D01*
X6950Y3737D01*
X7347D01*
Y3797D01*
X6975D01*
X6906Y3867D01*
Y4034D01*
X6975Y4103D01*
X7375D01*
X7445Y4033D01*
Y3866D01*
X7387Y3809D01*
Y3737D01*
X7400D01*
X7406Y3814D02*
X7485Y3836D01*
X7452Y3789D02*
X7387D01*
Y3799D02*
X7463D01*
X7473Y3810D02*
X7392D01*
X7430Y3820D02*
X7484D01*
X7494Y3831D02*
X7468D01*
X7442Y3778D02*
X7387D01*
Y3768D02*
X7431D01*
X7421Y3757D02*
X7387D01*
Y3747D02*
X7410D01*
X6906Y3950D02*
X6846D01*
X7445D02*
X7505D01*
X6906Y3969D02*
X6846D01*
X7445D02*
X7505D01*
X6906Y3988D02*
X6846D01*
X7445D02*
X7505D01*
X6906Y4007D02*
X6846D01*
X7445D02*
X7505D01*
X6906Y4026D02*
X6846D01*
X7445D02*
X7505D01*
X6917Y4045D02*
X6846D01*
X7433D02*
X7505D01*
X6936Y4064D02*
X6851D01*
X7414D02*
X7499D01*
X6955Y4083D02*
X6870D01*
X7395D02*
X7480D01*
X6974Y4102D02*
X6889D01*
X7376D02*
X7461D01*
X7442Y4121D02*
X6908D01*
X6927Y4140D02*
X7423D01*
X7404Y4159D02*
X6946D01*
X6906Y3931D02*
X6846D01*
X7445D02*
X7505D01*
X6906Y3912D02*
X6846D01*
X7445D02*
X7505D01*
X6906Y3893D02*
X6846D01*
X7445D02*
X7505D01*
X6906Y3874D02*
X6846D01*
X7445D02*
X7505D01*
X6917Y3855D02*
X6846D01*
X7433D02*
X7505D01*
X6936Y3836D02*
X6851D01*
X7414D02*
X7499D01*
X6955Y3817D02*
X6870D01*
X7395D02*
X7480D01*
X6974Y3798D02*
X6889D01*
X7387D02*
X7461D01*
X7347Y3779D02*
X6908D01*
X7387D02*
X7442D01*
X7347Y3760D02*
X6927D01*
X7387D02*
X7423D01*
X7347Y3741D02*
X6946D01*
X7387D02*
X7404D01*
G54D10*
X6831Y4065D02*
Y3836D01*
X6944Y3722D01*
X7406D01*
X7520Y3835D01*
Y4064D01*
X7406Y4178D01*
X6944D01*
X6831Y4065D01*
X6921Y4027D02*
X6981Y4088D01*
X7369D01*
X7430Y4027D01*
Y3872D01*
X7369Y3812D01*
X6981D01*
X6921Y3873D01*
Y4027D01*
X6832Y4969D02*
X6942Y4857D01*
X7006Y4920D01*
X6922Y5006D01*
Y5161D01*
X6982Y5221D01*
X7020D01*
X7176Y5065D01*
X7331Y5221D01*
X7369D01*
X7430Y5160D01*
Y5005D01*
X7345Y4921D01*
X7408Y4857D01*
X7520Y4968D01*
Y5197D01*
X7406Y5311D01*
X7294D01*
X7176Y5193D01*
X7057Y5311D01*
X6945D01*
X6832Y5198D01*
Y4969D01*
X6837Y4971D02*
X6942Y4864D01*
X6999Y4920D01*
X6917Y5004D01*
Y5163D01*
X6980Y5226D01*
X7022D01*
X7176Y5072D01*
X7329Y5226D01*
X7371D01*
X7435Y5162D01*
Y5003D01*
X7352Y4921D01*
X7408Y4864D01*
X7515Y4970D01*
Y5195D01*
X7404Y5306D01*
X7296D01*
X7176Y5186D01*
X7055Y5306D01*
X6947D01*
X6837Y5196D01*
Y4971D01*
G54D11*
X6847Y4975D02*
X6942Y4878D01*
X6985Y4920D01*
X6907Y4999D01*
Y5167D01*
X6976Y5236D01*
X7026D01*
X7176Y5087D01*
X7325Y5236D01*
X7375D01*
X7445Y5166D01*
Y4999D01*
X7366Y4921D01*
X7408Y4878D01*
X7505Y4974D01*
Y5191D01*
X7400Y5296D01*
X7300D01*
X7176Y5172D01*
X7051Y5296D01*
X6951D01*
X6847Y5192D01*
Y4975D01*
G54D12*
X6867Y4983D02*
X6942Y4906D01*
X6957Y4920D01*
X6887Y4991D01*
Y5175D01*
X6968Y5256D01*
X7034D01*
X7176Y5115D01*
X7317Y5256D01*
X7383D01*
X7465Y5175D01*
Y4991D01*
X7394Y4921D01*
X7408Y4906D01*
X7485Y4983D01*
Y5183D01*
X7392Y5276D01*
X7309D01*
X7176Y5143D01*
X7043Y5276D01*
X6960D01*
X6867Y5183D01*
Y4983D01*
X6867Y4983D02*
X6887Y4991D01*
X6929Y4949D02*
X6900D01*
X6908Y4970D02*
X6880D01*
X6921Y4928D02*
X6949D01*
X7176Y5143D02*
Y5115D01*
X7138Y5153D02*
Y5181D01*
X7100Y5191D02*
Y5219D01*
X7062Y5229D02*
Y5258D01*
X7024Y5256D02*
Y5276D01*
X6986D02*
Y5256D01*
X6948Y4930D02*
Y4912D01*
Y5236D02*
Y5264D01*
X6910Y4968D02*
Y4940D01*
Y5198D02*
Y5226D01*
X6872Y5188D02*
Y4978D01*
X7214Y5153D02*
Y5181D01*
X7252Y5191D02*
Y5219D01*
X7290Y5229D02*
Y5257D01*
X7328Y5256D02*
Y5276D01*
X7366D02*
Y5256D01*
X7404Y4930D02*
Y4911D01*
Y5236D02*
Y5264D01*
X7442Y4968D02*
Y4940D01*
Y5198D02*
Y5226D01*
X7480Y5188D02*
Y4978D01*
G54D10*
X6832Y4969D02*
X6942Y4857D01*
X7006Y4920D01*
X6922Y5006D01*
Y5161D01*
X6982Y5221D01*
X7020D01*
X7176Y5065D01*
X7331Y5221D01*
X7369D01*
X7430Y5160D01*
Y5005D01*
X7345Y4921D01*
X7408Y4857D01*
X7520Y4968D01*
Y5197D01*
X7406Y5311D01*
X7294D01*
X7176Y5193D01*
X7057Y5311D01*
X6945D01*
X6832Y5198D01*
Y4969D01*
X6942Y5423D02*
X7006Y5487D01*
X6921Y5572D01*
Y5727D01*
X6994Y5787D01*
X7044D01*
X7142Y5719D01*
Y5535D01*
X7293Y5421D01*
X7520D01*
Y5878D01*
X7430D01*
Y5512D01*
X7306D01*
X7233Y5572D01*
Y5773D01*
X7094Y5877D01*
X6944D01*
X6831Y5764D01*
Y5535D01*
X6942Y5423D01*
Y5430D02*
X6999Y5487D01*
X6916Y5570D01*
Y5729D01*
X6993Y5792D01*
X7045D01*
X7147Y5722D01*
Y5538D01*
X7295Y5426D01*
X7515D01*
Y5873D01*
X7435D01*
Y5507D01*
X7304D01*
X7228Y5569D01*
Y5771D01*
X7093Y5872D01*
X6946D01*
X6836Y5762D01*
Y5537D01*
X6942Y5430D01*
G54D11*
Y5445D02*
X6985Y5487D01*
X6906Y5566D01*
Y5734D01*
X6989Y5802D01*
X7048D01*
X7157Y5727D01*
Y5543D01*
X7298Y5436D01*
X7505D01*
Y5863D01*
X7445D01*
Y5497D01*
X7301D01*
X7218Y5565D01*
Y5766D01*
X7089Y5862D01*
X6951D01*
X6846Y5758D01*
Y5541D01*
X6942Y5445D01*
G54D12*
Y5473D02*
X6956Y5487D01*
X6886Y5558D01*
Y5743D01*
X6982Y5822D01*
X7055D01*
X7177Y5738D01*
Y5553D01*
X7305Y5456D01*
X7485D01*
Y5843D01*
X7465D01*
Y5477D01*
X7293D01*
X7198Y5555D01*
Y5756D01*
X7083Y5842D01*
X6959D01*
X6866Y5749D01*
Y5549D01*
X6942Y5473D01*
X6866Y5549D02*
X6886Y5558D01*
X6928Y5515D02*
X6900D01*
X6907Y5536D02*
X6879D01*
X6921Y5494D02*
X6949D01*
X7485Y5456D02*
X7465Y5477D01*
X7475Y5843D02*
Y5466D01*
X6866Y5749D02*
X6886Y5743D01*
X6876Y5746D02*
Y5553D01*
X7175Y5773D02*
Y5739D01*
X7137Y5765D02*
Y5801D01*
X7099Y5792D02*
Y5830D01*
X7061Y5818D02*
Y5842D01*
X7023D02*
Y5822D01*
X6985D02*
Y5842D01*
X6947Y5496D02*
Y5478D01*
Y5794D02*
Y5831D01*
X6909Y5534D02*
Y5506D01*
Y5763D02*
Y5793D01*
X6871Y5755D02*
Y5544D01*
X7213Y5542D02*
Y5526D01*
X7251Y5511D02*
Y5497D01*
X7289Y5480D02*
Y5468D01*
X7327Y5477D02*
Y5456D01*
X7365D02*
Y5477D01*
X7403D02*
Y5456D01*
X7441D02*
Y5477D01*
X7479Y5456D02*
Y5843D01*
G54D10*
X6942Y5423D02*
X7006Y5487D01*
X6921Y5572D01*
Y5727D01*
X6994Y5787D01*
X7044D01*
X7142Y5719D01*
Y5535D01*
X7293Y5421D01*
X7520D01*
Y5878D01*
X7430D01*
Y5512D01*
X7306D01*
X7233Y5572D01*
Y5773D01*
X7094Y5877D01*
X6944D01*
X6831Y5764D01*
Y5535D01*
X6942Y5423D01*
X173Y4182D02*
X284D01*
Y5307D01*
X663D01*
Y4293D01*
X294D01*
Y4182D01*
X774D01*
Y4268D01*
X945D01*
Y4379D01*
X774D01*
Y4585D01*
X945D01*
Y4697D01*
X774D01*
Y4903D01*
X945D01*
Y5015D01*
X774D01*
Y5221D01*
X945D01*
Y5332D01*
X774D01*
Y5418D01*
X173D01*
Y4182D01*
X178Y4187D02*
X279D01*
Y5312D01*
X668D01*
Y4288D01*
X299D01*
Y4187D01*
X769D01*
Y4273D01*
X940D01*
Y4374D01*
X769D01*
Y4590D01*
X940D01*
Y4692D01*
X769D01*
Y4908D01*
X940D01*
Y5010D01*
X769D01*
Y5226D01*
X940D01*
Y5327D01*
X769D01*
Y5413D01*
X178D01*
Y4187D01*
G54D11*
X188Y4197D02*
X269D01*
Y5322D01*
X678D01*
Y4278D01*
X309D01*
Y4197D01*
X759D01*
Y4283D01*
X930D01*
Y4364D01*
X759D01*
Y4600D01*
X930D01*
Y4682D01*
X759D01*
Y4918D01*
X930D01*
Y5000D01*
X759D01*
Y5236D01*
X930D01*
Y5317D01*
X759D01*
Y5403D01*
X188D01*
Y4197D01*
G54D12*
X208Y4217D02*
X249D01*
Y5342D01*
X698D01*
Y4258D01*
X329D01*
Y4217D01*
X739D01*
Y4303D01*
X910D01*
Y4344D01*
X739D01*
Y4620D01*
X910D01*
Y4662D01*
X739D01*
Y4938D01*
X910D01*
Y4980D01*
X739D01*
Y5256D01*
X910D01*
Y5297D01*
X739D01*
Y5383D01*
X208D01*
Y4217D01*
X236Y5355D02*
X221Y5370D01*
X229Y5363D02*
Y4217D01*
X726Y4230D02*
X711Y4245D01*
X718Y4237D02*
X329D01*
X739Y4343D02*
Y4304D01*
X910Y4323D02*
X739D01*
Y4660D02*
Y4622D01*
X910Y4641D02*
X739D01*
Y4978D02*
Y4940D01*
X910Y4959D02*
X739D01*
Y5296D02*
Y5257D01*
X910Y5277D02*
X739D01*
X228Y4237D02*
X229D01*
Y5362D01*
X718D01*
Y4238D01*
X349D01*
Y4237D01*
X719D01*
Y4323D01*
X890D01*
Y4324D01*
X719D01*
Y4640D01*
X890D01*
Y4642D01*
X719D01*
Y4958D01*
X890D01*
Y4960D01*
X719D01*
Y5276D01*
X890D01*
Y5277D01*
X719D01*
Y5363D01*
X228D01*
Y4237D01*
X228Y5363D02*
X229Y5362D01*
X718Y4238D02*
X719Y4237D01*
Y4323D02*
Y4324D01*
Y4640D02*
Y4642D01*
Y4958D02*
Y4960D01*
Y5276D02*
Y5277D01*
Y5363D02*
X718Y5362D01*
G54D10*
X173Y4182D02*
X774D01*
Y4268D01*
X945D01*
Y4379D01*
X774D01*
Y4585D01*
X945D01*
Y4697D01*
X774D01*
Y4903D01*
X945D01*
Y5015D01*
X774D01*
Y5221D01*
X945D01*
Y5332D01*
X774D01*
Y5418D01*
X173D01*
Y4182D01*
X284Y5307D02*
X663D01*
Y4293D01*
X284D01*
Y5307D01*
G54D12*
X0Y-4550D02*
Y-4200D01*
X175D01*
X250Y-4217D01*
X300Y-4250D01*
X325Y-4283D01*
X350Y-4333D01*
Y-4417D01*
X325Y-4467D01*
X300Y-4500D01*
X250Y-4533D01*
X175Y-4550D01*
X0D01*
X525D02*
Y-4200D01*
X750D01*
X825Y-4217D01*
X850Y-4233D01*
X875Y-4267D01*
Y-4300D01*
X850Y-4333D01*
X825Y-4350D01*
X750Y-4367D01*
X525D01*
X700D02*
X875Y-4550D01*
X1050D02*
X1250Y-4200D01*
X1450Y-4550D01*
X1125Y-4433D02*
X1375D01*
X1600Y-4200D02*
X1725Y-4550D01*
X1850Y-4200D01*
X1975Y-4550D01*
X2100Y-4200D01*
X2200Y-4550D02*
Y-4200D01*
X2550Y-4550D01*
Y-4200D01*
X3225Y-4550D02*
Y-4200D01*
X3450D01*
X3525Y-4217D01*
X3550Y-4233D01*
X3575Y-4267D01*
Y-4300D01*
X3550Y-4333D01*
X3525Y-4350D01*
X3450Y-4367D01*
X3225D02*
X3450D01*
X3525Y-4383D01*
X3550Y-4400D01*
X3575Y-4433D01*
Y-4483D01*
X3550Y-4517D01*
X3525Y-4533D01*
X3450Y-4550D01*
X3225D01*
X3750Y-4200D02*
X3950Y-4367D01*
X4150Y-4200D01*
X3950Y-4367D02*
Y-4550D01*
X4275Y-4317D02*
X4250Y-4333D01*
X4275Y-4350D01*
X4300Y-4333D01*
X4275Y-4317D01*
Y-4517D02*
X4250Y-4533D01*
X4275Y-4550D01*
X4300Y-4533D01*
X4275Y-4517D01*
X5100Y-4550D02*
Y-4200D01*
X5275D01*
X5350Y-4217D01*
X5400Y-4250D01*
X5425Y-4283D01*
X5450Y-4333D01*
Y-4417D01*
X5425Y-4467D01*
X5400Y-4500D01*
X5350Y-4533D01*
X5275Y-4550D01*
X5100D01*
X5625D02*
Y-4200D01*
X5800D01*
X5875Y-4217D01*
X5925Y-4250D01*
X5950Y-4283D01*
X5975Y-4333D01*
Y-4417D01*
X5950Y-4467D01*
X5925Y-4500D01*
X5875Y-4533D01*
X5800Y-4550D01*
X5625D01*
X6150D02*
Y-4200D01*
X6375D01*
X6450Y-4217D01*
X6475Y-4233D01*
X6500Y-4267D01*
Y-4300D01*
X6475Y-4333D01*
X6450Y-4350D01*
X6375Y-4367D01*
X6150D01*
X6325D02*
X6500Y-4550D01*
X6725Y-4533D02*
X6700Y-4550D01*
X6675Y-4533D01*
X6700Y-4517D01*
X6725Y-4533D01*
Y-4567D01*
X6700Y-4600D01*
X6675Y-4617D01*
X7400Y-4550D02*
Y-4200D01*
X7575D01*
X7650Y-4217D01*
X7700Y-4250D01*
X7725Y-4283D01*
X7750Y-4333D01*
Y-4417D01*
X7725Y-4467D01*
X7700Y-4500D01*
X7650Y-4533D01*
X7575Y-4550D01*
X7400D01*
X7925D02*
X8125Y-4200D01*
X8325Y-4550D01*
X8000Y-4433D02*
X8250D01*
X8650Y-4200D02*
Y-4550D01*
X8475Y-4200D02*
X8825D01*
X8925Y-4550D02*
Y-4200D01*
X9250D01*
X8925Y-4367D02*
X9125D01*
X8925Y-4550D02*
X9250D01*
X9425Y-4317D02*
X9400Y-4333D01*
X9425Y-4350D01*
X9450Y-4333D01*
X9425Y-4317D01*
Y-4517D02*
X9400Y-4533D01*
X9425Y-4550D01*
X9450Y-4533D01*
X9425Y-4517D01*
X10250Y-4267D02*
X10300Y-4250D01*
X10375Y-4200D01*
Y-4550D01*
X10700Y-4200D02*
X10975D01*
X10825Y-4333D01*
X10900D01*
X10950Y-4350D01*
X10975Y-4367D01*
X11000Y-4417D01*
Y-4450D01*
X10975Y-4500D01*
X10925Y-4533D01*
X10850Y-4550D01*
X10775D01*
X10700Y-4533D01*
X10675Y-4517D01*
X10650Y-4483D01*
X11600Y-4133D02*
X11150Y-4667D01*
X11700Y-4550D02*
X11900Y-4200D01*
X12100Y-4550D01*
X11775Y-4433D02*
X12025D01*
X12250Y-4550D02*
Y-4200D01*
X12475D01*
X12550Y-4217D01*
X12575Y-4233D01*
X12600Y-4267D01*
Y-4317D01*
X12575Y-4350D01*
X12550Y-4367D01*
X12475Y-4383D01*
X12250D01*
X12775Y-4550D02*
Y-4200D01*
X13000D01*
X13075Y-4217D01*
X13100Y-4233D01*
X13125Y-4267D01*
Y-4300D01*
X13100Y-4333D01*
X13075Y-4350D01*
X13000Y-4367D01*
X12775D01*
X12950D02*
X13125Y-4550D01*
X13750Y-4133D02*
X13300Y-4667D01*
X13875Y-4283D02*
Y-4267D01*
X13900Y-4233D01*
X13925Y-4217D01*
X13975Y-4200D01*
X14075D01*
X14125Y-4217D01*
X14150Y-4233D01*
X14175Y-4267D01*
Y-4300D01*
X14150Y-4333D01*
X14100Y-4383D01*
X13850Y-4550D01*
X14200D01*
X14350Y-4267D02*
X14400Y-4250D01*
X14475Y-4200D01*
Y-4550D01*
X0Y-3850D02*
Y-3500D01*
X225D01*
X300Y-3517D01*
X325Y-3533D01*
X350Y-3567D01*
Y-3617D01*
X325Y-3650D01*
X300Y-3667D01*
X225Y-3683D01*
X0D01*
X900Y-3583D02*
X875Y-3550D01*
X825Y-3517D01*
X775Y-3500D01*
X675D01*
X625Y-3517D01*
X575Y-3550D01*
X550Y-3583D01*
X525Y-3633D01*
Y-3717D01*
X550Y-3767D01*
X575Y-3800D01*
X625Y-3833D01*
X675Y-3850D01*
X775D01*
X825Y-3833D01*
X875Y-3800D01*
X900Y-3767D01*
X1050Y-3850D02*
Y-3500D01*
X1275D01*
X1350Y-3517D01*
X1375Y-3533D01*
X1400Y-3567D01*
Y-3600D01*
X1375Y-3633D01*
X1350Y-3650D01*
X1275Y-3667D01*
X1050D02*
X1275D01*
X1350Y-3683D01*
X1375Y-3700D01*
X1400Y-3733D01*
Y-3783D01*
X1375Y-3817D01*
X1350Y-3833D01*
X1275Y-3850D01*
X1050D01*
X2050D02*
Y-3500D01*
X2275D01*
X2350Y-3517D01*
X2375Y-3533D01*
X2400Y-3567D01*
Y-3617D01*
X2375Y-3650D01*
X2350Y-3667D01*
X2275Y-3683D01*
X2050D01*
X3025Y-3433D02*
X2575Y-3967D01*
X3125Y-3850D02*
Y-3500D01*
X3475Y-3850D01*
Y-3500D01*
X3700Y-3617D02*
X3675Y-3633D01*
X3700Y-3650D01*
X3725Y-3633D01*
X3700Y-3617D01*
Y-3817D02*
X3675Y-3833D01*
X3700Y-3850D01*
X3725Y-3833D01*
X3700Y-3817D01*
X4525Y-3850D02*
Y-3500D01*
X4750D01*
X4825Y-3517D01*
X4850Y-3533D01*
X4875Y-3567D01*
Y-3600D01*
X4850Y-3633D01*
X4825Y-3650D01*
X4750Y-3667D01*
X4525D02*
X4750D01*
X4825Y-3683D01*
X4850Y-3700D01*
X4875Y-3733D01*
Y-3783D01*
X4850Y-3817D01*
X4825Y-3833D01*
X4750Y-3850D01*
X4525D01*
X5050Y-3567D02*
X5100Y-3550D01*
X5175Y-3500D01*
Y-3850D01*
X5700Y-3500D02*
X5450Y-3733D01*
X5825D01*
X5700Y-3500D02*
Y-3850D01*
X5950Y-3700D02*
X6400D01*
X6750Y-3500D02*
X6675Y-3517D01*
X6625Y-3567D01*
X6600Y-3650D01*
Y-3700D01*
X6625Y-3783D01*
X6675Y-3833D01*
X6750Y-3850D01*
X6800D01*
X6875Y-3833D01*
X6925Y-3783D01*
X6950Y-3700D01*
Y-3650D01*
X6925Y-3567D01*
X6875Y-3517D01*
X6800Y-3500D01*
X6750D01*
X7150D02*
X7425D01*
X7275Y-3633D01*
X7350D01*
X7400Y-3650D01*
X7425Y-3667D01*
X7450Y-3717D01*
Y-3750D01*
X7425Y-3800D01*
X7375Y-3833D01*
X7300Y-3850D01*
X7225D01*
X7150Y-3833D01*
X7125Y-3817D01*
X7100Y-3783D01*
X7650Y-3500D02*
X7925D01*
X7775Y-3633D01*
X7850D01*
X7900Y-3650D01*
X7925Y-3667D01*
X7950Y-3717D01*
Y-3750D01*
X7925Y-3800D01*
X7875Y-3833D01*
X7800Y-3850D01*
X7725D01*
X7650Y-3833D01*
X7625Y-3817D01*
X7600Y-3783D01*
X8125Y-3583D02*
Y-3567D01*
X8150Y-3533D01*
X8175Y-3517D01*
X8225Y-3500D01*
X8325D01*
X8375Y-3517D01*
X8400Y-3533D01*
X8425Y-3567D01*
Y-3600D01*
X8400Y-3633D01*
X8350Y-3683D01*
X8100Y-3850D01*
X8450D01*
X8650Y-3833D02*
X8625Y-3850D01*
X8600Y-3833D01*
X8625Y-3817D01*
X8650Y-3833D01*
Y-3867D01*
X8625Y-3900D01*
X8600Y-3917D01*
X9325Y-3850D02*
X9525Y-3500D01*
X9725Y-3850D01*
X9400Y-3733D02*
X9650D01*
X9875Y-3850D02*
Y-3500D01*
X10100D01*
X10175Y-3517D01*
X10200Y-3533D01*
X10225Y-3567D01*
Y-3600D01*
X10200Y-3633D01*
X10175Y-3650D01*
X10100Y-3667D01*
X9875D01*
X10050D02*
X10225Y-3850D01*
X10575Y-3500D02*
Y-3850D01*
X10400Y-3500D02*
X10750D01*
X10850D02*
X10975Y-3850D01*
X11100Y-3500D01*
X11225Y-3850D01*
X11350Y-3500D01*
X11600D02*
X11550Y-3517D01*
X11500Y-3550D01*
X11475Y-3583D01*
X11450Y-3633D01*
Y-3717D01*
X11475Y-3767D01*
X11500Y-3800D01*
X11550Y-3833D01*
X11600Y-3850D01*
X11700D01*
X11750Y-3833D01*
X11800Y-3800D01*
X11825Y-3767D01*
X11850Y-3717D01*
Y-3633D01*
X11825Y-3583D01*
X11800Y-3550D01*
X11750Y-3517D01*
X11700Y-3500D01*
X11600D01*
X12000Y-3850D02*
Y-3500D01*
X12225D01*
X12300Y-3517D01*
X12325Y-3533D01*
X12350Y-3567D01*
Y-3600D01*
X12325Y-3633D01*
X12300Y-3650D01*
X12225Y-3667D01*
X12000D01*
X12175D02*
X12350Y-3850D01*
X12525D02*
Y-3500D01*
X12875D02*
X12525Y-3733D01*
X12650Y-3650D02*
X12875Y-3850D01*
X13525D02*
Y-3500D01*
X13750D01*
X13825Y-3517D01*
X13850Y-3533D01*
X13875Y-3567D01*
Y-3600D01*
X13850Y-3633D01*
X13825Y-3650D01*
X13750Y-3667D01*
X13525D01*
X13700D02*
X13875Y-3850D01*
X14050D02*
Y-3500D01*
X14375D01*
X14050Y-3667D02*
X14250D01*
X14050Y-3850D02*
X14375D01*
X14525Y-3500D02*
X14725Y-3850D01*
X14925Y-3500D01*
X15050Y-3817D02*
X15025Y-3833D01*
X15050Y-3850D01*
X15075Y-3833D01*
X15750Y-3850D02*
X15950Y-3500D01*
X16150Y-3850D01*
X15825Y-3733D02*
X16075D01*
X0Y-3150D02*
Y-2800D01*
X325D01*
X0Y-2967D02*
X200D01*
X450Y-3150D02*
Y-2800D01*
X650D02*
Y-3150D01*
X950D01*
X1075D02*
Y-2800D01*
X1400D01*
X1075Y-2967D02*
X1275D01*
X1075Y-3150D02*
X1400D01*
X2025D02*
Y-2800D01*
X2375Y-3150D01*
Y-2800D01*
X2575Y-3150D02*
X2775Y-2800D01*
X2975Y-3150D01*
X2650Y-3033D02*
X2900D01*
X3125Y-3150D02*
Y-2800D01*
X3325Y-3150D01*
X3525Y-2800D01*
Y-3150D01*
X3725D02*
Y-2800D01*
X4050D01*
X3725Y-2967D02*
X3925D01*
X3725Y-3150D02*
X4050D01*
X4225Y-2917D02*
X4200Y-2933D01*
X4225Y-2950D01*
X4250Y-2933D01*
X4225Y-2917D01*
Y-3117D02*
X4200Y-3133D01*
X4225Y-3150D01*
X4250Y-3133D01*
X4225Y-3117D01*
X5225Y-2800D02*
Y-3150D01*
X5050Y-2800D02*
X5400D01*
X5650D02*
X5600Y-2817D01*
X5550Y-2850D01*
X5525Y-2883D01*
X5500Y-2933D01*
Y-3017D01*
X5525Y-3067D01*
X5550Y-3100D01*
X5600Y-3133D01*
X5650Y-3150D01*
X5750D01*
X5800Y-3133D01*
X5850Y-3100D01*
X5875Y-3067D01*
X5900Y-3017D01*
Y-2933D01*
X5875Y-2883D01*
X5850Y-2850D01*
X5800Y-2817D01*
X5750Y-2800D01*
X5650D01*
X6050Y-3150D02*
Y-2800D01*
X6275D01*
X6350Y-2817D01*
X6375Y-2833D01*
X6400Y-2867D01*
Y-2917D01*
X6375Y-2950D01*
X6350Y-2967D01*
X6275Y-2983D01*
X6050D01*
X6575Y-3000D02*
X7025D01*
X7600Y-2883D02*
X7575Y-2850D01*
X7525Y-2817D01*
X7475Y-2800D01*
X7375D01*
X7325Y-2817D01*
X7275Y-2850D01*
X7250Y-2883D01*
X7225Y-2933D01*
Y-3017D01*
X7250Y-3067D01*
X7275Y-3100D01*
X7325Y-3133D01*
X7375Y-3150D01*
X7475D01*
X7525Y-3133D01*
X7575Y-3100D01*
X7600Y-3067D01*
X7900Y-2800D02*
X7850Y-2817D01*
X7800Y-2850D01*
X7775Y-2883D01*
X7750Y-2933D01*
Y-3017D01*
X7775Y-3067D01*
X7800Y-3100D01*
X7850Y-3133D01*
X7900Y-3150D01*
X8000D01*
X8050Y-3133D01*
X8100Y-3100D01*
X8125Y-3067D01*
X8150Y-3017D01*
Y-2933D01*
X8125Y-2883D01*
X8100Y-2850D01*
X8050Y-2817D01*
X8000Y-2800D01*
X7900D01*
X8300Y-3150D02*
Y-2800D01*
X8525D01*
X8600Y-2817D01*
X8625Y-2833D01*
X8650Y-2867D01*
Y-2917D01*
X8625Y-2950D01*
X8600Y-2967D01*
X8525Y-2983D01*
X8300D01*
X8850Y-3117D02*
X8825Y-3133D01*
X8850Y-3150D01*
X8875Y-3133D01*
X9450Y-2883D02*
X9425Y-2850D01*
X9375Y-2817D01*
X9325Y-2800D01*
X9225D01*
X9175Y-2817D01*
X9125Y-2850D01*
X9100Y-2883D01*
X9075Y-2933D01*
Y-3017D01*
X9100Y-3067D01*
X9125Y-3100D01*
X9175Y-3133D01*
X9225Y-3150D01*
X9325D01*
X9375Y-3133D01*
X9425Y-3100D01*
X9450Y-3067D01*
Y-3017D01*
X9325D01*
X9600Y-3150D02*
Y-2800D01*
X9825D01*
X9900Y-2817D01*
X9925Y-2833D01*
X9950Y-2867D01*
Y-2900D01*
X9925Y-2933D01*
X9900Y-2950D01*
X9825Y-2967D01*
X9600D02*
X9825D01*
X9900Y-2983D01*
X9925Y-3000D01*
X9950Y-3033D01*
Y-3083D01*
X9925Y-3117D01*
X9900Y-3133D01*
X9825Y-3150D01*
X9600D01*
X10125D02*
Y-2800D01*
X10350D01*
X10425Y-2817D01*
X10450Y-2833D01*
X10475Y-2867D01*
Y-2900D01*
X10450Y-2933D01*
X10425Y-2950D01*
X10350Y-2967D01*
X10125D01*
X10300D02*
X10475Y-3150D01*
X175Y-1400D02*
Y-1750D01*
X0Y-1400D02*
X350D01*
X600D02*
X550Y-1417D01*
X500Y-1450D01*
X475Y-1483D01*
X450Y-1533D01*
Y-1617D01*
X475Y-1667D01*
X500Y-1700D01*
X550Y-1733D01*
X600Y-1750D01*
X700D01*
X750Y-1733D01*
X800Y-1700D01*
X825Y-1667D01*
X850Y-1617D01*
Y-1533D01*
X825Y-1483D01*
X800Y-1450D01*
X750Y-1417D01*
X700Y-1400D01*
X600D01*
X1000Y-1750D02*
Y-1400D01*
X1225D01*
X1300Y-1417D01*
X1325Y-1433D01*
X1350Y-1467D01*
Y-1517D01*
X1325Y-1550D01*
X1300Y-1567D01*
X1225Y-1583D01*
X1000D01*
X2375Y-1483D02*
X2350Y-1450D01*
X2300Y-1417D01*
X2250Y-1400D01*
X2150D01*
X2100Y-1417D01*
X2050Y-1450D01*
X2025Y-1483D01*
X2000Y-1533D01*
Y-1617D01*
X2025Y-1667D01*
X2050Y-1700D01*
X2100Y-1733D01*
X2150Y-1750D01*
X2250D01*
X2300Y-1733D01*
X2350Y-1700D01*
X2375Y-1667D01*
X2675Y-1400D02*
X2625Y-1417D01*
X2575Y-1450D01*
X2550Y-1483D01*
X2525Y-1533D01*
Y-1617D01*
X2550Y-1667D01*
X2575Y-1700D01*
X2625Y-1733D01*
X2675Y-1750D01*
X2775D01*
X2825Y-1733D01*
X2875Y-1700D01*
X2900Y-1667D01*
X2925Y-1617D01*
Y-1533D01*
X2900Y-1483D01*
X2875Y-1450D01*
X2825Y-1417D01*
X2775Y-1400D01*
X2675D01*
X3075Y-1750D02*
Y-1400D01*
X3300D01*
X3375Y-1417D01*
X3400Y-1433D01*
X3425Y-1467D01*
Y-1517D01*
X3400Y-1550D01*
X3375Y-1567D01*
X3300Y-1583D01*
X3075D01*
X3600Y-1750D02*
Y-1400D01*
X3825D01*
X3900Y-1417D01*
X3925Y-1433D01*
X3950Y-1467D01*
Y-1517D01*
X3925Y-1550D01*
X3900Y-1567D01*
X3825Y-1583D01*
X3600D01*
X4125Y-1750D02*
Y-1400D01*
X4450D01*
X4125Y-1567D02*
X4325D01*
X4125Y-1750D02*
X4450D01*
X4600D02*
Y-1400D01*
X4825D01*
X4900Y-1417D01*
X4925Y-1433D01*
X4950Y-1467D01*
Y-1500D01*
X4925Y-1533D01*
X4900Y-1550D01*
X4825Y-1567D01*
X4600D01*
X4775D02*
X4950Y-1750D01*
X0Y-2450D02*
Y-2100D01*
X225D01*
X300Y-2117D01*
X325Y-2133D01*
X350Y-2167D01*
Y-2200D01*
X325Y-2233D01*
X300Y-2250D01*
X225Y-2267D01*
X0D02*
X225D01*
X300Y-2283D01*
X325Y-2300D01*
X350Y-2333D01*
Y-2383D01*
X325Y-2417D01*
X300Y-2433D01*
X225Y-2450D01*
X0D01*
X525Y-2100D02*
Y-2450D01*
X825D01*
X950D02*
X1150Y-2100D01*
X1350Y-2450D01*
X1025Y-2333D02*
X1275D01*
X1875Y-2183D02*
X1850Y-2150D01*
X1800Y-2117D01*
X1750Y-2100D01*
X1650D01*
X1600Y-2117D01*
X1550Y-2150D01*
X1525Y-2183D01*
X1500Y-2233D01*
Y-2317D01*
X1525Y-2367D01*
X1550Y-2400D01*
X1600Y-2433D01*
X1650Y-2450D01*
X1750D01*
X1800Y-2433D01*
X1850Y-2400D01*
X1875Y-2367D01*
X2025Y-2450D02*
Y-2100D01*
X2375D02*
X2025Y-2333D01*
X2150Y-2250D02*
X2375Y-2450D01*
X3025D02*
X3225Y-2100D01*
X3425Y-2450D01*
X3100Y-2333D02*
X3350D01*
X3575Y-2450D02*
Y-2100D01*
X3800D01*
X3875Y-2117D01*
X3900Y-2133D01*
X3925Y-2167D01*
Y-2200D01*
X3900Y-2233D01*
X3875Y-2250D01*
X3800Y-2267D01*
X3575D01*
X3750D02*
X3925Y-2450D01*
X4100D02*
Y-2100D01*
X4425D01*
X4100Y-2267D02*
X4300D01*
X4100Y-2450D02*
X4425D01*
X4575D02*
X4775Y-2100D01*
X4975Y-2450D01*
X4650Y-2333D02*
X4900D01*
X5600Y-2450D02*
Y-2100D01*
X6150Y-2150D02*
X6100Y-2117D01*
X6025Y-2100D01*
X5925D01*
X5850Y-2117D01*
X5800Y-2150D01*
Y-2183D01*
X5825Y-2217D01*
X5850Y-2233D01*
X5900Y-2250D01*
X6050Y-2283D01*
X6100Y-2300D01*
X6125Y-2317D01*
X6150Y-2350D01*
Y-2400D01*
X6100Y-2433D01*
X6025Y-2450D01*
X5925D01*
X5850Y-2433D01*
X5800Y-2400D01*
X7150Y-2183D02*
X7125Y-2150D01*
X7075Y-2117D01*
X7025Y-2100D01*
X6925D01*
X6875Y-2117D01*
X6825Y-2150D01*
X6800Y-2183D01*
X6775Y-2233D01*
Y-2317D01*
X6800Y-2367D01*
X6825Y-2400D01*
X6875Y-2433D01*
X6925Y-2450D01*
X7025D01*
X7075Y-2433D01*
X7125Y-2400D01*
X7150Y-2367D01*
X7450Y-2100D02*
X7400Y-2117D01*
X7350Y-2150D01*
X7325Y-2183D01*
X7300Y-2233D01*
Y-2317D01*
X7325Y-2367D01*
X7350Y-2400D01*
X7400Y-2433D01*
X7450Y-2450D01*
X7550D01*
X7600Y-2433D01*
X7650Y-2400D01*
X7675Y-2367D01*
X7700Y-2317D01*
Y-2233D01*
X7675Y-2183D01*
X7650Y-2150D01*
X7600Y-2117D01*
X7550Y-2100D01*
X7450D01*
X7850Y-2450D02*
Y-2100D01*
X8075D01*
X8150Y-2117D01*
X8175Y-2133D01*
X8200Y-2167D01*
Y-2217D01*
X8175Y-2250D01*
X8150Y-2267D01*
X8075Y-2283D01*
X7850D01*
X8375Y-2450D02*
Y-2100D01*
X8600D01*
X8675Y-2117D01*
X8700Y-2133D01*
X8725Y-2167D01*
Y-2217D01*
X8700Y-2250D01*
X8675Y-2267D01*
X8600Y-2283D01*
X8375D01*
X8900Y-2450D02*
Y-2100D01*
X9225D01*
X8900Y-2267D02*
X9100D01*
X8900Y-2450D02*
X9225D01*
X9375D02*
Y-2100D01*
X9600D01*
X9675Y-2117D01*
X9700Y-2133D01*
X9725Y-2167D01*
Y-2200D01*
X9700Y-2233D01*
X9675Y-2250D01*
X9600Y-2267D01*
X9375D01*
X9550D02*
X9725Y-2450D01*
G54D10*
X17395Y6295D02*
X17185D01*
X17180Y6223D01*
X17165Y6148D01*
X17140Y6076D01*
X17106Y6007D01*
X17064Y5944D01*
X17013Y5886D01*
X16956Y5836D01*
X16892Y5793D01*
X16824Y5759D01*
X16751Y5735D01*
X16676Y5720D01*
X16605Y5715D01*
Y3885D01*
X16677Y3880D01*
X16752Y3865D01*
X16824Y3840D01*
X16893Y3806D01*
X16956Y3764D01*
X17014Y3713D01*
X17064Y3656D01*
X17107Y3592D01*
X17141Y3524D01*
X17165Y3451D01*
X17180Y3376D01*
X17185Y3305D01*
X17395D01*
Y6295D01*
X17390Y6290D02*
X17189D01*
X17185Y6222D01*
X17170Y6147D01*
X17145Y6074D01*
X17111Y6004D01*
X17068Y5940D01*
X17017Y5882D01*
X16959Y5832D01*
X16894Y5789D01*
X16825Y5755D01*
X16752Y5730D01*
X16676Y5715D01*
X16610Y5711D01*
Y3889D01*
X16678Y3885D01*
X16753Y3870D01*
X16826Y3845D01*
X16896Y3811D01*
X16960Y3768D01*
X17018Y3717D01*
X17068Y3659D01*
X17111Y3594D01*
X17145Y3525D01*
X17170Y3452D01*
X17185Y3376D01*
X17189Y3310D01*
X17390D01*
Y6290D01*
G54D11*
X17380Y6280D02*
X17199D01*
X17195Y6220D01*
X17179Y6143D01*
X17154Y6069D01*
X17119Y5999D01*
X17075Y5934D01*
X17023Y5875D01*
X16964Y5823D01*
X16899Y5780D01*
X16828Y5745D01*
X16754Y5720D01*
X16677Y5705D01*
X16620Y5701D01*
Y3899D01*
X16680Y3895D01*
X16757Y3879D01*
X16831Y3854D01*
X16901Y3819D01*
X16966Y3775D01*
X17025Y3723D01*
X17077Y3664D01*
X17120Y3599D01*
X17155Y3528D01*
X17180Y3454D01*
X17195Y3377D01*
X17199Y3320D01*
X17380D01*
Y6280D01*
G54D12*
X17360Y6260D02*
X17217D01*
X17214Y6216D01*
X17198Y6137D01*
X17172Y6060D01*
X17136Y5988D01*
X17090Y5920D01*
X17036Y5860D01*
X16975Y5807D01*
X16908Y5762D01*
X16835Y5726D01*
X16758Y5701D01*
X16678Y5685D01*
X16640Y5683D01*
Y3917D01*
X16684Y3914D01*
X16763Y3898D01*
X16840Y3872D01*
X16912Y3836D01*
X16980Y3790D01*
X17040Y3736D01*
X17093Y3675D01*
X17138Y3608D01*
X17174Y3535D01*
X17199Y3458D01*
X17215Y3378D01*
X17217Y3340D01*
X17360D01*
Y6260D01*
G54D13*
X17320Y6220D02*
X17255D01*
X17253Y6208D01*
X17236Y6124D01*
X17208Y6042D01*
X17169Y5965D01*
X17120Y5894D01*
X17063Y5830D01*
X16997Y5773D01*
X16925Y5726D01*
X16847Y5688D01*
X16765Y5661D01*
X16681Y5645D01*
X16680D01*
Y3955D01*
X16692Y3953D01*
X16776Y3936D01*
X16858Y3908D01*
X16935Y3869D01*
X17006Y3820D01*
X17070Y3763D01*
X17127Y3697D01*
X17174Y3625D01*
X17212Y3547D01*
X17239Y3465D01*
X17255Y3381D01*
Y3380D01*
X17320D01*
Y6220D01*
X17318Y3455D02*
X17255Y6134D01*
X17287Y6220D02*
Y4794D01*
X17000Y5776D02*
Y3824D01*
X16924Y3874D02*
Y5725D01*
X16848Y5689D02*
Y3911D01*
X16772Y3937D02*
Y5663D01*
X16696Y5648D02*
Y3953D01*
X17076Y3756D02*
Y5845D01*
X17152Y5941D02*
Y3659D01*
X17228Y3498D02*
Y6101D01*
X17304Y6220D02*
Y3380D01*
G54D10*
X17395Y6295D02*
X17185D01*
X17180Y6223D01*
X17165Y6148D01*
X17140Y6076D01*
X17106Y6007D01*
X17064Y5944D01*
X17013Y5886D01*
X16956Y5836D01*
X16892Y5793D01*
X16824Y5759D01*
X16751Y5735D01*
X16676Y5720D01*
X16605Y5715D01*
Y3885D01*
X16677Y3880D01*
X16752Y3865D01*
X16824Y3840D01*
X16893Y3806D01*
X16956Y3764D01*
X17014Y3713D01*
X17064Y3656D01*
X17107Y3592D01*
X17141Y3524D01*
X17165Y3451D01*
X17180Y3376D01*
X17185Y3305D01*
X17395D01*
Y6295D01*
Y6305D02*
Y9595D01*
X12805D01*
Y6415D01*
X12735D01*
X12733Y6379D01*
X12729Y6360D01*
X12721Y6341D01*
X12711Y6324D01*
X12699Y6308D01*
X12684Y6294D01*
X12667Y6283D01*
X12649Y6274D01*
X12630Y6268D01*
X12610Y6265D01*
X12590D01*
X12570Y6269D01*
X12550Y6274D01*
X12532Y6283D01*
X12515Y6295D01*
X12501Y6308D01*
X12488Y6324D01*
X12478Y6342D01*
X12471Y6361D01*
X12467Y6380D01*
X12465Y6415D01*
X12395D01*
Y9595D01*
X7805D01*
Y6305D01*
X8015D01*
X8021Y6386D01*
X8040Y6470D01*
X8071Y6550D01*
X8114Y6625D01*
X8167Y6693D01*
X8229Y6752D01*
X8300Y6802D01*
X8376Y6841D01*
X8458Y6868D01*
X8543Y6882D01*
X8629Y6884D01*
X8715Y6874D01*
X8797Y6851D01*
X8876Y6816D01*
X8949Y6770D01*
X9014Y6713D01*
X9070Y6648D01*
X9116Y6575D01*
X9151Y6497D01*
X9174Y6414D01*
X9184Y6328D01*
X9182Y6242D01*
X9167Y6158D01*
X9140Y6076D01*
X9102Y5999D01*
X9052Y5929D01*
X8993Y5866D01*
X8925Y5813D01*
X8850Y5771D01*
X8769Y5740D01*
X8685Y5721D01*
X8605Y5715D01*
Y3885D01*
X8689Y3878D01*
X8775Y3858D01*
X8858Y3825D01*
X8934Y3780D01*
X9003Y3724D01*
X9063Y3658D01*
X9112Y3584D01*
X9149Y3503D01*
X9173Y3417D01*
X9184Y3329D01*
X9182Y3240D01*
X9166Y3153D01*
X9137Y3069D01*
X9096Y2990D01*
X9044Y2919D01*
X8981Y2856D01*
X8909Y2803D01*
X8830Y2762D01*
X8746Y2734D01*
X8659Y2718D01*
X8570Y2716D01*
X8482Y2727D01*
X8397Y2752D01*
X8316Y2789D01*
X8242Y2838D01*
X8176Y2897D01*
X8120Y2966D01*
X8075Y3043D01*
X8042Y3125D01*
X8022Y3212D01*
X8015Y3295D01*
X7805D01*
Y5D01*
X12395D01*
Y3185D01*
X12465D01*
X12466Y3220D01*
X12471Y3238D01*
X12477Y3256D01*
X12487Y3273D01*
X12498Y3289D01*
X12512Y3302D01*
X12527Y3314D01*
X12544Y3323D01*
X12562Y3330D01*
X12581Y3334D01*
X12600Y3335D01*
X12620Y3334D01*
X12638Y3329D01*
X12656Y3323D01*
X12673Y3313D01*
X12689Y3302D01*
X12702Y3288D01*
X12714Y3273D01*
X12723Y3256D01*
X12730Y3238D01*
X12734Y3219D01*
X12735Y3185D01*
X12805D01*
Y5D01*
X17395D01*
Y3295D01*
X17185D01*
X17178Y3211D01*
X17158Y3125D01*
X17125Y3042D01*
X17080Y2966D01*
X17024Y2897D01*
X16958Y2837D01*
X16884Y2788D01*
X16803Y2751D01*
X16717Y2727D01*
X16629Y2716D01*
X16540Y2718D01*
X16453Y2734D01*
X16369Y2763D01*
X16290Y2804D01*
X16219Y2856D01*
X16156Y2919D01*
X16103Y2991D01*
X16062Y3070D01*
X16034Y3154D01*
X16018Y3241D01*
X16016Y3330D01*
X16027Y3418D01*
X16052Y3503D01*
X16089Y3584D01*
X16138Y3658D01*
X16197Y3724D01*
X16266Y3780D01*
X16343Y3825D01*
X16425Y3858D01*
X16512Y3878D01*
X16595Y3885D01*
Y5715D01*
X16511Y5722D01*
X16425Y5742D01*
X16342Y5775D01*
X16266Y5820D01*
X16197Y5876D01*
X16137Y5942D01*
X16088Y6016D01*
X16051Y6097D01*
X16027Y6183D01*
X16016Y6271D01*
X16018Y6360D01*
X16034Y6447D01*
X16063Y6531D01*
X16104Y6610D01*
X16156Y6681D01*
X16219Y6744D01*
X16291Y6797D01*
X16370Y6838D01*
X16454Y6866D01*
X16541Y6882D01*
X16630Y6884D01*
X16718Y6873D01*
X16803Y6848D01*
X16884Y6811D01*
X16958Y6762D01*
X17024Y6703D01*
X17080Y6634D01*
X17125Y6557D01*
X17158Y6475D01*
X17178Y6388D01*
X17185Y6305D01*
X17395D01*
X17390Y6310D02*
Y9590D01*
X12810D01*
Y6410D01*
X12740D01*
X12738Y6378D01*
X12734Y6358D01*
X12726Y6339D01*
X12715Y6321D01*
X12702Y6304D01*
X12687Y6290D01*
X12669Y6278D01*
X12650Y6269D01*
X12630Y6263D01*
X12610Y6260D01*
X12589Y6261D01*
X12568Y6264D01*
X12548Y6270D01*
X12529Y6279D01*
X12512Y6291D01*
X12497Y6305D01*
X12484Y6322D01*
X12474Y6340D01*
X12466Y6360D01*
X12462Y6380D01*
X12460Y6410D01*
X12390D01*
Y9590D01*
X7810D01*
Y6310D01*
X8011D01*
X8017Y6387D01*
X8036Y6472D01*
X8067Y6553D01*
X8110Y6628D01*
X8163Y6697D01*
X8226Y6756D01*
X8297Y6806D01*
X8375Y6845D01*
X8457Y6872D01*
X8543Y6887D01*
X8630Y6889D01*
X8716Y6879D01*
X8799Y6855D01*
X8879Y6820D01*
X8952Y6773D01*
X9018Y6717D01*
X9074Y6651D01*
X9121Y6577D01*
X9156Y6498D01*
X9179Y6414D01*
X9189Y6328D01*
X9187Y6241D01*
X9172Y6156D01*
X9145Y6073D01*
X9106Y5996D01*
X9056Y5925D01*
X8996Y5862D01*
X8927Y5809D01*
X8852Y5766D01*
X8771Y5735D01*
X8686Y5716D01*
X8610Y5711D01*
Y3889D01*
X8690Y3883D01*
X8777Y3863D01*
X8860Y3829D01*
X8938Y3784D01*
X9007Y3727D01*
X9067Y3661D01*
X9116Y3586D01*
X9154Y3504D01*
X9178Y3418D01*
X9189Y3329D01*
X9187Y3240D01*
X9171Y3151D01*
X9142Y3067D01*
X9100Y2987D01*
X9047Y2915D01*
X8984Y2852D01*
X8911Y2799D01*
X8832Y2758D01*
X8747Y2729D01*
X8659Y2713D01*
X8569Y2711D01*
X8480Y2722D01*
X8394Y2747D01*
X8313Y2785D01*
X8238Y2834D01*
X8172Y2894D01*
X8115Y2964D01*
X8070Y3041D01*
X8037Y3124D01*
X8017Y3211D01*
X8011Y3290D01*
X7810D01*
Y10D01*
X12390D01*
Y3190D01*
X12460D01*
X12462Y3221D01*
X12466Y3240D01*
X12473Y3259D01*
X12483Y3276D01*
X12495Y3292D01*
X12509Y3306D01*
X12525Y3318D01*
X12543Y3328D01*
X12561Y3334D01*
X12581Y3339D01*
X12601Y3340D01*
X12621Y3338D01*
X12640Y3334D01*
X12659Y3327D01*
X12676Y3317D01*
X12692Y3305D01*
X12706Y3291D01*
X12718Y3275D01*
X12728Y3257D01*
X12734Y3239D01*
X12739Y3219D01*
X12740Y3190D01*
X12810D01*
Y10D01*
X17390D01*
Y3290D01*
X17189D01*
X17183Y3210D01*
X17163Y3123D01*
X17129Y3040D01*
X17084Y2962D01*
X17027Y2893D01*
X16961Y2833D01*
X16886Y2784D01*
X16804Y2746D01*
X16718Y2722D01*
X16629Y2711D01*
X16540Y2713D01*
X16451Y2729D01*
X16367Y2758D01*
X16287Y2800D01*
X16215Y2853D01*
X16152Y2916D01*
X16099Y2989D01*
X16058Y3068D01*
X16029Y3153D01*
X16013Y3241D01*
X16011Y3331D01*
X16022Y3420D01*
X16047Y3506D01*
X16085Y3587D01*
X16134Y3662D01*
X16194Y3728D01*
X16264Y3785D01*
X16341Y3830D01*
X16424Y3863D01*
X16511Y3883D01*
X16590Y3889D01*
Y5711D01*
X16510Y5717D01*
X16423Y5737D01*
X16340Y5771D01*
X16262Y5816D01*
X16193Y5873D01*
X16133Y5939D01*
X16084Y6014D01*
X16046Y6096D01*
X16022Y6182D01*
X16011Y6271D01*
X16013Y6360D01*
X16029Y6449D01*
X16058Y6533D01*
X16100Y6613D01*
X16153Y6685D01*
X16216Y6748D01*
X16289Y6801D01*
X16368Y6842D01*
X16453Y6871D01*
X16541Y6887D01*
X16631Y6889D01*
X16720Y6878D01*
X16806Y6853D01*
X16887Y6815D01*
X16962Y6766D01*
X17028Y6706D01*
X17085Y6636D01*
X17130Y6559D01*
X17163Y6476D01*
X17183Y6389D01*
X17189Y6310D01*
X17390D01*
G54D11*
X17380Y6320D02*
Y9580D01*
X12820D01*
Y6400D01*
X12749D01*
X12748Y6376D01*
X12743Y6354D01*
X12734Y6334D01*
X12723Y6314D01*
X12709Y6297D01*
X12692Y6282D01*
X12674Y6269D01*
X12653Y6260D01*
X12632Y6254D01*
X12610Y6250D01*
X12587Y6251D01*
X12565Y6254D01*
X12544Y6261D01*
X12524Y6271D01*
X12505Y6284D01*
X12489Y6299D01*
X12475Y6317D01*
X12464Y6336D01*
X12456Y6357D01*
X12452Y6380D01*
X12451Y6400D01*
X12380D01*
Y9580D01*
X7820D01*
Y6320D01*
X8001D01*
X8007Y6389D01*
X8026Y6476D01*
X8058Y6558D01*
X8102Y6635D01*
X8156Y6704D01*
X8221Y6765D01*
X8293Y6815D01*
X8372Y6855D01*
X8456Y6882D01*
X8543Y6897D01*
X8631Y6899D01*
X8719Y6888D01*
X8804Y6864D01*
X8884Y6828D01*
X8959Y6781D01*
X9025Y6723D01*
X9083Y6656D01*
X9130Y6581D01*
X9165Y6501D01*
X9189Y6416D01*
X9199Y6328D01*
X9197Y6240D01*
X9182Y6153D01*
X9154Y6069D01*
X9114Y5990D01*
X9063Y5918D01*
X9002Y5854D01*
X8932Y5800D01*
X8855Y5757D01*
X8773Y5725D01*
X8687Y5706D01*
X8620Y5701D01*
Y3899D01*
X8692Y3893D01*
X8781Y3872D01*
X8866Y3838D01*
X8944Y3792D01*
X9014Y3734D01*
X9075Y3666D01*
X9125Y3590D01*
X9163Y3507D01*
X9188Y3419D01*
X9199Y3329D01*
X9197Y3238D01*
X9180Y3148D01*
X9151Y3062D01*
X9108Y2981D01*
X9054Y2908D01*
X8990Y2844D01*
X8916Y2790D01*
X8835Y2748D01*
X8749Y2719D01*
X8659Y2703D01*
X8568Y2701D01*
X8478Y2713D01*
X8390Y2738D01*
X8307Y2776D01*
X8232Y2827D01*
X8164Y2888D01*
X8107Y2959D01*
X8061Y3037D01*
X8027Y3122D01*
X8007Y3211D01*
X8001Y3280D01*
X7820D01*
Y20D01*
X12380D01*
Y3200D01*
X12451D01*
X12452Y3223D01*
X12457Y3244D01*
X12464Y3264D01*
X12475Y3282D01*
X12488Y3299D01*
X12503Y3314D01*
X12520Y3327D01*
X12539Y3337D01*
X12559Y3344D01*
X12580Y3349D01*
X12601Y3350D01*
X12623Y3348D01*
X12644Y3343D01*
X12664Y3336D01*
X12682Y3325D01*
X12699Y3312D01*
X12714Y3297D01*
X12727Y3280D01*
X12737Y3261D01*
X12744Y3241D01*
X12749Y3219D01*
Y3200D01*
X12820D01*
Y20D01*
X17380D01*
Y3280D01*
X17199D01*
X17193Y3208D01*
X17172Y3119D01*
X17138Y3034D01*
X17092Y2956D01*
X17034Y2886D01*
X16966Y2825D01*
X16890Y2775D01*
X16807Y2737D01*
X16719Y2712D01*
X16629Y2701D01*
X16538Y2703D01*
X16448Y2720D01*
X16362Y2749D01*
X16281Y2792D01*
X16208Y2846D01*
X16144Y2910D01*
X16090Y2984D01*
X16048Y3065D01*
X16019Y3151D01*
X16003Y3241D01*
X16001Y3332D01*
X16013Y3422D01*
X16038Y3510D01*
X16076Y3593D01*
X16127Y3668D01*
X16188Y3736D01*
X16259Y3793D01*
X16337Y3839D01*
X16422Y3873D01*
X16511Y3893D01*
X16580Y3899D01*
Y5701D01*
X16508Y5707D01*
X16419Y5728D01*
X16334Y5762D01*
X16256Y5808D01*
X16186Y5866D01*
X16125Y5934D01*
X16075Y6010D01*
X16037Y6093D01*
X16012Y6181D01*
X16001Y6271D01*
X16003Y6362D01*
X16020Y6452D01*
X16049Y6538D01*
X16092Y6619D01*
X16146Y6692D01*
X16210Y6756D01*
X16284Y6810D01*
X16365Y6852D01*
X16451Y6881D01*
X16541Y6897D01*
X16632Y6899D01*
X16722Y6887D01*
X16810Y6862D01*
X16893Y6824D01*
X16968Y6773D01*
X17036Y6712D01*
X17093Y6641D01*
X17139Y6563D01*
X17173Y6478D01*
X17193Y6389D01*
X17199Y6320D01*
X17380D01*
X12600Y6251D02*
Y3350D01*
X12581Y3349D02*
Y6252D01*
X12562Y6255D02*
Y3345D01*
X12543Y3339D02*
Y6261D01*
X12524Y6271D02*
Y3329D01*
X12505Y3316D02*
Y6284D01*
X12486Y6303D02*
Y3297D01*
X12467Y3269D02*
Y6332D01*
X12448Y6400D02*
Y3200D01*
X12429D02*
Y6400D01*
X12410D02*
Y3200D01*
X12391D02*
Y6400D01*
X12372Y9580D02*
Y20D01*
X12353D02*
Y9580D01*
X12334D02*
Y20D01*
X12315D02*
Y9580D01*
X12296D02*
Y20D01*
X12277D02*
Y9580D01*
X12258D02*
Y20D01*
X12239D02*
Y9580D01*
X12220D02*
Y20D01*
X12201D02*
Y9580D01*
X12182D02*
Y20D01*
X12163D02*
Y9580D01*
X12144D02*
Y20D01*
X12125D02*
Y9580D01*
X12106D02*
Y20D01*
X12087D02*
Y9580D01*
X12068D02*
Y20D01*
X12049D02*
Y9580D01*
X12030D02*
Y20D01*
X12011D02*
Y9580D01*
X11992D02*
Y20D01*
X11973D02*
Y9580D01*
X11954D02*
Y20D01*
X11935D02*
Y9580D01*
X11916D02*
Y20D01*
X11897D02*
Y9580D01*
X11878D02*
Y20D01*
X11859D02*
Y9580D01*
X11840D02*
Y20D01*
X11821D02*
Y9580D01*
X11802D02*
Y20D01*
X11783D02*
Y9580D01*
X11764D02*
Y20D01*
X11745D02*
Y9580D01*
X11726D02*
Y20D01*
X11707D02*
Y9580D01*
X11688D02*
Y20D01*
X11669D02*
Y9580D01*
X11650D02*
Y20D01*
X11631D02*
Y9580D01*
X11612D02*
Y20D01*
X11593D02*
Y9580D01*
X11574D02*
Y20D01*
X11555D02*
Y9580D01*
X11536D02*
Y20D01*
X11517D02*
Y9580D01*
X11498D02*
Y20D01*
X11479D02*
Y9580D01*
X11460D02*
Y20D01*
X11441D02*
Y9580D01*
X11422D02*
Y20D01*
X11403D02*
Y9580D01*
X11384D02*
Y20D01*
X11365D02*
Y9580D01*
X11346D02*
Y20D01*
X11327D02*
Y9580D01*
X11308D02*
Y20D01*
X11289D02*
Y9580D01*
X11270D02*
Y20D01*
X11251D02*
Y9580D01*
X11232D02*
Y20D01*
X11213D02*
Y9580D01*
X11194D02*
Y20D01*
X11175D02*
Y9580D01*
X11156D02*
Y20D01*
X11137D02*
Y9580D01*
X11118D02*
Y20D01*
X11099D02*
Y9580D01*
X11080D02*
Y20D01*
X11061D02*
Y9580D01*
X11042D02*
Y20D01*
X11023D02*
Y9580D01*
X11004D02*
Y20D01*
X10985D02*
Y9580D01*
X10966D02*
Y20D01*
X10947D02*
Y9580D01*
X10928D02*
Y20D01*
X10909D02*
Y9580D01*
X10890D02*
Y20D01*
X10871D02*
Y9580D01*
X10852D02*
Y20D01*
X10833D02*
Y9580D01*
X10814D02*
Y20D01*
X10795D02*
Y9580D01*
X10776D02*
Y20D01*
X10757D02*
Y9580D01*
X10738D02*
Y20D01*
X10719D02*
Y9580D01*
X10700D02*
Y20D01*
X10681D02*
Y9580D01*
X10662D02*
Y20D01*
X10643D02*
Y9580D01*
X10624D02*
Y20D01*
X10605D02*
Y9580D01*
X10586D02*
Y20D01*
X10567D02*
Y9580D01*
X10548D02*
Y20D01*
X10529D02*
Y9580D01*
X10510D02*
Y20D01*
X10491D02*
Y9580D01*
X10472D02*
Y20D01*
X10453D02*
Y9580D01*
X10434D02*
Y20D01*
X10415D02*
Y9580D01*
X10396D02*
Y20D01*
X10377D02*
Y9580D01*
X10358D02*
Y20D01*
X10339D02*
Y9580D01*
X10320D02*
Y20D01*
X10301D02*
Y9580D01*
X10282D02*
Y20D01*
X10263D02*
Y9580D01*
X10244D02*
Y20D01*
X10225D02*
Y9580D01*
X10206D02*
Y20D01*
X10187D02*
Y9580D01*
X10168D02*
Y20D01*
X10149D02*
Y9580D01*
X10130D02*
Y20D01*
X10111D02*
Y9580D01*
X10092D02*
Y20D01*
X10073D02*
Y9580D01*
X10054D02*
Y20D01*
X10035D02*
Y9580D01*
X10016D02*
Y20D01*
X9997D02*
Y9580D01*
X9978D02*
Y20D01*
X9959D02*
Y9580D01*
X9940D02*
Y20D01*
X9921D02*
Y9580D01*
X9902D02*
Y20D01*
X9883D02*
Y9580D01*
X9864D02*
Y20D01*
X9845D02*
Y9580D01*
X9826D02*
Y20D01*
X9807D02*
Y9580D01*
X9788D02*
Y20D01*
X9769D02*
Y9580D01*
X9750D02*
Y20D01*
X9731D02*
Y9580D01*
X9712D02*
Y20D01*
X9693D02*
Y9580D01*
X9674D02*
Y20D01*
X9655D02*
Y9580D01*
X9636D02*
Y20D01*
X9617D02*
Y9580D01*
X9598D02*
Y20D01*
X9579D02*
Y9580D01*
X9560D02*
Y20D01*
X9541D02*
Y9580D01*
X9522D02*
Y20D01*
X9503D02*
Y9580D01*
X9484D02*
Y20D01*
X9465D02*
Y9580D01*
X9446D02*
Y20D01*
X9427D02*
Y9580D01*
X9408D02*
Y20D01*
X9389D02*
Y9580D01*
X9370D02*
Y20D01*
X9351D02*
Y9580D01*
X9332D02*
Y20D01*
X9313D02*
Y9580D01*
X9294D02*
Y20D01*
X9275D02*
Y9580D01*
X9256D02*
Y20D01*
X9237D02*
Y9580D01*
X9218D02*
Y20D01*
X9199D02*
Y3319D01*
Y3331D02*
Y6317D01*
Y6330D02*
Y9580D01*
X9180Y3147D02*
Y20D01*
Y3447D02*
Y6148D01*
Y6448D02*
Y9580D01*
X9161Y3092D02*
Y20D01*
Y3512D02*
Y6091D01*
Y6511D02*
Y9580D01*
X9142Y3045D02*
Y20D01*
Y3553D02*
Y6046D01*
Y6554D02*
Y9580D01*
X9123Y3009D02*
Y20D01*
Y3593D02*
Y6008D01*
Y6592D02*
Y9580D01*
X9104Y2976D02*
Y20D01*
Y3622D02*
Y5976D01*
Y6623D02*
Y9580D01*
X9085Y2950D02*
Y20D01*
Y3651D02*
Y5950D01*
Y6653D02*
Y9580D01*
X9066Y2924D02*
Y20D01*
Y3676D02*
Y5923D01*
Y6676D02*
Y9580D01*
X9047Y2901D02*
Y20D01*
Y3698D02*
Y5902D01*
Y6698D02*
Y9580D01*
X9028Y2882D02*
Y20D01*
Y3719D02*
Y5882D01*
Y6720D02*
Y9580D01*
X9009Y2863D02*
Y20D01*
Y3738D02*
Y5862D01*
Y6737D02*
Y9580D01*
X8990Y2844D02*
Y20D01*
Y3754D02*
Y5845D01*
Y6754D02*
Y9580D01*
X8971Y2830D02*
Y20D01*
Y3769D02*
Y5831D01*
Y6770D02*
Y9580D01*
X8952Y2816D02*
Y20D01*
Y3785D02*
Y5816D01*
Y6785D02*
Y9580D01*
X8933Y2802D02*
Y20D01*
Y3798D02*
Y5801D01*
Y6797D02*
Y9580D01*
X8914Y2789D02*
Y20D01*
Y3809D02*
Y5790D01*
Y6809D02*
Y9580D01*
X8895Y2779D02*
Y20D01*
Y3821D02*
Y5779D01*
Y6822D02*
Y9580D01*
X8876Y2769D02*
Y20D01*
Y3832D02*
Y5769D01*
Y6832D02*
Y9580D01*
X8857Y2759D02*
Y20D01*
Y3841D02*
Y5758D01*
Y6841D02*
Y9580D01*
X8838Y2750D02*
Y20D01*
Y3849D02*
Y5751D01*
Y6849D02*
Y9580D01*
X8819Y2743D02*
Y20D01*
Y3857D02*
Y5743D01*
Y6858D02*
Y9580D01*
X8800Y2736D02*
Y20D01*
Y3864D02*
Y5736D01*
Y6865D02*
Y9580D01*
X8781Y2730D02*
Y20D01*
Y3872D02*
Y5729D01*
Y6871D02*
Y9580D01*
X8762Y2723D02*
Y20D01*
Y3876D02*
Y5723D01*
Y6876D02*
Y9580D01*
X8743Y2718D02*
Y20D01*
Y3881D02*
Y5719D01*
Y6881D02*
Y9580D01*
X8724Y2714D02*
Y20D01*
Y3885D02*
Y5715D01*
Y6887D02*
Y9580D01*
X8705Y2711D02*
Y20D01*
Y3890D02*
Y5710D01*
Y6890D02*
Y9580D01*
X8686Y2708D02*
Y20D01*
Y3893D02*
Y5706D01*
Y6892D02*
Y9580D01*
X8667Y2704D02*
Y20D01*
Y3895D02*
Y5705D01*
Y6895D02*
Y9580D01*
X8648Y2703D02*
Y20D01*
Y3896D02*
Y5704D01*
Y6897D02*
Y9580D01*
X8629Y2702D02*
Y20D01*
Y3898D02*
Y5702D01*
Y6899D02*
Y9580D01*
X8610Y2702D02*
Y20D01*
Y6899D02*
Y9580D01*
X8591Y2701D02*
Y20D01*
Y6898D02*
Y9580D01*
X8572Y2701D02*
Y20D01*
Y6898D02*
Y9580D01*
X8553Y2703D02*
Y20D01*
Y6897D02*
Y9580D01*
X8534Y2705D02*
Y20D01*
Y6896D02*
Y9580D01*
X8515Y2708D02*
Y20D01*
Y6893D02*
Y9580D01*
X8496Y2710D02*
Y20D01*
Y6889D02*
Y9580D01*
X8477Y2713D02*
Y20D01*
Y6886D02*
Y9580D01*
X8458Y2718D02*
Y20D01*
Y6883D02*
Y9580D01*
X8439Y2724D02*
Y20D01*
Y6877D02*
Y9580D01*
X8420Y2729D02*
Y20D01*
Y6871D02*
Y9580D01*
X8401Y2735D02*
Y20D01*
Y6864D02*
Y9580D01*
X8382Y2742D02*
Y20D01*
Y6858D02*
Y9580D01*
X8363Y2751D02*
Y20D01*
Y6851D02*
Y9580D01*
X8344Y2759D02*
Y20D01*
Y6841D02*
Y9580D01*
X8325Y2768D02*
Y20D01*
Y6832D02*
Y9580D01*
X8306Y2777D02*
Y20D01*
Y6822D02*
Y9580D01*
X8287Y2790D02*
Y20D01*
Y6811D02*
Y9580D01*
X8268Y2802D02*
Y20D01*
Y6798D02*
Y9580D01*
X8249Y2815D02*
Y20D01*
Y6785D02*
Y9580D01*
X8230Y2828D02*
Y20D01*
Y6771D02*
Y9580D01*
X8211Y2845D02*
Y20D01*
Y6756D02*
Y9580D01*
X8192Y2863D02*
Y20D01*
Y6738D02*
Y9580D01*
X8173Y2880D02*
Y20D01*
Y6720D02*
Y9580D01*
X8154Y2900D02*
Y20D01*
Y6701D02*
Y9580D01*
X8135Y2924D02*
Y20D01*
Y6677D02*
Y9580D01*
X8116Y2947D02*
Y20D01*
Y6652D02*
Y9580D01*
X8097Y2975D02*
Y20D01*
Y6626D02*
Y9580D01*
X8078Y3008D02*
Y20D01*
Y6593D02*
Y9580D01*
X8059Y3042D02*
Y20D01*
Y6559D02*
Y9580D01*
X8040Y3089D02*
Y20D01*
Y6511D02*
Y9580D01*
X8021Y3149D02*
Y20D01*
Y6452D02*
Y9580D01*
X8002Y3273D02*
Y20D01*
Y6327D02*
Y9580D01*
X7983Y3280D02*
Y20D01*
Y6320D02*
Y9580D01*
X7964Y3280D02*
Y20D01*
Y6320D02*
Y9580D01*
X7945Y3280D02*
Y20D01*
Y6320D02*
Y9580D01*
X7926Y3280D02*
Y20D01*
Y6320D02*
Y9580D01*
X7907Y3280D02*
Y20D01*
Y6320D02*
Y9580D01*
X7888Y3280D02*
Y20D01*
Y6320D02*
Y9580D01*
X7869Y3280D02*
Y20D01*
Y6320D02*
Y9580D01*
X7850Y3280D02*
Y20D01*
Y6320D02*
Y9580D01*
X7831Y3280D02*
Y20D01*
Y6320D02*
Y9580D01*
X12619Y6252D02*
Y3349D01*
X12638Y3345D02*
Y6255D01*
X12657Y6262D02*
Y3338D01*
X12676Y3329D02*
Y6271D01*
X12695Y6284D02*
Y3316D01*
X12714Y3297D02*
Y6303D01*
X12733Y6331D02*
Y3269D01*
X12752Y3200D02*
Y6400D01*
X12771D02*
Y3200D01*
X12790D02*
Y6400D01*
X12809D02*
Y3200D01*
X12828Y20D02*
Y9580D01*
X12847D02*
Y20D01*
X12866D02*
Y9580D01*
X12885D02*
Y20D01*
X12904D02*
Y9580D01*
X12923D02*
Y20D01*
X12942D02*
Y9580D01*
X12961D02*
Y20D01*
X12980D02*
Y9580D01*
X12999D02*
Y20D01*
X13018D02*
Y9580D01*
X13037D02*
Y20D01*
X13056D02*
Y9580D01*
X13075D02*
Y20D01*
X13094D02*
Y9580D01*
X13113D02*
Y20D01*
X13132D02*
Y9580D01*
X13151D02*
Y20D01*
X13170D02*
Y9580D01*
X13189D02*
Y20D01*
X13208D02*
Y9580D01*
X13227D02*
Y20D01*
X13246D02*
Y9580D01*
X13265D02*
Y20D01*
X13284D02*
Y9580D01*
X13303D02*
Y20D01*
X13322D02*
Y9580D01*
X13341D02*
Y20D01*
X13360D02*
Y9580D01*
X13379D02*
Y20D01*
X13398D02*
Y9580D01*
X13417D02*
Y20D01*
X13436D02*
Y9580D01*
X13455D02*
Y20D01*
X13474D02*
Y9580D01*
X13493D02*
Y20D01*
X13512D02*
Y9580D01*
X13531D02*
Y20D01*
X13550D02*
Y9580D01*
X13569D02*
Y20D01*
X13588D02*
Y9580D01*
X13607D02*
Y20D01*
X13626D02*
Y9580D01*
X13645D02*
Y20D01*
X13664D02*
Y9580D01*
X13683D02*
Y20D01*
X13702D02*
Y9580D01*
X13721D02*
Y20D01*
X13740D02*
Y9580D01*
X13759D02*
Y20D01*
X13778D02*
Y9580D01*
X13797D02*
Y20D01*
X13816D02*
Y9580D01*
X13835D02*
Y20D01*
X13854D02*
Y9580D01*
X13873D02*
Y20D01*
X13892D02*
Y9580D01*
X13911D02*
Y20D01*
X13930D02*
Y9580D01*
X13949D02*
Y20D01*
X13968D02*
Y9580D01*
X13987D02*
Y20D01*
X14006D02*
Y9580D01*
X14025D02*
Y20D01*
X14044D02*
Y9580D01*
X14063D02*
Y20D01*
X14082D02*
Y9580D01*
X14101D02*
Y20D01*
X14120D02*
Y9580D01*
X14139D02*
Y20D01*
X14158D02*
Y9580D01*
X14177D02*
Y20D01*
X14196D02*
Y9580D01*
X14215D02*
Y20D01*
X14234D02*
Y9580D01*
X14253D02*
Y20D01*
X14272D02*
Y9580D01*
X14291D02*
Y20D01*
X14310D02*
Y9580D01*
X14329D02*
Y20D01*
X14348D02*
Y9580D01*
X14367D02*
Y20D01*
X14386D02*
Y9580D01*
X14405D02*
Y20D01*
X14424D02*
Y9580D01*
X14443D02*
Y20D01*
X14462D02*
Y9580D01*
X14481D02*
Y20D01*
X14500D02*
Y9580D01*
X14519D02*
Y20D01*
X14538D02*
Y9580D01*
X14557D02*
Y20D01*
X14576D02*
Y9580D01*
X14595D02*
Y20D01*
X14614D02*
Y9580D01*
X14633D02*
Y20D01*
X14652D02*
Y9580D01*
X14671D02*
Y20D01*
X14690D02*
Y9580D01*
X14709D02*
Y20D01*
X14728D02*
Y9580D01*
X14747D02*
Y20D01*
X14766D02*
Y9580D01*
X14785D02*
Y20D01*
X14804D02*
Y9580D01*
X14823D02*
Y20D01*
X14842D02*
Y9580D01*
X14861D02*
Y20D01*
X14880D02*
Y9580D01*
X14899D02*
Y20D01*
X14918D02*
Y9580D01*
X14937D02*
Y20D01*
X14956D02*
Y9580D01*
X14975D02*
Y20D01*
X14994D02*
Y9580D01*
X15013D02*
Y20D01*
X15032D02*
Y9580D01*
X15051D02*
Y20D01*
X15070D02*
Y9580D01*
X15089D02*
Y20D01*
X15108D02*
Y9580D01*
X15127D02*
Y20D01*
X15146D02*
Y9580D01*
X15165D02*
Y20D01*
X15184D02*
Y9580D01*
X15203D02*
Y20D01*
X15222D02*
Y9580D01*
X15241D02*
Y20D01*
X15260D02*
Y9580D01*
X15279D02*
Y20D01*
X15298D02*
Y9580D01*
X15317D02*
Y20D01*
X15336D02*
Y9580D01*
X15355D02*
Y20D01*
X15374D02*
Y9580D01*
X15393D02*
Y20D01*
X15412D02*
Y9580D01*
X15431D02*
Y20D01*
X15450D02*
Y9580D01*
X15469D02*
Y20D01*
X15488D02*
Y9580D01*
X15507D02*
Y20D01*
X15526D02*
Y9580D01*
X15545D02*
Y20D01*
X15564D02*
Y9580D01*
X15583D02*
Y20D01*
X15602D02*
Y9580D01*
X15621D02*
Y20D01*
X15640D02*
Y9580D01*
X15659D02*
Y20D01*
X15678D02*
Y9580D01*
X15697D02*
Y20D01*
X15716D02*
Y9580D01*
X15735D02*
Y20D01*
X15754D02*
Y9580D01*
X15773D02*
Y20D01*
X15792D02*
Y9580D01*
X15811D02*
Y20D01*
X15830D02*
Y9580D01*
X15849D02*
Y20D01*
X15868D02*
Y9580D01*
X15887D02*
Y20D01*
X15906D02*
Y9580D01*
X15925D02*
Y20D01*
X15944D02*
Y9580D01*
X15963D02*
Y20D01*
X15982D02*
Y9580D01*
X16001Y3326D02*
Y20D01*
Y3333D02*
Y6269D01*
Y6281D02*
Y9580D01*
X16020Y3148D02*
Y20D01*
Y3448D02*
Y6153D01*
Y6453D02*
Y9580D01*
X16039Y3092D02*
Y20D01*
Y3512D02*
Y6088D01*
Y6508D02*
Y9580D01*
X16058Y3046D02*
Y20D01*
Y3553D02*
Y6047D01*
Y6555D02*
Y9580D01*
X16077Y3009D02*
Y20D01*
Y3594D02*
Y6007D01*
Y6591D02*
Y9580D01*
X16096Y2976D02*
Y20D01*
Y3622D02*
Y5978D01*
Y6625D02*
Y9580D01*
X16115Y2950D02*
Y20D01*
Y3651D02*
Y5949D01*
Y6650D02*
Y9580D01*
X16134Y2924D02*
Y20D01*
Y3677D02*
Y5924D01*
Y6676D02*
Y9580D01*
X16153Y2901D02*
Y20D01*
Y3698D02*
Y5903D01*
Y6699D02*
Y9580D01*
X16172Y2882D02*
Y20D01*
Y3719D02*
Y5881D01*
Y6718D02*
Y9580D01*
X16191Y2863D02*
Y20D01*
Y3739D02*
Y5862D01*
Y6737D02*
Y9580D01*
X16210Y2844D02*
Y20D01*
Y3754D02*
Y5846D01*
Y6756D02*
Y9580D01*
X16229Y2830D02*
Y20D01*
Y3769D02*
Y5831D01*
Y6770D02*
Y9580D01*
X16248Y2816D02*
Y20D01*
Y3785D02*
Y5815D01*
Y6784D02*
Y9580D01*
X16267Y2802D02*
Y20D01*
Y3798D02*
Y5802D01*
Y6798D02*
Y9580D01*
X16286Y2789D02*
Y20D01*
Y3809D02*
Y5791D01*
Y6811D02*
Y9580D01*
X16305Y2779D02*
Y20D01*
Y3820D02*
Y5780D01*
Y6821D02*
Y9580D01*
X16324Y2769D02*
Y20D01*
Y3832D02*
Y5768D01*
Y6831D02*
Y9580D01*
X16343Y2759D02*
Y20D01*
Y3842D02*
Y5759D01*
Y6841D02*
Y9580D01*
X16362Y2749D02*
Y20D01*
Y3849D02*
Y5751D01*
Y6851D02*
Y9580D01*
X16381Y2743D02*
Y20D01*
Y3857D02*
Y5743D01*
Y6857D02*
Y9580D01*
X16400Y2736D02*
Y20D01*
Y3864D02*
Y5736D01*
Y6864D02*
Y9580D01*
X16419Y2730D02*
Y20D01*
Y3872D02*
Y5728D01*
Y6870D02*
Y9580D01*
X16438Y2723D02*
Y20D01*
Y3877D02*
Y5724D01*
Y6877D02*
Y9580D01*
X16457Y2718D02*
Y20D01*
Y3881D02*
Y5719D01*
Y6882D02*
Y9580D01*
X16476Y2715D02*
Y20D01*
Y3885D02*
Y5715D01*
Y6886D02*
Y9580D01*
X16495Y2711D02*
Y20D01*
Y3890D02*
Y5710D01*
Y6889D02*
Y9580D01*
X16514Y2708D02*
Y20D01*
Y3894D02*
Y5707D01*
Y6892D02*
Y9580D01*
X16533Y2704D02*
Y20D01*
Y3895D02*
Y5705D01*
Y6896D02*
Y9580D01*
X16552Y2703D02*
Y20D01*
Y3896D02*
Y5704D01*
Y6897D02*
Y9580D01*
X16571Y2702D02*
Y20D01*
Y3898D02*
Y5702D01*
Y6898D02*
Y9580D01*
X16590Y2702D02*
Y20D01*
Y6898D02*
Y9580D01*
X16609Y2701D02*
Y20D01*
Y6899D02*
Y9580D01*
X16628Y2701D02*
Y20D01*
Y6899D02*
Y9580D01*
X16647Y2703D02*
Y20D01*
Y6897D02*
Y9580D01*
X16666Y2705D02*
Y20D01*
Y6895D02*
Y9580D01*
X16685Y2708D02*
Y20D01*
Y6892D02*
Y9580D01*
X16704Y2710D02*
Y20D01*
Y6890D02*
Y9580D01*
X16723Y2713D02*
Y20D01*
Y6887D02*
Y9580D01*
X16742Y2719D02*
Y20D01*
Y6882D02*
Y9580D01*
X16761Y2724D02*
Y20D01*
Y6876D02*
Y9580D01*
X16780Y2729D02*
Y20D01*
Y6871D02*
Y9580D01*
X16799Y2735D02*
Y20D01*
Y6865D02*
Y9580D01*
X16818Y2742D02*
Y20D01*
Y6858D02*
Y9580D01*
X16837Y2751D02*
Y20D01*
Y6850D02*
Y9580D01*
X16856Y2759D02*
Y20D01*
Y6841D02*
Y9580D01*
X16875Y2768D02*
Y20D01*
Y6832D02*
Y9580D01*
X16894Y2778D02*
Y20D01*
Y6823D02*
Y9580D01*
X16913Y2790D02*
Y20D01*
Y6810D02*
Y9580D01*
X16932Y2802D02*
Y20D01*
Y6798D02*
Y9580D01*
X16951Y2815D02*
Y20D01*
Y6785D02*
Y9580D01*
X16970Y2828D02*
Y20D01*
Y6772D02*
Y9580D01*
X16989Y2845D02*
Y20D01*
Y6755D02*
Y9580D01*
X17008Y2862D02*
Y20D01*
Y6738D02*
Y9580D01*
X17027Y2879D02*
Y20D01*
Y6720D02*
Y9580D01*
X17046Y2901D02*
Y20D01*
Y6700D02*
Y9580D01*
X17065Y2924D02*
Y20D01*
Y6676D02*
Y9580D01*
X17084Y2947D02*
Y20D01*
Y6653D02*
Y9580D01*
X17103Y2976D02*
Y20D01*
Y6625D02*
Y9580D01*
X17122Y3008D02*
Y20D01*
Y6592D02*
Y9580D01*
X17141Y3042D02*
Y20D01*
Y6559D02*
Y9580D01*
X17160Y3089D02*
Y20D01*
Y6511D02*
Y9580D01*
X17179Y3149D02*
Y20D01*
Y6451D02*
Y9580D01*
X17198Y3274D02*
Y20D01*
Y6327D02*
Y9580D01*
X17217Y3280D02*
Y20D01*
Y6320D02*
Y9580D01*
X17236Y3280D02*
Y20D01*
Y6320D02*
Y9580D01*
X17255Y3280D02*
Y20D01*
Y6320D02*
Y9580D01*
X17274Y3280D02*
Y20D01*
Y6320D02*
Y9580D01*
X17293Y3280D02*
Y20D01*
Y6320D02*
Y9580D01*
X17312Y3280D02*
Y20D01*
Y6320D02*
Y9580D01*
X17331Y3280D02*
Y20D01*
Y6320D02*
Y9580D01*
X17350Y3280D02*
Y20D01*
Y6320D02*
Y9580D01*
X17369Y3280D02*
Y20D01*
Y6320D02*
Y9580D01*
G54D10*
X17395Y6305D02*
Y9595D01*
X12805D01*
Y6415D01*
X12735D01*
X12733Y6379D01*
X12729Y6360D01*
X12721Y6341D01*
X12711Y6324D01*
X12699Y6308D01*
X12684Y6294D01*
X12667Y6283D01*
X12649Y6274D01*
X12630Y6268D01*
X12610Y6265D01*
X12590D01*
X12570Y6269D01*
X12550Y6274D01*
X12532Y6283D01*
X12515Y6295D01*
X12501Y6308D01*
X12488Y6324D01*
X12478Y6342D01*
X12471Y6361D01*
X12467Y6380D01*
X12465Y6415D01*
X12395D01*
Y9595D01*
X7805D01*
Y6305D01*
X8015D01*
X8021Y6386D01*
X8040Y6470D01*
X8071Y6550D01*
X8114Y6625D01*
X8167Y6693D01*
X8229Y6752D01*
X8300Y6802D01*
X8376Y6841D01*
X8458Y6868D01*
X8543Y6882D01*
X8629Y6884D01*
X8715Y6874D01*
X8797Y6851D01*
X8876Y6816D01*
X8949Y6770D01*
X9014Y6713D01*
X9070Y6648D01*
X9116Y6575D01*
X9151Y6497D01*
X9174Y6414D01*
X9184Y6328D01*
X9182Y6242D01*
X9167Y6158D01*
X9140Y6076D01*
X9102Y5999D01*
X9052Y5929D01*
X8993Y5866D01*
X8925Y5813D01*
X8850Y5771D01*
X8769Y5740D01*
X8685Y5721D01*
X8605Y5715D01*
Y3885D01*
X8689Y3878D01*
X8775Y3858D01*
X8858Y3825D01*
X8934Y3780D01*
X9003Y3724D01*
X9063Y3658D01*
X9112Y3584D01*
X9149Y3503D01*
X9173Y3417D01*
X9184Y3329D01*
X9182Y3240D01*
X9166Y3153D01*
X9137Y3069D01*
X9096Y2990D01*
X9044Y2919D01*
X8981Y2856D01*
X8909Y2803D01*
X8830Y2762D01*
X8746Y2734D01*
X8659Y2718D01*
X8570Y2716D01*
X8482Y2727D01*
X8397Y2752D01*
X8316Y2789D01*
X8242Y2838D01*
X8176Y2897D01*
X8120Y2966D01*
X8075Y3043D01*
X8042Y3125D01*
X8022Y3212D01*
X8015Y3295D01*
X7805D01*
Y5D01*
X12395D01*
Y3185D01*
X12465D01*
X12466Y3220D01*
X12471Y3238D01*
X12477Y3256D01*
X12487Y3273D01*
X12498Y3289D01*
X12512Y3302D01*
X12527Y3314D01*
X12544Y3323D01*
X12562Y3330D01*
X12581Y3334D01*
X12600Y3335D01*
X12620Y3334D01*
X12638Y3329D01*
X12656Y3323D01*
X12673Y3313D01*
X12689Y3302D01*
X12702Y3288D01*
X12714Y3273D01*
X12723Y3256D01*
X12730Y3238D01*
X12734Y3219D01*
X12735Y3185D01*
X12805D01*
Y5D01*
X17395D01*
Y3295D01*
X17185D01*
X17178Y3211D01*
X17158Y3125D01*
X17125Y3042D01*
X17080Y2966D01*
X17024Y2897D01*
X16958Y2837D01*
X16884Y2788D01*
X16803Y2751D01*
X16717Y2727D01*
X16629Y2716D01*
X16540Y2718D01*
X16453Y2734D01*
X16369Y2763D01*
X16290Y2804D01*
X16219Y2856D01*
X16156Y2919D01*
X16103Y2991D01*
X16062Y3070D01*
X16034Y3154D01*
X16018Y3241D01*
X16016Y3330D01*
X16027Y3418D01*
X16052Y3503D01*
X16089Y3584D01*
X16138Y3658D01*
X16197Y3724D01*
X16266Y3780D01*
X16343Y3825D01*
X16425Y3858D01*
X16512Y3878D01*
X16595Y3885D01*
Y5715D01*
X16511Y5722D01*
X16425Y5742D01*
X16342Y5775D01*
X16266Y5820D01*
X16197Y5876D01*
X16137Y5942D01*
X16088Y6016D01*
X16051Y6097D01*
X16027Y6183D01*
X16016Y6271D01*
X16018Y6360D01*
X16034Y6447D01*
X16063Y6531D01*
X16104Y6610D01*
X16156Y6681D01*
X16219Y6744D01*
X16291Y6797D01*
X16370Y6838D01*
X16454Y6866D01*
X16541Y6882D01*
X16630Y6884D01*
X16718Y6873D01*
X16803Y6848D01*
X16884Y6811D01*
X16958Y6762D01*
X17024Y6703D01*
X17080Y6634D01*
X17125Y6557D01*
X17158Y6475D01*
X17178Y6388D01*
X17185Y6305D01*
X17395D01*
X8595Y5715D02*
X8516Y5721D01*
X8435Y5739D01*
X8357Y5768D01*
X8283Y5808D01*
X8217Y5858D01*
X8158Y5917D01*
X8108Y5984D01*
X8068Y6057D01*
X8039Y6136D01*
X8021Y6217D01*
X8015Y6295D01*
X7805D01*
Y3305D01*
X8015D01*
X8020Y3377D01*
X8035Y3452D01*
X8060Y3524D01*
X8094Y3593D01*
X8136Y3656D01*
X8187Y3714D01*
X8244Y3764D01*
X8308Y3807D01*
X8376Y3841D01*
X8449Y3865D01*
X8524Y3880D01*
X8595Y3885D01*
Y5715D01*
X8590Y5711D02*
X8515Y5716D01*
X8433Y5734D01*
X8354Y5764D01*
X8280Y5804D01*
X8213Y5855D01*
X8154Y5914D01*
X8103Y5982D01*
X8063Y6056D01*
X8034Y6134D01*
X8016Y6217D01*
X8011Y6290D01*
X7810D01*
Y3310D01*
X8011D01*
X8015Y3378D01*
X8030Y3453D01*
X8055Y3526D01*
X8089Y3596D01*
X8132Y3660D01*
X8183Y3718D01*
X8241Y3768D01*
X8306Y3811D01*
X8375Y3845D01*
X8448Y3870D01*
X8524Y3885D01*
X8590Y3889D01*
Y5711D01*
G54D11*
X8580Y5701D02*
X8513Y5706D01*
X8430Y5725D01*
X8350Y5755D01*
X8274Y5796D01*
X8206Y5848D01*
X8146Y5908D01*
X8095Y5977D01*
X8054Y6052D01*
X8024Y6132D01*
X8006Y6216D01*
X8001Y6280D01*
X7820D01*
Y3320D01*
X8001D01*
X8005Y3380D01*
X8021Y3457D01*
X8046Y3531D01*
X8081Y3601D01*
X8125Y3666D01*
X8177Y3725D01*
X8236Y3777D01*
X8301Y3820D01*
X8372Y3855D01*
X8446Y3880D01*
X8523Y3895D01*
X8580Y3899D01*
Y5701D01*
G54D12*
X8560Y5683D02*
X8509Y5687D01*
X8423Y5706D01*
X8340Y5737D01*
X8262Y5780D01*
X8192Y5833D01*
X8130Y5896D01*
X8077Y5967D01*
X8035Y6045D01*
X8004Y6128D01*
X7986Y6215D01*
X7983Y6260D01*
X7840D01*
Y3340D01*
X7983D01*
X7986Y3384D01*
X8002Y3463D01*
X8028Y3540D01*
X8064Y3612D01*
X8110Y3680D01*
X8164Y3740D01*
X8225Y3793D01*
X8292Y3838D01*
X8365Y3874D01*
X8442Y3899D01*
X8522Y3915D01*
X8560Y3917D01*
Y5683D01*
G54D13*
X8520Y5646D02*
X8500Y5648D01*
X8408Y5669D01*
X8321Y5702D01*
X8238Y5748D01*
X8163Y5805D01*
X8098Y5872D01*
X8042Y5948D01*
X7997Y6031D01*
X7965Y6120D01*
X7946Y6212D01*
Y6220D01*
X7880D01*
Y3380D01*
X7945D01*
X7947Y3392D01*
X7964Y3476D01*
X7992Y3558D01*
X8031Y3635D01*
X8080Y3706D01*
X8137Y3770D01*
X8203Y3827D01*
X8275Y3874D01*
X8353Y3912D01*
X8435Y3939D01*
X8519Y3955D01*
X8520D01*
Y5646D01*
X7944Y6137D02*
X7882Y3455D01*
X7913Y6220D02*
Y4796D01*
X8200Y5777D02*
Y3825D01*
X8124Y3756D02*
Y5846D01*
X8048Y5940D02*
Y3659D01*
X7972Y3499D02*
Y6101D01*
X7896Y6220D02*
Y3380D01*
X8276Y3875D02*
Y5727D01*
X8352Y5690D02*
Y3912D01*
X8428Y3937D02*
Y5664D01*
X8504Y5647D02*
Y3952D01*
G54D10*
X8595Y5715D02*
X8516Y5721D01*
X8435Y5739D01*
X8357Y5768D01*
X8283Y5808D01*
X8217Y5858D01*
X8158Y5917D01*
X8108Y5984D01*
X8068Y6057D01*
X8039Y6136D01*
X8021Y6217D01*
X8015Y6295D01*
X7805D01*
Y3305D01*
X8015D01*
X8020Y3377D01*
X8035Y3452D01*
X8060Y3524D01*
X8094Y3593D01*
X8136Y3656D01*
X8187Y3714D01*
X8244Y3764D01*
X8308Y3807D01*
X8376Y3841D01*
X8449Y3865D01*
X8524Y3880D01*
X8595Y3885D01*
Y5715D01*
M02*

